STARTFONT 2.1
COMMENT
COMMENT Converted from OpenType font "TimesB.otf" by "otf2bdf 3.0".
COMMENT
FONT -FreeType-Times New Roman-Bold-R-Normal--22-160-100-100-P-111-ISO10646-1
SIZE 16 100 100
FONTBOUNDINGBOX 36 30 -12 -7
STARTPROPERTIES 19
FOUNDRY "FreeType"
FAMILY_NAME "Times New Roman"
WEIGHT_NAME "Bold"
SLANT "R"
SETWIDTH_NAME "Normal"
ADD_STYLE_NAME ""
PIXEL_SIZE 22
POINT_SIZE 160
RESOLUTION_X 100
RESOLUTION_Y 100
SPACING "P"
AVERAGE_WIDTH 111
CHARSET_REGISTRY "ISO10646"
CHARSET_ENCODING "1"
FONT_ASCENT 19
FONT_DESCENT 4
COPYRIGHT "© 2006 The Monotype Corporation. All Rights Reserved."
_OTF_FONTFILE "TimesB.otf"
_OTF_PSNAME "TimesNewRomanPS-BoldMT"
ENDPROPERTIES
CHARS 1425
STARTCHAR 0020
ENCODING 32
SWIDTH 270 0
DWIDTH 6 0
BBX 0 0 0 0
BITMAP
ENDCHAR
STARTCHAR 0021
ENCODING 33
SWIDTH 315 0
DWIDTH 7 0
BBX 3 15 2 0
BITMAP
E0
E0
E0
E0
E0
60
60
40
40
40
00
00
E0
E0
E0
ENDCHAR
STARTCHAR 0022
ENCODING 34
SWIDTH 540 0
DWIDTH 12 0
BBX 8 7 2 8
BITMAP
E3
E7
E7
E3
43
42
42
ENDCHAR
STARTCHAR 0023
ENCODING 35
SWIDTH 495 0
DWIDTH 11 0
BBX 11 15 0 0
BITMAP
0840
08C0
08C0
1880
1880
FFE0
1180
1180
3100
FFE0
FFE0
2300
2300
6200
6200
ENDCHAR
STARTCHAR 0024
ENCODING 36
SWIDTH 495 0
DWIDTH 11 0
BBX 9 16 1 -1
BITMAP
0C00
7B80
C980
C880
E880
F800
7C00
3E00
1F80
0F80
0B80
8980
8980
C980
FF00
0800
ENDCHAR
STARTCHAR 0025
ENCODING 37
SWIDTH 990 0
DWIDTH 22 0
BBX 19 16 2 -1
BITMAP
780600
CC0400
CE0800
CE1800
CE1000
CE2000
CC6000
384000
008780
018CC0
010CE0
021CE0
061CE0
040CC0
080CC0
180300
ENDCHAR
STARTCHAR 0026
ENCODING 38
SWIDTH 855 0
DWIDTH 19 0
BBX 16 15 1 0
BITMAP
03C0
0660
0C70
0C60
0E60
0F80
0F0F
1786
6784
E3C8
E1E8
F1F0
F0F8
FCFF
7F3E
ENDCHAR
STARTCHAR 0027
ENCODING 39
SWIDTH 270 0
DWIDTH 6 0
BBX 3 7 2 8
BITMAP
C0
E0
E0
C0
C0
C0
40
ENDCHAR
STARTCHAR 0028
ENCODING 40
SWIDTH 315 0
DWIDTH 7 0
BBX 6 19 1 -4
BITMAP
04
18
30
30
60
60
E0
E0
E0
E0
E0
E0
E0
60
60
70
30
18
0C
ENDCHAR
STARTCHAR 0029
ENCODING 41
SWIDTH 315 0
DWIDTH 7 0
BBX 7 19 0 -4
BITMAP
C0
20
30
18
18
1C
1C
0C
0C
0E
0C
0C
1C
1C
18
18
10
20
40
ENDCHAR
STARTCHAR 002A
ENCODING 42
SWIDTH 495 0
DWIDTH 11 0
BBX 9 8 1 7
BITMAP
0C00
1C00
4900
EB80
7F00
1400
3600
7700
ENDCHAR
STARTCHAR 002B
ENCODING 43
SWIDTH 585 0
DWIDTH 13 0
BBX 12 12 0 1
BITMAP
0200
0200
0200
0200
0200
FFF0
0200
0200
0200
0200
0200
0200
ENDCHAR
STARTCHAR 002C
ENCODING 44
SWIDTH 270 0
DWIDTH 6 0
BBX 4 7 1 -4
BITMAP
E0
F0
F0
30
20
20
C0
ENDCHAR
STARTCHAR 002D
ENCODING 45
SWIDTH 315 0
DWIDTH 7 0
BBX 6 2 1 4
BITMAP
FC
FC
ENDCHAR
STARTCHAR 002E
ENCODING 46
SWIDTH 270 0
DWIDTH 6 0
BBX 4 3 1 0
BITMAP
E0
F0
E0
ENDCHAR
STARTCHAR 002F
ENCODING 47
SWIDTH 270 0
DWIDTH 6 0
BBX 6 15 0 0
BITMAP
04
0C
08
08
18
10
10
30
30
20
20
60
40
40
C0
ENDCHAR
STARTCHAR 0030
ENCODING 48
SWIDTH 495 0
DWIDTH 11 0
BBX 9 15 1 0
BITMAP
1C00
2300
6300
E380
E380
E380
E380
E380
E380
E380
E380
E380
6300
6300
3E00
ENDCHAR
STARTCHAR 0031
ENCODING 49
SWIDTH 495 0
DWIDTH 11 0
BBX 7 15 1 0
BITMAP
04
1C
FC
1C
1C
1C
1C
1C
1C
1C
1C
1C
1C
1C
3E
ENDCHAR
STARTCHAR 0032
ENCODING 50
SWIDTH 495 0
DWIDTH 11 0
BBX 9 15 1 0
BITMAP
3C00
7F00
FF00
8700
0700
0700
0700
0600
0C00
0800
1000
2080
7F80
7F00
FF00
ENDCHAR
STARTCHAR 0033
ENCODING 51
SWIDTH 495 0
DWIDTH 11 0
BBX 10 15 0 0
BITMAP
0F00
3F80
6780
0380
0380
0300
0700
1F80
07C0
03C0
01C0
01C0
4180
E100
7E00
ENDCHAR
STARTCHAR 0034
ENCODING 52
SWIDTH 495 0
DWIDTH 11 0
BBX 9 15 1 0
BITMAP
0300
0700
0700
0F00
1700
3700
2700
4700
8700
FF80
FF80
FF80
0700
0700
0700
ENDCHAR
STARTCHAR 0035
ENCODING 53
SWIDTH 495 0
DWIDTH 11 0
BBX 9 15 1 0
BITMAP
3F80
3F80
3F00
4000
4000
7C00
FF00
FF80
0780
0380
0180
0180
C180
E100
FE00
ENDCHAR
STARTCHAR 0036
ENCODING 54
SWIDTH 495 0
DWIDTH 11 0
BBX 9 15 1 0
BITMAP
0380
0C00
1800
3000
7000
7000
FF00
E380
E380
E380
E380
E380
6380
7300
3E00
ENDCHAR
STARTCHAR 0037
ENCODING 55
SWIDTH 495 0
DWIDTH 11 0
BBX 9 15 1 0
BITMAP
7F80
7F80
FF80
C180
0300
0300
0300
0200
0600
0600
0400
0C00
0C00
0800
1800
ENDCHAR
STARTCHAR 0038
ENCODING 56
SWIDTH 495 0
DWIDTH 11 0
BBX 9 15 1 0
BITMAP
3E00
6300
E380
E180
F380
FB00
7E00
3F00
3F80
6780
E380
E380
E380
E380
7E00
ENDCHAR
STARTCHAR 0039
ENCODING 57
SWIDTH 495 0
DWIDTH 11 0
BBX 9 15 1 0
BITMAP
3C00
6700
E300
E380
E380
E380
E380
E380
7F80
3B80
0700
0700
0E00
1C00
7000
ENDCHAR
STARTCHAR 003A
ENCODING 58
SWIDTH 315 0
DWIDTH 7 0
BBX 3 10 2 0
BITMAP
E0
E0
E0
00
00
00
00
E0
E0
E0
ENDCHAR
STARTCHAR 003B
ENCODING 59
SWIDTH 315 0
DWIDTH 7 0
BBX 4 14 2 -4
BITMAP
E0
E0
E0
00
00
00
00
E0
F0
F0
30
20
40
80
ENDCHAR
STARTCHAR 003C
ENCODING 60
SWIDTH 585 0
DWIDTH 13 0
BBX 12 10 0 3
BITMAP
0030
01E0
0700
3C00
F000
7800
0E00
03C0
0070
0010
ENDCHAR
STARTCHAR 003D
ENCODING 61
SWIDTH 585 0
DWIDTH 13 0
BBX 12 5 0 5
BITMAP
FFF0
FFF0
0000
0000
FFF0
ENDCHAR
STARTCHAR 003E
ENCODING 62
SWIDTH 585 0
DWIDTH 13 0
BBX 12 11 0 2
BITMAP
8000
E000
3C00
0F00
01E0
0070
00E0
0780
1C00
F000
C000
ENDCHAR
STARTCHAR 003F
ENCODING 63
SWIDTH 495 0
DWIDTH 11 0
BBX 9 15 1 0
BITMAP
3E00
4700
E780
E380
6380
0700
0600
0C00
0800
1000
0000
0000
1C00
3C00
1C00
ENDCHAR
STARTCHAR 0040
ENCODING 64
SWIDTH 945 0
DWIDTH 21 0
BBX 19 20 1 -5
BITMAP
01FC00
060300
180080
300080
200040
40EC40
419C40
C31C40
871840
873840
863840
8E7080
8EB080
CFB120
473E20
400040
200080
100100
0C0600
03F800
ENDCHAR
STARTCHAR 0041
ENCODING 65
SWIDTH 720 0
DWIDTH 16 0
BBX 14 15 1 0
BITMAP
0200
0300
0300
0780
0780
0BC0
0BC0
09C0
11E0
10E0
3FF0
2070
4078
4078
E07C
ENDCHAR
STARTCHAR 0042
ENCODING 66
SWIDTH 675 0
DWIDTH 15 0
BBX 14 15 0 0
BITMAP
FFC0
3CF0
3C78
3C38
3C38
3C78
3CF0
3FE0
3C78
3C3C
3C3C
3C3C
3C3C
3C78
7FE0
ENDCHAR
STARTCHAR 0043
ENCODING 67
SWIDTH 720 0
DWIDTH 16 0
BBX 14 15 1 0
BITMAP
07E4
1E1C
380C
7804
7004
F000
F000
F000
F000
F000
F000
7000
7804
3C08
0FF0
ENDCHAR
STARTCHAR 0044
ENCODING 68
SWIDTH 720 0
DWIDTH 16 0
BBX 15 15 0 0
BITMAP
FF80
3C70
3C38
3C3C
3C1C
3C1E
3C1E
3C1E
3C1E
3C1E
3C1E
3C1C
3C3C
3C70
7FC0
ENDCHAR
STARTCHAR 0045
ENCODING 69
SWIDTH 675 0
DWIDTH 15 0
BBX 14 15 0 0
BITMAP
FFF8
3C38
1C08
1C08
1C48
1C40
1CC0
1FC0
1CC0
1C40
1C44
1C04
1C0C
3C18
7FF8
ENDCHAR
STARTCHAR 0046
ENCODING 70
SWIDTH 630 0
DWIDTH 14 0
BBX 13 15 0 0
BITMAP
FFF8
3C38
1C08
1C08
1C08
1C40
1C40
1FC0
1CC0
1C40
1C40
1C00
1C00
1C00
7E00
ENDCHAR
STARTCHAR 0047
ENCODING 71
SWIDTH 765 0
DWIDTH 17 0
BBX 15 15 1 0
BITMAP
07E4
1C1C
380C
7804
7004
F000
F000
F000
F000
F03E
F01C
701C
381C
1C1C
0FF8
ENDCHAR
STARTCHAR 0048
ENCODING 72
SWIDTH 765 0
DWIDTH 17 0
BBX 17 15 0 0
BITMAP
FF7F80
3C1E00
1C1E00
1C1E00
1C1E00
1C1E00
1C1E00
1FFE00
1C1E00
1C1E00
1C1E00
1C1E00
1C1E00
3C1E00
7E3F00
ENDCHAR
STARTCHAR 0049
ENCODING 73
SWIDTH 405 0
DWIDTH 9 0
BBX 8 15 0 0
BITMAP
FF
3C
1C
1C
1C
1C
1C
1C
1C
1C
1C
1C
1C
3C
7E
ENDCHAR
STARTCHAR 004A
ENCODING 74
SWIDTH 495 0
DWIDTH 11 0
BBX 11 15 0 0
BITMAP
1FE0
0780
0780
0780
0780
0780
0780
0780
0780
0780
0780
E780
E780
6700
3E00
ENDCHAR
STARTCHAR 004B
ENCODING 75
SWIDTH 765 0
DWIDTH 17 0
BBX 17 15 0 0
BITMAP
FF1F80
3C0600
1C0C00
1C1000
1C2000
1CC000
1DC000
1FE000
1DE000
1CF000
1C7800
1C7C00
1C3C00
1C1E00
7E1F80
ENDCHAR
STARTCHAR 004C
ENCODING 76
SWIDTH 675 0
DWIDTH 15 0
BBX 14 15 0 0
BITMAP
FF00
3C00
3C00
3C00
3C00
3C00
3C00
3C00
3C00
3C00
3C04
3C04
3C0C
3C0C
7FFC
ENDCHAR
STARTCHAR 004D
ENCODING 77
SWIDTH 945 0
DWIDTH 21 0
BBX 21 15 0 0
BITMAP
FE03F8
3E03E0
2E03C0
2F05C0
2705C0
2789C0
2789C0
23D1C0
23D1C0
21D1C0
21E1C0
20E1C0
20C1C0
20C1E0
7043F0
ENDCHAR
STARTCHAR 004E
ENCODING 78
SWIDTH 720 0
DWIDTH 16 0
BBX 16 15 0 0
BITMAP
FC1F
3C04
3E04
2F04
2F84
27C4
23C4
21E4
20F4
20FC
207C
203C
201C
200C
7804
ENDCHAR
STARTCHAR 004F
ENCODING 79
SWIDTH 765 0
DWIDTH 17 0
BBX 15 15 1 0
BITMAP
07E0
1C38
381C
701C
F01E
F01E
F00E
F00E
F00E
F01E
F01E
701E
781C
3838
0FF0
ENDCHAR
STARTCHAR 0050
ENCODING 80
SWIDTH 630 0
DWIDTH 14 0
BBX 12 15 1 0
BITMAP
FF00
79E0
38E0
38F0
38F0
38F0
38E0
3BC0
3C00
3800
3800
3800
3800
3800
7C00
ENDCHAR
STARTCHAR 0051
ENCODING 81
SWIDTH 765 0
DWIDTH 17 0
BBX 15 19 1 -4
BITMAP
07E0
1C38
381C
701C
F01E
F01E
F00E
F00E
F00E
F00E
F01E
701E
781C
3838
0EF0
03C0
01C0
01E0
007E
ENDCHAR
STARTCHAR 0052
ENCODING 82
SWIDTH 720 0
DWIDTH 16 0
BBX 16 15 0 0
BITMAP
FFC0
3C78
3C38
3C3C
3C3C
3C3C
3C38
3DF0
3FE0
3CF0
3CF0
3C78
3C3C
3C1E
7E1F
ENDCHAR
STARTCHAR 0053
ENCODING 83
SWIDTH 540 0
DWIDTH 12 0
BBX 10 15 1 0
BITMAP
3E00
6180
6080
E040
F040
F800
7E00
3F80
1FC0
07C0
81C0
80C0
C0C0
E0C0
BF00
ENDCHAR
STARTCHAR 0054
ENCODING 84
SWIDTH 675 0
DWIDTH 15 0
BBX 13 15 1 0
BITMAP
FFF8
C718
8708
8708
0700
0700
0700
0700
0700
0700
0700
0700
0700
0700
0F80
ENDCHAR
STARTCHAR 0055
ENCODING 85
SWIDTH 720 0
DWIDTH 16 0
BBX 15 15 1 0
BITMAP
FE3E
7818
7808
7808
7808
7808
7808
7808
7808
7808
7808
3810
3810
3C30
1FC0
ENDCHAR
STARTCHAR 0056
ENCODING 86
SWIDTH 720 0
DWIDTH 16 0
BBX 16 15 0 0
BITMAP
FE1F
3804
3C04
3C08
1E08
1E10
0E10
0F20
0720
07A0
03C0
03C0
0380
0180
0100
ENDCHAR
STARTCHAR 0057
ENCODING 87
SWIDTH 990 0
DWIDTH 22 0
BBX 22 15 0 0
BITMAP
FEFE3C
783C08
3C3C10
3C1C10
1C1E10
1E1E20
1E2E20
0F2F20
0F4F40
0747C0
078780
078380
038380
030300
010100
ENDCHAR
STARTCHAR 0058
ENCODING 88
SWIDTH 720 0
DWIDTH 16 0
BBX 15 15 0 0
BITMAP
FF3E
3C08
1E18
1E10
0F20
07C0
0780
03C0
01E0
03E0
04F0
0878
107C
303C
787E
ENDCHAR
STARTCHAR 0059
ENCODING 89
SWIDTH 720 0
DWIDTH 16 0
BBX 16 15 0 0
BITMAP
FE1F
3C04
3C04
1E08
1E10
0F10
0720
07A0
03C0
03C0
03C0
03C0
03C0
03C0
07E0
ENDCHAR
STARTCHAR 005A
ENCODING 90
SWIDTH 675 0
DWIDTH 15 0
BBX 13 15 1 0
BITMAP
7FF0
60F0
41E0
81E0
03C0
0780
0780
0F00
1E00
1E00
3C08
3C08
7808
F038
FFF8
ENDCHAR
STARTCHAR 005B
ENCODING 91
SWIDTH 315 0
DWIDTH 7 0
BBX 5 19 2 -4
BITMAP
F8
E0
E0
E0
E0
E0
E0
E0
E0
E0
E0
E0
E0
E0
E0
E0
E0
E0
F0
ENDCHAR
STARTCHAR 005C
ENCODING 92
SWIDTH 270 0
DWIDTH 6 0
BBX 6 15 0 0
BITMAP
C0
C0
40
40
60
20
20
30
10
10
18
08
08
0C
04
ENDCHAR
STARTCHAR 005D
ENCODING 93
SWIDTH 315 0
DWIDTH 7 0
BBX 4 19 1 -4
BITMAP
F0
30
30
30
30
30
30
30
30
30
30
30
30
30
30
30
30
30
70
ENDCHAR
STARTCHAR 005E
ENCODING 94
SWIDTH 585 0
DWIDTH 13 0
BBX 9 8 2 7
BITMAP
0800
1C00
1400
3600
6200
6300
C180
8180
ENDCHAR
STARTCHAR 005F
ENCODING 95
SWIDTH 495 0
DWIDTH 11 0
BBX 11 2 0 -5
BITMAP
FFE0
FFE0
ENDCHAR
STARTCHAR 0060
ENCODING 96
SWIDTH 315 0
DWIDTH 7 0
BBX 4 4 1 11
BITMAP
E0
60
30
10
ENDCHAR
STARTCHAR 0061
ENCODING 97
SWIDTH 495 0
DWIDTH 11 0
BBX 10 10 1 0
BITMAP
7F00
E700
E700
6700
1F00
3700
6700
E700
FF40
F380
ENDCHAR
STARTCHAR 0062
ENCODING 98
SWIDTH 540 0
DWIDTH 12 0
BBX 11 15 0 0
BITMAP
F800
3800
3800
3800
3800
3FC0
38E0
38E0
38E0
38E0
38E0
38E0
38E0
38C0
2F80
ENDCHAR
STARTCHAR 0063
ENCODING 99
SWIDTH 450 0
DWIDTH 10 0
BBX 8 10 1 0
BITMAP
3E
67
E7
E0
E0
E0
E0
F0
7B
3E
ENDCHAR
STARTCHAR 0064
ENCODING 100
SWIDTH 540 0
DWIDTH 12 0
BBX 11 15 1 0
BITMAP
07C0
01C0
01C0
01C0
01C0
3DC0
63C0
E1C0
E1C0
E1C0
E1C0
E1C0
E1C0
73C0
3DE0
ENDCHAR
STARTCHAR 0065
ENCODING 101
SWIDTH 450 0
DWIDTH 10 0
BBX 8 10 1 0
BITMAP
3E
67
E3
E3
FF
E0
E0
F1
7B
3E
ENDCHAR
STARTCHAR 0066
ENCODING 102
SWIDTH 315 0
DWIDTH 7 0
BBX 8 15 1 0
BITMAP
1E
37
73
70
70
FC
70
70
70
70
70
70
70
70
78
ENDCHAR
STARTCHAR 0067
ENCODING 103
SWIDTH 495 0
DWIDTH 11 0
BBX 10 15 1 -5
BITMAP
7FC0
E300
E380
E380
E380
6300
3C00
4000
C000
FF80
7FC0
7FC0
C0C0
C180
3E00
ENDCHAR
STARTCHAR 0068
ENCODING 104
SWIDTH 540 0
DWIDTH 12 0
BBX 10 15 1 0
BITMAP
F000
7000
7000
7000
7000
7780
7B80
71C0
71C0
71C0
71C0
71C0
71C0
71C0
F3C0
ENDCHAR
STARTCHAR 0069
ENCODING 105
SWIDTH 270 0
DWIDTH 6 0
BBX 4 15 1 0
BITMAP
60
70
70
00
00
F0
70
70
70
70
70
70
70
70
F0
ENDCHAR
STARTCHAR 006A
ENCODING 106
SWIDTH 315 0
DWIDTH 7 0
BBX 7 20 -1 -5
BITMAP
0C
1E
1C
00
00
1C
1C
1C
1C
1C
1C
1C
1C
1C
1C
1C
1C
CC
CC
78
ENDCHAR
STARTCHAR 006B
ENCODING 107
SWIDTH 540 0
DWIDTH 12 0
BBX 11 15 1 0
BITMAP
F000
7000
7000
7000
7000
71C0
7100
7200
7600
7E00
7700
7780
7380
71C0
F1E0
ENDCHAR
STARTCHAR 006C
ENCODING 108
SWIDTH 270 0
DWIDTH 6 0
BBX 5 15 0 0
BITMAP
F8
38
38
38
38
38
38
38
38
38
38
38
38
38
78
ENDCHAR
STARTCHAR 006D
ENCODING 109
SWIDTH 855 0
DWIDTH 19 0
BBX 16 10 1 0
BITMAP
F79E
79E7
71C7
71C7
71C7
71C7
71C7
71C7
71C7
FBCF
ENDCHAR
STARTCHAR 006E
ENCODING 110
SWIDTH 540 0
DWIDTH 12 0
BBX 10 10 1 0
BITMAP
F780
7B80
71C0
71C0
71C0
71C0
71C0
71C0
71C0
F3C0
ENDCHAR
STARTCHAR 006F
ENCODING 111
SWIDTH 495 0
DWIDTH 11 0
BBX 9 10 1 0
BITMAP
3E00
6300
E380
E380
E380
E380
E380
E380
6300
3E00
ENDCHAR
STARTCHAR 0070
ENCODING 112
SWIDTH 540 0
DWIDTH 12 0
BBX 11 15 0 -5
BITMAP
7FC0
38E0
38E0
38E0
38E0
38E0
38E0
38E0
38E0
3FC0
3800
3800
3800
3800
FC00
ENDCHAR
STARTCHAR 0071
ENCODING 113
SWIDTH 540 0
DWIDTH 12 0
BBX 11 15 1 -5
BITMAP
3EC0
63C0
E1C0
E1C0
E1C0
E1C0
E1C0
E1C0
73C0
7DC0
01C0
01C0
01C0
01C0
07E0
ENDCHAR
STARTCHAR 0072
ENCODING 114
SWIDTH 450 0
DWIDTH 10 0
BBX 8 10 1 0
BITMAP
F7
7F
78
70
70
70
70
70
70
F8
ENDCHAR
STARTCHAR 0073
ENCODING 115
SWIDTH 405 0
DWIDTH 9 0
BBX 7 10 1 0
BITMAP
7C
C4
E4
F0
7C
3C
1E
8E
84
FC
ENDCHAR
STARTCHAR 0074
ENCODING 116
SWIDTH 315 0
DWIDTH 7 0
BBX 7 14 0 0
BITMAP
08
08
18
38
FE
38
38
38
38
38
38
38
3A
1C
ENDCHAR
STARTCHAR 0075
ENCODING 117
SWIDTH 540 0
DWIDTH 12 0
BBX 10 10 1 0
BITMAP
F3C0
73C0
73C0
73C0
73C0
73C0
73C0
73C0
73C0
3FC0
ENDCHAR
STARTCHAR 0076
ENCODING 118
SWIDTH 495 0
DWIDTH 11 0
BBX 9 10 1 0
BITMAP
F180
F080
7100
7900
3A00
3A00
1C00
1C00
0C00
0800
ENDCHAR
STARTCHAR 0077
ENCODING 119
SWIDTH 720 0
DWIDTH 16 0
BBX 14 10 1 0
BITMAP
F3CC
F1C4
73C8
73C8
3CF0
3CF0
3CF0
1860
1860
1860
ENDCHAR
STARTCHAR 0078
ENCODING 120
SWIDTH 495 0
DWIDTH 11 0
BBX 9 10 1 0
BITMAP
FB80
7200
3A00
3C00
1C00
1E00
1E00
2F00
2700
E780
ENDCHAR
STARTCHAR 0079
ENCODING 121
SWIDTH 495 0
DWIDTH 11 0
BBX 9 15 1 -5
BITMAP
F180
F080
7100
7900
3A00
3A00
1E00
1C00
0C00
0800
0800
0800
D000
D000
E000
ENDCHAR
STARTCHAR 007A
ENCODING 122
SWIDTH 450 0
DWIDTH 10 0
BBX 9 10 0 0
BITMAP
7F80
4780
0700
0E00
1E00
1C00
3C00
3880
7080
FF80
ENDCHAR
STARTCHAR 007B
ENCODING 123
SWIDTH 405 0
DWIDTH 9 0
BBX 6 19 2 -4
BITMAP
1C
30
30
70
70
30
30
30
60
80
60
30
30
30
30
70
70
30
18
ENDCHAR
STARTCHAR 007C
ENCODING 124
SWIDTH 225 0
DWIDTH 5 0
BBX 1 20 2 -5
BITMAP
80
80
80
80
80
80
80
80
80
80
80
80
80
80
80
80
80
80
80
80
ENDCHAR
STARTCHAR 007D
ENCODING 125
SWIDTH 405 0
DWIDTH 9 0
BBX 6 19 1 -4
BITMAP
E0
30
30
30
30
30
30
30
10
0C
18
30
30
30
30
30
30
30
E0
ENDCHAR
STARTCHAR 007E
ENCODING 126
SWIDTH 540 0
DWIDTH 12 0
BBX 12 4 0 4
BITMAP
3010
7E10
87E0
81C0
ENDCHAR
STARTCHAR 00A0
ENCODING 160
SWIDTH 270 0
DWIDTH 6 0
BBX 0 0 0 0
BITMAP
ENDCHAR
STARTCHAR 00A1
ENCODING 161
SWIDTH 315 0
DWIDTH 7 0
BBX 3 16 2 -5
BITMAP
40
E0
E0
E0
00
00
40
40
40
60
60
E0
E0
E0
E0
60
ENDCHAR
STARTCHAR 00A2
ENCODING 162
SWIDTH 495 0
DWIDTH 11 0
BBX 9 18 1 -3
BITMAP
0100
0100
0200
0200
3F00
7700
6780
6800
E800
F800
7000
7080
7D00
3E00
2000
4000
4000
8000
ENDCHAR
STARTCHAR 00A3
ENCODING 163
SWIDTH 495 0
DWIDTH 11 0
BBX 11 15 0 0
BITMAP
0F00
1980
19C0
3980
3800
3C00
3C00
FF00
1C00
1C00
0C00
0C20
7FE0
9FC0
7780
ENDCHAR
STARTCHAR 00A4
ENCODING 164
SWIDTH 495 0
DWIDTH 11 0
BBX 11 10 0 3
BITMAP
DF60
71C0
60C0
4040
4040
4040
60C0
3180
7FC0
4040
ENDCHAR
STARTCHAR 00A5
ENCODING 165
SWIDTH 495 0
DWIDTH 11 0
BBX 11 15 0 0
BITMAP
F8E0
7040
7840
3880
3880
1C80
1D00
1D00
FFE0
0E00
0E00
FFE0
0E00
0E00
1F00
ENDCHAR
STARTCHAR 00A6
ENCODING 166
SWIDTH 225 0
DWIDTH 5 0
BBX 1 20 2 -5
BITMAP
80
80
80
80
80
80
80
80
00
00
00
00
80
80
80
80
80
80
80
80
ENDCHAR
STARTCHAR 00A7
ENCODING 167
SWIDTH 495 0
DWIDTH 11 0
BBX 9 20 1 -5
BITMAP
3E00
6300
6300
6300
7000
3C00
3E00
4F00
C780
C380
E180
F180
7900
3E00
0F00
0700
6300
6300
6300
1C00
ENDCHAR
STARTCHAR 00A8
ENCODING 168
SWIDTH 315 0
DWIDTH 7 0
BBX 7 3 0 12
BITMAP
66
EE
66
ENDCHAR
STARTCHAR 00A9
ENCODING 169
SWIDTH 765 0
DWIDTH 17 0
BBX 15 15 1 0
BITMAP
07C0
1830
2008
47E4
8C24
9822
9802
9802
9802
9802
8C24
47C4
6008
3010
0FE0
ENDCHAR
STARTCHAR 00AA
ENCODING 170
SWIDTH 315 0
DWIDTH 7 0
BBX 6 6 1 9
BITMAP
70
D8
98
78
98
FC
ENDCHAR
STARTCHAR 00AB
ENCODING 171
SWIDTH 495 0
DWIDTH 11 0
BBX 9 10 1 0
BITMAP
1880
1180
2100
6300
C600
E600
6300
3100
1080
0880
ENDCHAR
STARTCHAR 00AC
ENCODING 172
SWIDTH 585 0
DWIDTH 13 0
BBX 12 5 0 5
BITMAP
FFF0
FFF0
0010
0010
0010
ENDCHAR
STARTCHAR 00AD
ENCODING 173
SWIDTH 315 0
DWIDTH 7 0
BBX 6 2 1 4
BITMAP
FC
FC
ENDCHAR
STARTCHAR 00AE
ENCODING 174
SWIDTH 765 0
DWIDTH 17 0
BBX 15 15 1 0
BITMAP
07C0
1830
2008
5FC4
8CE4
8C62
8CE2
8FC2
8D82
8CC2
8CE4
4E64
6008
3010
0FE0
ENDCHAR
STARTCHAR 00AF
ENCODING 175
SWIDTH 495 0
DWIDTH 11 0
BBX 11 1 0 16
BITMAP
FFE0
ENDCHAR
STARTCHAR 00B0
ENCODING 176
SWIDTH 405 0
DWIDTH 9 0
BBX 7 7 1 8
BITMAP
78
EC
86
82
82
C6
7C
ENDCHAR
STARTCHAR 00B1
ENCODING 177
SWIDTH 540 0
DWIDTH 12 0
BBX 12 12 0 1
BITMAP
0600
0600
0600
0600
0600
FFF0
0600
0600
0600
0600
FFF0
FFF0
ENDCHAR
STARTCHAR 00B2
ENCODING 178
SWIDTH 315 0
DWIDTH 7 0
BBX 6 8 0 7
BITMAP
38
5C
0C
18
10
20
7C
FC
ENDCHAR
STARTCHAR 00B3
ENCODING 179
SWIDTH 315 0
DWIDTH 7 0
BBX 6 8 0 7
BITMAP
38
5C
08
18
3C
0C
CC
F0
ENDCHAR
STARTCHAR 00B4
ENCODING 180
SWIDTH 315 0
DWIDTH 7 0
BBX 4 4 2 11
BITMAP
70
60
40
80
ENDCHAR
STARTCHAR 00B5
ENCODING 181
SWIDTH 585 0
DWIDTH 13 0
BBX 11 15 1 -5
BITMAP
7380
7380
7380
7380
7380
7380
7380
7380
73E0
7DE0
C000
C000
C000
C000
C000
ENDCHAR
STARTCHAR 00B6
ENCODING 182
SWIDTH 540 0
DWIDTH 12 0
BBX 12 20 0 -5
BITMAP
0FF0
3E40
7E40
FE40
FE40
FE40
FE40
FE40
7E40
3E40
0240
0240
0240
0240
0240
0240
0240
0240
0240
0240
ENDCHAR
STARTCHAR 00B7
ENCODING 183
SWIDTH 270 0
DWIDTH 6 0
BBX 4 3 1 6
BITMAP
E0
F0
E0
ENDCHAR
STARTCHAR 00B8
ENCODING 184
SWIDTH 315 0
DWIDTH 7 0
BBX 3 4 2 -4
BITMAP
40
60
60
E0
ENDCHAR
STARTCHAR 00B9
ENCODING 185
SWIDTH 315 0
DWIDTH 7 0
BBX 5 8 1 7
BITMAP
20
60
60
60
60
60
60
F8
ENDCHAR
STARTCHAR 00BA
ENCODING 186
SWIDTH 315 0
DWIDTH 7 0
BBX 6 6 1 9
BITMAP
70
C8
CC
CC
CC
F8
ENDCHAR
STARTCHAR 00BB
ENCODING 187
SWIDTH 495 0
DWIDTH 11 0
BBX 9 10 1 0
BITMAP
8400
C600
6200
6300
3180
3180
6300
4200
C400
8400
ENDCHAR
STARTCHAR 00BC
ENCODING 188
SWIDTH 765 0
DWIDTH 17 0
BBX 15 16 1 -1
BITMAP
2008
6018
6030
6020
6060
60C0
6080
F980
0304
020C
061C
0C2C
084C
187E
300C
200C
ENDCHAR
STARTCHAR 00BD
ENCODING 189
SWIDTH 765 0
DWIDTH 17 0
BBX 15 16 1 -1
BITMAP
2018
6010
6030
6060
6040
60C0
6180
F900
033C
064E
0406
0C0C
1808
1012
303E
607E
ENDCHAR
STARTCHAR 00BE
ENCODING 190
SWIDTH 765 0
DWIDTH 17 0
BBX 16 16 0 -1
BITMAP
3804
DC0C
0818
1810
3C30
0C60
CC40
F0C0
0182
0106
030E
0616
0426
0C3F
1806
1006
ENDCHAR
STARTCHAR 00BF
ENCODING 191
SWIDTH 495 0
DWIDTH 11 0
BBX 9 15 1 -4
BITMAP
1E00
1E00
0C00
0000
0000
0800
0800
1800
3000
7000
F300
F380
F380
7100
1E00
ENDCHAR
STARTCHAR 00C0
ENCODING 192
SWIDTH 720 0
DWIDTH 16 0
BBX 14 20 1 0
BITMAP
0E00
0600
0300
0100
0000
0200
0300
0300
0780
0780
0BC0
0BC0
09C0
11E0
10E0
3FF0
2070
4078
4078
E07C
ENDCHAR
STARTCHAR 00C1
ENCODING 193
SWIDTH 720 0
DWIDTH 16 0
BBX 14 20 1 0
BITMAP
01C0
0180
0300
0200
0000
0200
0300
0300
0780
0780
0BC0
0BC0
09C0
11E0
10E0
3FF0
2070
4078
4078
E07C
ENDCHAR
STARTCHAR 00C2
ENCODING 194
SWIDTH 720 0
DWIDTH 16 0
BBX 14 20 1 0
BITMAP
0300
0780
0780
0840
0000
0200
0300
0300
0780
0780
0BC0
0BC0
09C0
11E0
10E0
3FF0
2070
4078
4078
E07C
ENDCHAR
STARTCHAR 00C3
ENCODING 195
SWIDTH 720 0
DWIDTH 16 0
BBX 14 19 1 0
BITMAP
0E40
0FC0
13C0
0000
0200
0300
0300
0780
0780
0BC0
0BC0
09C0
11E0
10E0
3FF0
2070
4078
4078
E07C
ENDCHAR
STARTCHAR 00C4
ENCODING 196
SWIDTH 720 0
DWIDTH 16 0
BBX 14 19 1 0
BITMAP
0CC0
0CC0
0CC0
0000
0200
0300
0300
0780
0780
0BC0
0BC0
09C0
11E0
10E0
3FF0
2070
4078
4078
E07C
ENDCHAR
STARTCHAR 00C5
ENCODING 197
SWIDTH 720 0
DWIDTH 16 0
BBX 14 19 1 0
BITMAP
0300
0480
0480
0480
0300
0300
0300
0780
0780
0BC0
0BC0
09C0
11E0
10E0
3FF0
2070
4078
4078
E07C
ENDCHAR
STARTCHAR 00C6
ENCODING 198
SWIDTH 990 0
DWIDTH 22 0
BBX 21 15 0 0
BITMAP
01FFF0
007C30
00BC10
00BC10
013C80
013C80
023C80
043F80
07FC80
083C80
103C80
103C08
203C08
603C18
F07FF8
ENDCHAR
STARTCHAR 00C7
ENCODING 199
SWIDTH 720 0
DWIDTH 16 0
BBX 14 19 1 -4
BITMAP
07E4
1E1C
380C
7804
7004
F000
F000
F000
F000
F000
F000
7000
7804
3C08
0FF0
0100
0180
0180
0380
ENDCHAR
STARTCHAR 00C8
ENCODING 200
SWIDTH 675 0
DWIDTH 15 0
BBX 14 20 0 0
BITMAP
0E00
0700
0300
0100
0000
FFF8
3C38
1C08
1C08
1C48
1C40
1CC0
1FC0
1CC0
1C40
1C44
1C04
1C0C
3C18
7FF8
ENDCHAR
STARTCHAR 00C9
ENCODING 201
SWIDTH 675 0
DWIDTH 15 0
BBX 14 20 0 0
BITMAP
01C0
01C0
0180
0300
0000
FFF8
3C38
1C08
1C08
1C48
1C40
1CC0
1FC0
1CC0
1C40
1C44
1C04
1C0C
3C18
7FF8
ENDCHAR
STARTCHAR 00CA
ENCODING 202
SWIDTH 675 0
DWIDTH 15 0
BBX 14 20 0 0
BITMAP
0380
0380
06C0
0C40
0000
FFF8
3C38
1C08
1C08
1C48
1C40
1CC0
1FC0
1CC0
1C40
1C44
1C04
1C0C
3C18
7FF8
ENDCHAR
STARTCHAR 00CB
ENCODING 203
SWIDTH 675 0
DWIDTH 15 0
BBX 14 19 0 0
BITMAP
0EE0
0EE0
0C40
0000
FFF8
3C38
1C08
1C08
1C48
1C40
1CC0
1FC0
1CC0
1C40
1C44
1C04
1C0C
3C18
7FF8
ENDCHAR
STARTCHAR 00CC
ENCODING 204
SWIDTH 405 0
DWIDTH 9 0
BBX 8 20 0 0
BITMAP
70
38
18
08
00
FF
3C
1C
1C
1C
1C
1C
1C
1C
1C
1C
1C
1C
3C
7E
ENDCHAR
STARTCHAR 00CD
ENCODING 205
SWIDTH 405 0
DWIDTH 9 0
BBX 8 20 0 0
BITMAP
0E
0C
08
10
00
FF
3C
1C
1C
1C
1C
1C
1C
1C
1C
1C
1C
1C
3C
7E
ENDCHAR
STARTCHAR 00CE
ENCODING 206
SWIDTH 405 0
DWIDTH 9 0
BBX 8 20 0 0
BITMAP
1C
3C
36
62
00
FF
3C
1C
1C
1C
1C
1C
1C
1C
1C
1C
1C
1C
3C
7E
ENDCHAR
STARTCHAR 00CF
ENCODING 207
SWIDTH 405 0
DWIDTH 9 0
BBX 8 19 0 0
BITMAP
66
77
66
00
FF
3C
1C
1C
1C
1C
1C
1C
1C
1C
1C
1C
1C
3C
7E
ENDCHAR
STARTCHAR 00D0
ENCODING 208
SWIDTH 720 0
DWIDTH 16 0
BBX 15 15 0 0
BITMAP
FF80
3C70
3C38
3C1C
3C1E
3C1E
3C1E
FF9E
3C1E
3C1E
3C1E
3C1C
3C3C
3C78
7FE0
ENDCHAR
STARTCHAR 00D1
ENCODING 209
SWIDTH 720 0
DWIDTH 16 0
BBX 16 19 0 0
BITMAP
07A0
07E0
09E0
0000
FC1F
3C04
3E04
2F04
2F84
27C4
23C4
21E4
20F4
20FC
207C
203C
201C
200C
7804
ENDCHAR
STARTCHAR 00D2
ENCODING 210
SWIDTH 765 0
DWIDTH 17 0
BBX 15 20 1 0
BITMAP
0700
0300
0300
0180
0000
07E0
1C38
381C
701C
F01E
F01E
F00E
F00E
F00E
F01E
F01E
701E
781C
3838
0FF0
ENDCHAR
STARTCHAR 00D3
ENCODING 211
SWIDTH 765 0
DWIDTH 17 0
BBX 15 20 1 0
BITMAP
00E0
01C0
0180
0100
0000
07E0
1C38
381C
701C
F01E
F01E
F00E
F00E
F00E
F01E
F01E
701E
781C
3838
0FF0
ENDCHAR
STARTCHAR 00D4
ENCODING 212
SWIDTH 765 0
DWIDTH 17 0
BBX 15 20 1 0
BITMAP
0380
03C0
06C0
0460
0000
07E0
1C38
381C
701C
F01E
F01E
F00E
F00E
F00E
F01E
F01E
701E
781C
3838
0FF0
ENDCHAR
STARTCHAR 00D5
ENCODING 213
SWIDTH 765 0
DWIDTH 17 0
BBX 15 19 1 0
BITMAP
0720
0FE0
09C0
0000
07E0
1C38
381C
701C
F01E
F01E
F00E
F00E
F00E
F01E
F01E
701E
781C
3838
0FF0
ENDCHAR
STARTCHAR 00D6
ENCODING 214
SWIDTH 765 0
DWIDTH 17 0
BBX 15 19 1 0
BITMAP
0660
0EE0
0660
0000
07E0
1C38
381C
701C
F01E
F01E
F00E
F00E
F00E
F01E
F01E
701E
781C
3838
0FF0
ENDCHAR
STARTCHAR 00D7
ENCODING 215
SWIDTH 585 0
DWIDTH 13 0
BBX 9 9 2 3
BITMAP
8180
C380
6700
3E00
1C00
1C00
3600
6300
C180
ENDCHAR
STARTCHAR 00D8
ENCODING 216
SWIDTH 765 0
DWIDTH 17 0
BBX 15 16 1 -1
BITMAP
07E6
1C3C
381C
701C
703E
F05E
F08E
F10E
F30E
F21E
F41E
781E
781C
3838
4EE0
0100
ENDCHAR
STARTCHAR 00D9
ENCODING 217
SWIDTH 720 0
DWIDTH 16 0
BBX 15 20 1 0
BITMAP
0E00
0700
0300
0100
0000
FE3E
7818
7808
7808
7808
7808
7808
7808
7808
7808
7808
3810
3810
3C30
1FC0
ENDCHAR
STARTCHAR 00DA
ENCODING 218
SWIDTH 720 0
DWIDTH 16 0
BBX 15 20 1 0
BITMAP
01C0
0380
0300
0200
0000
FE3E
7818
7808
7808
7808
7808
7808
7808
7808
7808
7808
3810
3810
3C30
1FC0
ENDCHAR
STARTCHAR 00DB
ENCODING 219
SWIDTH 720 0
DWIDTH 16 0
BBX 15 20 1 0
BITMAP
0380
0780
06C0
0C40
0000
FE3E
7818
7808
7808
7808
7808
7808
7808
7808
7808
7808
3810
3810
3C30
1FC0
ENDCHAR
STARTCHAR 00DC
ENCODING 220
SWIDTH 720 0
DWIDTH 16 0
BBX 15 19 1 0
BITMAP
0CC0
0CC0
0CC0
0000
FE3E
7818
7808
7808
7808
7808
7808
7808
7808
7808
7808
3810
3810
3C30
1FC0
ENDCHAR
STARTCHAR 00DD
ENCODING 221
SWIDTH 720 0
DWIDTH 16 0
BBX 16 20 0 0
BITMAP
00F0
00E0
00C0
0180
0000
FE1F
3C04
3C04
1E08
1E10
0F10
0720
07A0
03C0
03C0
03C0
03C0
03C0
03C0
07E0
ENDCHAR
STARTCHAR 00DE
ENCODING 222
SWIDTH 630 0
DWIDTH 14 0
BBX 13 15 0 0
BITMAP
FF00
3C00
3C00
3C00
3FE0
3C70
3C78
3C78
3C78
3C70
3CF0
3F80
3C00
3C00
7E00
ENDCHAR
STARTCHAR 00DF
ENCODING 223
SWIDTH 540 0
DWIDTH 12 0
BBX 10 15 1 0
BITMAP
1F00
7380
71C0
71C0
7180
7300
7380
71C0
71C0
71C0
71C0
71C0
75C0
76C0
F780
ENDCHAR
STARTCHAR 00E0
ENCODING 224
SWIDTH 495 0
DWIDTH 11 0
BBX 10 15 1 0
BITMAP
3800
1800
0800
0400
0000
7F00
E700
E700
6700
1F00
3700
6700
E700
FF40
F380
ENDCHAR
STARTCHAR 00E1
ENCODING 225
SWIDTH 495 0
DWIDTH 11 0
BBX 10 15 1 0
BITMAP
0E00
0C00
0800
1000
0000
7F00
E700
E700
6700
1F00
3700
6700
E700
FF40
F380
ENDCHAR
STARTCHAR 00E2
ENCODING 226
SWIDTH 495 0
DWIDTH 11 0
BBX 10 15 1 0
BITMAP
1C00
3E00
2200
4100
0000
7F00
E700
E700
6700
1F00
3700
6700
E700
FF40
F380
ENDCHAR
STARTCHAR 00E3
ENCODING 227
SWIDTH 495 0
DWIDTH 11 0
BBX 10 15 1 0
BITMAP
3900
7F00
4E00
0000
0000
7F00
E700
E700
6700
1F00
3700
6700
E700
FF40
F380
ENDCHAR
STARTCHAR 00E4
ENCODING 228
SWIDTH 495 0
DWIDTH 11 0
BBX 10 15 1 0
BITMAP
2300
7700
7700
0000
0000
7F00
E700
E700
6700
1F00
3700
6700
E700
FF40
F380
ENDCHAR
STARTCHAR 00E5
ENCODING 229
SWIDTH 495 0
DWIDTH 11 0
BBX 10 16 1 0
BITMAP
0800
1400
2200
2200
1C00
0000
7F00
E700
E700
6700
1F00
3700
6700
E700
FF40
F380
ENDCHAR
STARTCHAR 00E6
ENCODING 230
SWIDTH 720 0
DWIDTH 16 0
BBX 14 10 1 0
BITMAP
7EF8
E38C
E38C
638C
0FFC
3380
6380
E380
F7EC
F9F8
ENDCHAR
STARTCHAR 00E7
ENCODING 231
SWIDTH 450 0
DWIDTH 10 0
BBX 8 14 1 -4
BITMAP
3E
67
E7
E0
E0
E0
E0
F0
7B
3E
08
1C
0C
18
ENDCHAR
STARTCHAR 00E8
ENCODING 232
SWIDTH 450 0
DWIDTH 10 0
BBX 8 15 1 0
BITMAP
38
18
08
04
00
3E
67
E3
E3
FF
E0
E0
F1
7B
3E
ENDCHAR
STARTCHAR 00E9
ENCODING 233
SWIDTH 450 0
DWIDTH 10 0
BBX 8 15 1 0
BITMAP
0E
1C
18
10
00
3E
67
E3
E3
FF
E0
E0
F1
7B
3E
ENDCHAR
STARTCHAR 00EA
ENCODING 234
SWIDTH 450 0
DWIDTH 10 0
BBX 8 15 1 0
BITMAP
3C
3C
66
02
00
3E
67
E3
E3
FF
E0
E0
F1
7B
3E
ENDCHAR
STARTCHAR 00EB
ENCODING 235
SWIDTH 450 0
DWIDTH 10 0
BBX 8 15 1 0
BITMAP
66
77
66
00
00
3E
67
E3
E3
FF
E0
E0
F1
7B
3E
ENDCHAR
STARTCHAR 00EC
ENCODING 236
SWIDTH 270 0
DWIDTH 6 0
BBX 5 15 0 0
BITMAP
E0
70
30
10
00
78
38
38
38
38
38
38
38
38
78
ENDCHAR
STARTCHAR 00ED
ENCODING 237
SWIDTH 270 0
DWIDTH 6 0
BBX 5 15 1 0
BITMAP
38
30
60
40
00
F0
70
70
70
70
70
70
70
70
F0
ENDCHAR
STARTCHAR 00EE
ENCODING 238
SWIDTH 270 0
DWIDTH 6 0
BBX 6 15 0 0
BITMAP
78
78
CC
80
00
78
38
38
38
38
38
38
38
38
78
ENDCHAR
STARTCHAR 00EF
ENCODING 239
SWIDTH 270 0
DWIDTH 6 0
BBX 7 15 0 0
BITMAP
CC
EE
CC
00
00
78
38
38
38
38
38
38
38
38
78
ENDCHAR
STARTCHAR 00F0
ENCODING 240
SWIDTH 495 0
DWIDTH 11 0
BBX 9 15 1 0
BITMAP
2300
1C00
1C00
6600
0700
3F00
6380
E380
E380
E380
E380
E380
E380
6300
3E00
ENDCHAR
STARTCHAR 00F1
ENCODING 241
SWIDTH 540 0
DWIDTH 12 0
BBX 10 15 1 0
BITMAP
1880
3F00
4F00
0000
0000
F780
7B80
71C0
71C0
71C0
71C0
71C0
71C0
71C0
F3C0
ENDCHAR
STARTCHAR 00F2
ENCODING 242
SWIDTH 495 0
DWIDTH 11 0
BBX 9 15 1 0
BITMAP
3800
1800
0800
0400
0000
3E00
6300
E380
E380
E380
E380
E380
E380
6300
3E00
ENDCHAR
STARTCHAR 00F3
ENCODING 243
SWIDTH 495 0
DWIDTH 11 0
BBX 9 15 1 0
BITMAP
0E00
0C00
0800
1000
0000
3E00
6300
E380
E380
E380
E380
E380
E380
6300
3E00
ENDCHAR
STARTCHAR 00F4
ENCODING 244
SWIDTH 495 0
DWIDTH 11 0
BBX 9 15 1 0
BITMAP
1C00
3E00
2200
4100
0000
3E00
6300
E380
E380
E380
E380
E380
E380
6300
3E00
ENDCHAR
STARTCHAR 00F5
ENCODING 245
SWIDTH 495 0
DWIDTH 11 0
BBX 9 15 1 0
BITMAP
3900
7F00
4E00
0000
0000
3E00
6300
E380
E380
E380
E380
E380
E380
6300
3E00
ENDCHAR
STARTCHAR 00F6
ENCODING 246
SWIDTH 495 0
DWIDTH 11 0
BBX 9 15 1 0
BITMAP
2300
7700
7700
0000
0000
3E00
6300
E380
E380
E380
E380
E380
E380
6300
3E00
ENDCHAR
STARTCHAR 00F7
ENCODING 247
SWIDTH 540 0
DWIDTH 12 0
BBX 12 9 0 3
BITMAP
0600
0600
0000
0000
FFF0
0000
0000
0600
0600
ENDCHAR
STARTCHAR 00F8
ENCODING 248
SWIDTH 495 0
DWIDTH 11 0
BBX 9 10 1 1
BITMAP
3E80
6300
E380
E780
EB80
F380
F380
E380
6300
BE00
ENDCHAR
STARTCHAR 00F9
ENCODING 249
SWIDTH 540 0
DWIDTH 12 0
BBX 10 15 1 0
BITMAP
3800
1C00
0C00
0400
0000
F3C0
73C0
73C0
73C0
73C0
73C0
73C0
73C0
73C0
3FC0
ENDCHAR
STARTCHAR 00FA
ENCODING 250
SWIDTH 540 0
DWIDTH 12 0
BBX 10 15 1 0
BITMAP
0700
0600
0C00
0800
0000
F3C0
73C0
73C0
73C0
73C0
73C0
73C0
73C0
73C0
3FC0
ENDCHAR
STARTCHAR 00FB
ENCODING 251
SWIDTH 540 0
DWIDTH 12 0
BBX 10 15 1 0
BITMAP
1E00
1E00
3300
2080
0000
F3C0
73C0
73C0
73C0
73C0
73C0
73C0
73C0
73C0
3FC0
ENDCHAR
STARTCHAR 00FC
ENCODING 252
SWIDTH 540 0
DWIDTH 12 0
BBX 10 15 1 0
BITMAP
3300
3B80
3300
0000
0000
F3C0
73C0
73C0
73C0
73C0
73C0
73C0
73C0
73C0
3FC0
ENDCHAR
STARTCHAR 00FD
ENCODING 253
SWIDTH 495 0
DWIDTH 11 0
BBX 9 20 1 -5
BITMAP
0700
0600
0C00
0800
0000
F180
F080
7100
7900
3A00
3A00
1E00
1C00
0C00
0800
0800
0800
D000
D000
E000
ENDCHAR
STARTCHAR 00FE
ENCODING 254
SWIDTH 540 0
DWIDTH 12 0
BBX 11 20 0 -5
BITMAP
7800
3800
3800
3800
3800
3FC0
38E0
38E0
38E0
38E0
38E0
38E0
38E0
38E0
3FC0
3800
3800
3800
3800
FC00
ENDCHAR
STARTCHAR 00FF
ENCODING 255
SWIDTH 495 0
DWIDTH 11 0
BBX 9 20 1 -5
BITMAP
3300
7700
3300
0000
0000
F180
F080
7100
7900
3A00
3A00
1E00
1C00
0C00
0800
0800
0800
D000
D000
E000
ENDCHAR
STARTCHAR 0100
ENCODING 256
SWIDTH 720 0
DWIDTH 16 0
BBX 14 18 1 0
BITMAP
0FC0
0FC0
0000
0200
0300
0300
0780
0780
0BC0
0BC0
09C0
11E0
10E0
3FF0
2070
4078
4078
E07C
ENDCHAR
STARTCHAR 0101
ENCODING 257
SWIDTH 495 0
DWIDTH 11 0
BBX 10 14 1 0
BITMAP
7F00
7F00
0000
0000
7F00
E700
E700
6700
1F00
3700
6700
E700
FF40
F380
ENDCHAR
STARTCHAR 0102
ENCODING 258
SWIDTH 720 0
DWIDTH 16 0
BBX 14 19 1 0
BITMAP
0840
0FC0
0780
0000
0200
0300
0300
0780
0780
0BC0
0BC0
09C0
11E0
10E0
3FF0
2070
4078
4078
E07C
ENDCHAR
STARTCHAR 0103
ENCODING 259
SWIDTH 495 0
DWIDTH 11 0
BBX 10 15 1 0
BITMAP
4100
3F00
3E00
0000
0000
7F00
E700
E700
6700
1F00
3700
6700
E700
FF40
F380
ENDCHAR
STARTCHAR 0104
ENCODING 260
SWIDTH 720 0
DWIDTH 16 0
BBX 14 20 1 -5
BITMAP
0200
0300
0300
0780
0780
0BC0
0BC0
09C0
11E0
10E0
3FF0
2070
4078
4078
E07C
0030
0020
0070
0038
001C
ENDCHAR
STARTCHAR 0105
ENCODING 261
SWIDTH 495 0
DWIDTH 11 0
BBX 10 15 1 -5
BITMAP
7F00
E700
E700
6700
1F00
3700
6700
E700
FF40
F380
0200
0600
0600
0700
03C0
ENDCHAR
STARTCHAR 0106
ENCODING 262
SWIDTH 720 0
DWIDTH 16 0
BBX 14 20 1 0
BITMAP
00E0
01C0
0180
0100
0000
07E4
1E1C
380C
7804
7004
F000
F000
F000
F000
F000
F000
7000
7804
3C08
0FF0
ENDCHAR
STARTCHAR 0107
ENCODING 263
SWIDTH 450 0
DWIDTH 10 0
BBX 8 15 1 0
BITMAP
0E
0C
18
10
00
3E
67
E7
E0
E0
E0
E0
F0
7B
3E
ENDCHAR
STARTCHAR 0108
ENCODING 264
SWIDTH 720 0
DWIDTH 16 0
BBX 14 20 1 0
BITMAP
0380
07C0
0640
0820
0000
07E4
1E1C
380C
7804
7004
F000
F000
F000
F000
F000
F000
7000
7804
3C08
0FF0
ENDCHAR
STARTCHAR 0109
ENCODING 265
SWIDTH 450 0
DWIDTH 10 0
BBX 8 15 1 0
BITMAP
3C
3C
66
40
00
3E
67
E7
E0
E0
E0
E0
F0
7B
3E
ENDCHAR
STARTCHAR 010A
ENCODING 266
SWIDTH 720 0
DWIDTH 16 0
BBX 14 19 1 0
BITMAP
0380
0380
0300
0000
07E4
1E1C
380C
7804
7004
F000
F000
F000
F000
F000
F000
7000
7804
3C08
0FF0
ENDCHAR
STARTCHAR 010B
ENCODING 267
SWIDTH 450 0
DWIDTH 10 0
BBX 8 15 1 0
BITMAP
18
1C
1C
00
00
3E
67
E7
E0
E0
E0
E0
F0
7B
3E
ENDCHAR
STARTCHAR 010C
ENCODING 268
SWIDTH 720 0
DWIDTH 16 0
BBX 14 20 1 0
BITMAP
0420
0660
03C0
03C0
0000
07E4
1E1C
380C
7804
7004
F000
F000
F000
F000
F000
F000
7000
7804
3C08
0FF0
ENDCHAR
STARTCHAR 010D
ENCODING 269
SWIDTH 450 0
DWIDTH 10 0
BBX 8 15 1 0
BITMAP
23
36
1C
1C
00
3E
67
E7
E0
E0
E0
E0
F0
7B
3E
ENDCHAR
STARTCHAR 010E
ENCODING 270
SWIDTH 720 0
DWIDTH 16 0
BBX 15 20 0 0
BITMAP
0820
0640
07C0
0380
0000
FF80
3C70
3C38
3C3C
3C1C
3C1E
3C1E
3C1E
3C1E
3C1E
3C1E
3C1C
3C3C
3C70
7FC0
ENDCHAR
STARTCHAR 010F
ENCODING 271
SWIDTH 720 0
DWIDTH 16 0
BBX 15 15 1 0
BITMAP
07DC
01DE
01DE
01C2
01C2
3DC4
73C8
E1C0
E1C0
E1C0
E1C0
E1C0
E1C0
73C0
3DE0
ENDCHAR
STARTCHAR 0110
ENCODING 272
SWIDTH 720 0
DWIDTH 16 0
BBX 15 15 0 0
BITMAP
FF80
3C70
3C38
3C1C
3C1E
3C1E
3C1E
FF9E
3C1E
3C1E
3C1E
3C1C
3C3C
3C78
7FE0
ENDCHAR
STARTCHAR 0111
ENCODING 273
SWIDTH 540 0
DWIDTH 12 0
BBX 11 15 1 0
BITMAP
07C0
01C0
1FE0
01C0
01C0
3DC0
63C0
E1C0
E1C0
E1C0
E1C0
E1C0
E1C0
73C0
3DE0
ENDCHAR
STARTCHAR 0112
ENCODING 274
SWIDTH 675 0
DWIDTH 15 0
BBX 14 18 0 0
BITMAP
0FE0
0FE0
0000
FFF8
3C38
1C08
1C08
1C48
1C40
1CC0
1FC0
1CC0
1C40
1C44
1C04
1C0C
3C18
7FF8
ENDCHAR
STARTCHAR 0113
ENCODING 275
SWIDTH 450 0
DWIDTH 10 0
BBX 8 14 1 0
BITMAP
FE
FE
00
00
3E
67
E3
E3
FF
E0
E0
F1
7B
3E
ENDCHAR
STARTCHAR 0114
ENCODING 276
SWIDTH 675 0
DWIDTH 15 0
BBX 14 20 0 0
BITMAP
0820
0C40
07C0
0380
0000
FFF8
3C38
1C08
1C08
1C48
1C40
1CC0
1FC0
1CC0
1C40
1C44
1C04
1C0C
3C18
7FF8
ENDCHAR
STARTCHAR 0115
ENCODING 277
SWIDTH 450 0
DWIDTH 10 0
BBX 8 15 1 0
BITMAP
42
7E
3C
00
00
3E
67
E3
E3
FF
E0
E0
F1
7B
3E
ENDCHAR
STARTCHAR 0116
ENCODING 278
SWIDTH 675 0
DWIDTH 15 0
BBX 14 19 0 0
BITMAP
0380
0380
0300
0000
FFF8
3C38
1C08
1C08
1C48
1C40
1CC0
1FC0
1CC0
1C40
1C44
1C04
1C0C
3C18
7FF8
ENDCHAR
STARTCHAR 0117
ENCODING 279
SWIDTH 450 0
DWIDTH 10 0
BBX 8 15 1 0
BITMAP
18
1C
1C
00
00
3E
67
E3
E3
FF
E0
E0
F1
7B
3E
ENDCHAR
STARTCHAR 0118
ENCODING 280
SWIDTH 675 0
DWIDTH 15 0
BBX 14 20 0 -5
BITMAP
FFF8
3C38
1C08
1C08
1C48
1C40
1CC0
1FC0
1CC0
1C40
1C44
1C04
1C0C
3C18
3FF8
4060
00C0
00E0
0070
0038
ENDCHAR
STARTCHAR 0119
ENCODING 281
SWIDTH 450 0
DWIDTH 10 0
BBX 8 15 1 -5
BITMAP
3E
67
E3
E3
FF
E0
E0
F1
7B
3E
10
30
30
38
1E
ENDCHAR
STARTCHAR 011A
ENCODING 282
SWIDTH 675 0
DWIDTH 15 0
BBX 14 20 0 0
BITMAP
0840
0CC0
0780
0780
0000
FFF8
3C38
1C08
1C08
1C48
1C40
1CC0
1FC0
1CC0
1C40
1C44
1C04
1C0C
3C18
7FF8
ENDCHAR
STARTCHAR 011B
ENCODING 283
SWIDTH 450 0
DWIDTH 10 0
BBX 8 15 1 0
BITMAP
62
36
3C
1C
00
3E
67
E3
E3
FF
E0
E0
F1
7B
3E
ENDCHAR
STARTCHAR 011C
ENCODING 284
SWIDTH 765 0
DWIDTH 17 0
BBX 15 20 1 0
BITMAP
01C0
03C0
0260
0420
0000
07E4
1C1C
380C
7804
7004
F000
F000
F000
F000
F03E
F01C
701C
381C
1C1C
0FF8
ENDCHAR
STARTCHAR 011D
ENCODING 285
SWIDTH 495 0
DWIDTH 11 0
BBX 10 20 1 -5
BITMAP
1C00
3E00
2200
4100
0000
7FC0
E300
E380
E380
E380
6300
3C00
4000
C000
FF80
7FC0
7FC0
C0C0
C180
3E00
ENDCHAR
STARTCHAR 011E
ENCODING 286
SWIDTH 765 0
DWIDTH 17 0
BBX 15 19 1 0
BITMAP
0420
07E0
03C0
0000
07E4
1C1C
380C
7804
7004
F000
F000
F000
F000
F03E
F01C
701C
381C
1C1C
0FF8
ENDCHAR
STARTCHAR 011F
ENCODING 287
SWIDTH 495 0
DWIDTH 11 0
BBX 10 20 1 -5
BITMAP
4100
3F00
1E00
0000
0000
7FC0
E300
E380
E380
E380
6300
3C00
4000
C000
FF80
7FC0
7FC0
C0C0
C180
3E00
ENDCHAR
STARTCHAR 0120
ENCODING 288
SWIDTH 765 0
DWIDTH 17 0
BBX 15 19 1 0
BITMAP
0380
0380
0180
0000
07E4
1C1C
380C
7804
7004
F000
F000
F000
F000
F03E
F01C
701C
381C
1C1C
0FF8
ENDCHAR
STARTCHAR 0121
ENCODING 289
SWIDTH 495 0
DWIDTH 11 0
BBX 10 20 1 -5
BITMAP
0C00
1C00
1C00
0000
0000
7FC0
E300
E380
E380
E380
6300
3C00
4000
C000
FF80
7FC0
7FC0
C0C0
C180
3E00
ENDCHAR
STARTCHAR 0122
ENCODING 290
SWIDTH 765 0
DWIDTH 17 0
BBX 15 19 1 -4
BITMAP
07E4
1C1C
380C
7804
7004
F000
F000
F000
F000
F03E
F01C
701C
381C
1C1C
0F78
0180
0180
0180
0380
ENDCHAR
STARTCHAR 0123
ENCODING 291
SWIDTH 495 0
DWIDTH 11 0
BBX 10 21 1 -5
BITMAP
0800
1000
1800
1C00
0000
0000
7FC0
E300
E380
E380
E380
6300
3E00
4000
C000
FF80
7FC0
7FC0
C0C0
C180
3E00
ENDCHAR
STARTCHAR 0124
ENCODING 292
SWIDTH 765 0
DWIDTH 17 0
BBX 17 20 0 0
BITMAP
01C000
03E000
032000
041000
000000
FF7F80
3C1E00
1C1E00
1C1E00
1C1E00
1C1E00
1C1E00
1FFE00
1C1E00
1C1E00
1C1E00
1C1E00
1C1E00
3C1E00
7E3F00
ENDCHAR
STARTCHAR 0125
ENCODING 293
SWIDTH 540 0
DWIDTH 12 0
BBX 10 20 1 0
BITMAP
0E00
1E00
3300
2100
0000
F000
7000
7000
7000
7000
7780
7B80
71C0
71C0
71C0
71C0
71C0
71C0
71C0
F3C0
ENDCHAR
STARTCHAR 0126
ENCODING 294
SWIDTH 765 0
DWIDTH 17 0
BBX 17 15 0 0
BITMAP
FF7F80
3C1E00
7FFF80
1C1E00
1C1E00
1C1E00
1C1E00
1FFE00
1C1E00
1C1E00
1C1E00
1C1E00
1C1E00
3C1E00
7E3F00
ENDCHAR
STARTCHAR 0127
ENCODING 295
SWIDTH 540 0
DWIDTH 12 0
BBX 10 15 1 0
BITMAP
F000
7000
FE00
7000
7000
7780
7B80
71C0
71C0
71C0
71C0
71C0
71C0
71C0
F3C0
ENDCHAR
STARTCHAR 0128
ENCODING 296
SWIDTH 405 0
DWIDTH 9 0
BBX 8 19 0 0
BITMAP
39
7F
4E
00
FF
3C
1C
1C
1C
1C
1C
1C
1C
1C
1C
1C
1C
3C
7E
ENDCHAR
STARTCHAR 0129
ENCODING 297
SWIDTH 270 0
DWIDTH 6 0
BBX 7 15 0 0
BITMAP
62
FC
BC
00
00
78
38
38
38
38
38
38
38
38
78
ENDCHAR
STARTCHAR 012A
ENCODING 298
SWIDTH 405 0
DWIDTH 9 0
BBX 8 18 0 0
BITMAP
7F
7F
00
FF
3C
1C
1C
1C
1C
1C
1C
1C
1C
1C
1C
1C
3C
7E
ENDCHAR
STARTCHAR 012B
ENCODING 299
SWIDTH 270 0
DWIDTH 6 0
BBX 7 14 0 0
BITMAP
FE
FE
00
00
78
38
38
38
38
38
38
38
38
78
ENDCHAR
STARTCHAR 012C
ENCODING 300
SWIDTH 405 0
DWIDTH 9 0
BBX 8 20 0 0
BITMAP
41
62
3E
1C
00
FF
3C
1C
1C
1C
1C
1C
1C
1C
1C
1C
1C
1C
3C
7E
ENDCHAR
STARTCHAR 012D
ENCODING 301
SWIDTH 270 0
DWIDTH 6 0
BBX 6 15 0 0
BITMAP
84
FC
78
00
00
78
38
38
38
38
38
38
38
38
78
ENDCHAR
STARTCHAR 012E
ENCODING 302
SWIDTH 405 0
DWIDTH 9 0
BBX 8 20 0 -5
BITMAP
FF
3C
1C
1C
1C
1C
1C
1C
1C
1C
1C
1C
1C
1C
3E
50
30
30
38
1E
ENDCHAR
STARTCHAR 012F
ENCODING 303
SWIDTH 270 0
DWIDTH 6 0
BBX 5 20 1 -5
BITMAP
60
F0
70
00
00
F0
70
70
70
70
70
70
70
70
F0
40
C0
C0
E0
78
ENDCHAR
STARTCHAR 0130
ENCODING 304
SWIDTH 405 0
DWIDTH 9 0
BBX 8 19 0 0
BITMAP
18
1C
1C
00
FF
3C
1C
1C
1C
1C
1C
1C
1C
1C
1C
1C
1C
3C
7E
ENDCHAR
STARTCHAR 0131
ENCODING 305
SWIDTH 270 0
DWIDTH 6 0
BBX 4 10 1 0
BITMAP
F0
70
70
70
70
70
70
70
70
F0
ENDCHAR
STARTCHAR 0132
ENCODING 306
SWIDTH 810 0
DWIDTH 18 0
BBX 18 15 0 0
BITMAP
FF3FC0
3C0F00
1C0700
1C0700
1C0700
1C0700
1C0700
1C0700
1C0700
1C0700
1C0700
1CE700
1DE700
3CCE00
7E7C00
ENDCHAR
STARTCHAR 0133
ENCODING 307
SWIDTH 540 0
DWIDTH 12 0
BBX 10 20 1 -5
BITMAP
6180
73C0
7180
0000
0000
F3C0
71C0
73C0
73C0
73C0
73C0
73C0
73C0
71C0
F1C0
01C0
0180
0980
0980
0700
ENDCHAR
STARTCHAR 0134
ENCODING 308
SWIDTH 495 0
DWIDTH 11 0
BBX 11 20 0 0
BITMAP
0780
0780
0CC0
0840
0000
1FE0
0780
0780
0780
0780
0780
0780
0780
0780
0780
0780
E780
E780
6700
3E00
ENDCHAR
STARTCHAR 0135
ENCODING 309
SWIDTH 315 0
DWIDTH 7 0
BBX 8 20 -1 -5
BITMAP
1C
3E
23
41
00
1C
1C
1C
1C
1C
1C
1C
1C
1C
1C
1C
1C
CC
CC
78
ENDCHAR
STARTCHAR 0136
ENCODING 310
SWIDTH 765 0
DWIDTH 17 0
BBX 17 19 0 -4
BITMAP
FF1F80
3C0600
1C0C00
1C1000
1C2000
1CC000
1DC000
1FE000
1DE000
1CF000
1C7800
1C7C00
1C3C00
1C1E00
3E1F80
400000
01C000
00C000
01C000
ENDCHAR
STARTCHAR 0137
ENCODING 311
SWIDTH 540 0
DWIDTH 12 0
BBX 11 19 1 -4
BITMAP
F000
7000
7000
7000
7000
71C0
7100
7200
7600
7E00
7700
7780
7380
71C0
F1E0
0000
0E00
0600
0C00
ENDCHAR
STARTCHAR 0138
ENCODING 312
SWIDTH 540 0
DWIDTH 12 0
BBX 11 10 1 0
BITMAP
F9C0
7100
7200
7600
7E00
7700
7780
7380
71C0
F9E0
ENDCHAR
STARTCHAR 0139
ENCODING 313
SWIDTH 675 0
DWIDTH 15 0
BBX 14 20 0 0
BITMAP
0700
0600
0C00
0800
0000
FF00
3C00
3C00
3C00
3C00
3C00
3C00
3C00
3C00
3C00
3C04
3C04
3C0C
3C0C
7FFC
ENDCHAR
STARTCHAR 013A
ENCODING 314
SWIDTH 270 0
DWIDTH 6 0
BBX 6 20 0 0
BITMAP
1C
18
30
20
00
F8
38
38
38
38
38
38
38
38
38
38
38
38
38
78
ENDCHAR
STARTCHAR 013B
ENCODING 315
SWIDTH 675 0
DWIDTH 15 0
BBX 14 19 0 -4
BITMAP
FF00
3C00
3C00
3C00
3C00
3C00
3C00
3C00
3C00
3C00
3C04
3C04
3C0C
3C0C
3FFC
4000
0380
0180
0300
ENDCHAR
STARTCHAR 013C
ENCODING 316
SWIDTH 270 0
DWIDTH 6 0
BBX 5 19 0 -4
BITMAP
F8
38
38
38
38
38
38
38
38
38
38
38
38
38
78
00
38
18
70
ENDCHAR
STARTCHAR 013D
ENCODING 317
SWIDTH 675 0
DWIDTH 15 0
BBX 14 15 0 0
BITMAP
FF38
3C3C
3C3C
3C0C
3C08
3C08
3C30
3C00
3C00
3C00
3C04
3C04
3C0C
3C0C
7FFC
ENDCHAR
STARTCHAR 013E
ENCODING 318
SWIDTH 450 0
DWIDTH 10 0
BBX 10 15 0 0
BITMAP
F980
3BC0
3BC0
3840
3840
3880
3900
3800
3800
3800
3800
3800
3800
3800
7800
ENDCHAR
STARTCHAR 013F
ENCODING 319
SWIDTH 675 0
DWIDTH 15 0
BBX 14 15 0 0
BITMAP
FF00
3C00
3C00
3C00
3C00
3C00
3C60
3C60
3C60
3C00
3C04
3C04
3C0C
3C0C
7FFC
ENDCHAR
STARTCHAR 0140
ENCODING 320
SWIDTH 405 0
DWIDTH 9 0
BBX 9 15 0 0
BITMAP
F800
3800
3800
3800
3800
3800
3900
3B80
3B80
3800
3800
3800
3800
3800
7800
ENDCHAR
STARTCHAR 0141
ENCODING 321
SWIDTH 675 0
DWIDTH 15 0
BBX 14 15 0 0
BITMAP
FF00
3C00
3C00
3C00
3C80
3F00
3C00
3C00
3C00
7C00
BC04
3C04
3C04
3C0C
7FF8
ENDCHAR
STARTCHAR 0142
ENCODING 322
SWIDTH 270 0
DWIDTH 6 0
BBX 6 15 0 0
BITMAP
F8
38
38
38
38
3C
38
38
78
B8
38
38
38
38
78
ENDCHAR
STARTCHAR 0143
ENCODING 323
SWIDTH 720 0
DWIDTH 16 0
BBX 16 20 0 0
BITMAP
00E0
00C0
0180
0100
0000
FC1F
3C04
3E04
2F04
2F84
27C4
23C4
21E4
20F4
20FC
207C
203C
201C
200C
7804
ENDCHAR
STARTCHAR 0144
ENCODING 324
SWIDTH 540 0
DWIDTH 12 0
BBX 10 15 1 0
BITMAP
0700
0E00
0C00
0800
0000
F780
7B80
71C0
71C0
71C0
71C0
71C0
71C0
71C0
F3C0
ENDCHAR
STARTCHAR 0145
ENCODING 325
SWIDTH 720 0
DWIDTH 16 0
BBX 16 19 0 -4
BITMAP
FC1F
3C04
3E04
2F04
2F84
27C4
23C4
21E4
20F4
20FC
207C
203C
201C
200C
7004
0800
0180
00C0
0380
ENDCHAR
STARTCHAR 0146
ENCODING 326
SWIDTH 540 0
DWIDTH 12 0
BBX 10 14 1 -4
BITMAP
F780
7B80
71C0
71C0
71C0
71C0
71C0
71C0
71C0
F3C0
0000
0E00
0600
0C00
ENDCHAR
STARTCHAR 0147
ENCODING 327
SWIDTH 720 0
DWIDTH 16 0
BBX 16 20 0 0
BITMAP
0430
0660
03C0
03C0
0000
FC1F
3C04
3E04
2F04
2F84
27C4
23C4
21E4
20F4
20FC
207C
203C
201C
200C
7804
ENDCHAR
STARTCHAR 0148
ENCODING 328
SWIDTH 540 0
DWIDTH 12 0
BBX 10 15 1 0
BITMAP
3100
1F00
1E00
0C00
0000
F780
7B80
71C0
71C0
71C0
71C0
71C0
71C0
71C0
F3C0
ENDCHAR
STARTCHAR 0149
ENCODING 329
SWIDTH 720 0
DWIDTH 16 0
BBX 15 15 2 0
BITMAP
E000
F000
F000
3000
2000
27FC
C39C
039C
039C
039C
039C
039C
039C
039C
079E
ENDCHAR
STARTCHAR 014A
ENCODING 330
SWIDTH 765 0
DWIDTH 17 0
BBX 16 15 0 0
BITMAP
FCF0
3D1C
1E0C
1E0E
1C0E
1C0F
1C0F
1C0F
1C0F
1C0F
1C0F
1C0E
1CEE
1CEC
7E78
ENDCHAR
STARTCHAR 014B
ENCODING 331
SWIDTH 540 0
DWIDTH 12 0
BBX 10 15 1 -5
BITMAP
F780
7B80
71C0
71C0
71C0
71C0
71C0
71C0
71C0
F1C0
01C0
01C0
0980
0980
0F00
ENDCHAR
STARTCHAR 014C
ENCODING 332
SWIDTH 765 0
DWIDTH 17 0
BBX 15 18 1 0
BITMAP
0FE0
0FE0
0000
07E0
1C38
381C
701C
F01E
F01E
F00E
F00E
F00E
F01E
F01E
701E
781C
3838
0FF0
ENDCHAR
STARTCHAR 014D
ENCODING 333
SWIDTH 495 0
DWIDTH 11 0
BBX 9 14 1 0
BITMAP
7F00
7F00
0000
0000
3E00
6300
E380
E380
E380
E380
E380
E380
6300
3E00
ENDCHAR
STARTCHAR 014E
ENCODING 334
SWIDTH 765 0
DWIDTH 17 0
BBX 15 20 1 0
BITMAP
0820
0460
07C0
0380
0000
07E0
1C38
381C
701C
F01E
F01E
F00E
F00E
F00E
F01E
F01E
701E
781C
3838
0FF0
ENDCHAR
STARTCHAR 014F
ENCODING 335
SWIDTH 495 0
DWIDTH 11 0
BBX 9 15 1 0
BITMAP
4100
3E00
3E00
0000
0000
3E00
6300
E380
E380
E380
E380
E380
E380
6300
3E00
ENDCHAR
STARTCHAR 0150
ENCODING 336
SWIDTH 765 0
DWIDTH 17 0
BBX 15 20 1 0
BITMAP
03B0
0320
0260
0440
0000
07E0
1C38
381C
701C
F01E
F01E
F00E
F00E
F00E
F01E
F01E
701E
781C
3838
0FF0
ENDCHAR
STARTCHAR 0151
ENCODING 337
SWIDTH 495 0
DWIDTH 11 0
BBX 9 15 1 0
BITMAP
1980
1300
3200
2000
0000
3E00
6300
E380
E380
E380
E380
E380
E380
6300
3E00
ENDCHAR
STARTCHAR 0152
ENCODING 338
SWIDTH 990 0
DWIDTH 22 0
BBX 20 15 1 0
BITMAP
0FFFE0
1C7860
387820
707820
F07900
F07900
F07900
F07F00
F07900
F07900
F07900
707810
787810
387830
0FFFF0
ENDCHAR
STARTCHAR 0153
ENCODING 339
SWIDTH 720 0
DWIDTH 16 0
BBX 14 10 1 0
BITMAP
3EF8
638C
E38C
E38C
E3FC
E380
E380
E3C0
63E4
3EF8
ENDCHAR
STARTCHAR 0154
ENCODING 340
SWIDTH 720 0
DWIDTH 16 0
BBX 16 20 0 0
BITMAP
00E0
00C0
0180
0100
0000
FFC0
3C78
3C38
3C3C
3C3C
3C3C
3C38
3DF0
3FE0
3CF0
3CF0
3C78
3C3C
3C1E
7E1F
ENDCHAR
STARTCHAR 0155
ENCODING 341
SWIDTH 450 0
DWIDTH 10 0
BBX 8 15 1 0
BITMAP
0E
1C
18
10
00
F7
7F
78
70
70
70
70
70
70
F8
ENDCHAR
STARTCHAR 0156
ENCODING 342
SWIDTH 720 0
DWIDTH 16 0
BBX 16 19 0 -4
BITMAP
FFC0
3C78
3C38
3C3C
3C3C
3C3C
3C38
3DF0
3FE0
3CF0
3CF0
3C78
3C3C
3C1E
3E1F
4000
01C0
00C0
0180
ENDCHAR
STARTCHAR 0157
ENCODING 343
SWIDTH 450 0
DWIDTH 10 0
BBX 8 14 1 -4
BITMAP
F7
7F
78
70
70
70
70
70
70
F8
00
18
08
38
ENDCHAR
STARTCHAR 0158
ENCODING 344
SWIDTH 720 0
DWIDTH 16 0
BBX 16 20 0 0
BITMAP
0420
0660
03C0
03C0
0000
FFC0
3C78
3C38
3C3C
3C3C
3C3C
3C38
3DF0
3FE0
3CF0
3CF0
3C78
3C3C
3C1E
7E1F
ENDCHAR
STARTCHAR 0159
ENCODING 345
SWIDTH 450 0
DWIDTH 10 0
BBX 8 15 1 0
BITMAP
62
3E
3C
18
00
F7
7F
78
70
70
70
70
70
70
F8
ENDCHAR
STARTCHAR 015A
ENCODING 346
SWIDTH 540 0
DWIDTH 12 0
BBX 10 20 1 0
BITMAP
0700
0600
0C00
0800
0000
3E00
6180
6080
E040
F040
F800
7E00
3F80
1FC0
07C0
81C0
80C0
C0C0
E0C0
BF00
ENDCHAR
STARTCHAR 015B
ENCODING 347
SWIDTH 405 0
DWIDTH 9 0
BBX 7 15 1 0
BITMAP
1C
18
30
20
00
7C
C4
E4
F0
7C
3C
1E
8E
84
FC
ENDCHAR
STARTCHAR 015C
ENCODING 348
SWIDTH 540 0
DWIDTH 12 0
BBX 10 20 1 0
BITMAP
0E00
1E00
3300
2100
0000
3E00
6180
6080
E040
F040
F800
7E00
3F80
1FC0
07C0
81C0
80C0
C0C0
E0C0
BF00
ENDCHAR
STARTCHAR 015D
ENCODING 349
SWIDTH 405 0
DWIDTH 9 0
BBX 7 15 1 0
BITMAP
38
7C
C4
82
00
7C
C4
E4
F0
7C
3C
1E
8E
84
FC
ENDCHAR
STARTCHAR 015E
ENCODING 350
SWIDTH 540 0
DWIDTH 12 0
BBX 10 19 1 -4
BITMAP
3E00
6180
6080
E040
F040
F800
7E00
3F80
1FC0
07C0
81C0
80C0
C0C0
E0C0
B300
0C00
0E00
0600
0C00
ENDCHAR
STARTCHAR 015F
ENCODING 351
SWIDTH 405 0
DWIDTH 9 0
BBX 7 14 1 -4
BITMAP
7C
C4
E4
F0
7C
3C
1E
8E
84
FC
10
38
18
30
ENDCHAR
STARTCHAR 0160
ENCODING 352
SWIDTH 540 0
DWIDTH 12 0
BBX 10 20 1 0
BITMAP
2100
3300
1E00
1E00
0000
3E00
6180
6080
E040
F040
F800
7E00
3F80
1FC0
07C0
81C0
80C0
C0C0
E0C0
BF00
ENDCHAR
STARTCHAR 0161
ENCODING 353
SWIDTH 405 0
DWIDTH 9 0
BBX 7 15 1 0
BITMAP
C4
7C
78
30
00
7C
C4
E4
F0
7C
3C
1E
8E
84
FC
ENDCHAR
STARTCHAR 0162
ENCODING 354
SWIDTH 675 0
DWIDTH 15 0
BBX 13 20 1 -5
BITMAP
FFF8
C718
8708
8708
0700
0700
0700
0700
0700
0700
0700
0700
0700
0700
0F80
0000
0600
0700
0100
0200
ENDCHAR
STARTCHAR 0163
ENCODING 355
SWIDTH 315 0
DWIDTH 7 0
BBX 7 19 0 -5
BITMAP
08
08
18
38
FE
38
38
38
38
38
38
38
3A
1C
00
18
18
08
08
ENDCHAR
STARTCHAR 0164
ENCODING 356
SWIDTH 675 0
DWIDTH 15 0
BBX 13 20 1 0
BITMAP
1040
0980
0F80
0700
0000
FFF8
C718
8708
8708
0700
0700
0700
0700
0700
0700
0700
0700
0700
0700
0F80
ENDCHAR
STARTCHAR 0165
ENCODING 357
SWIDTH 540 0
DWIDTH 12 0
BBX 11 15 0 0
BITMAP
00C0
09E0
09E0
1820
3820
FE40
3880
3800
3800
3800
3800
3800
3800
3A00
1C00
ENDCHAR
STARTCHAR 0166
ENCODING 358
SWIDTH 675 0
DWIDTH 15 0
BBX 13 15 1 0
BITMAP
FFF8
C718
8708
8708
0700
0700
0700
7FE0
0700
0700
0700
0700
0700
0700
0F80
ENDCHAR
STARTCHAR 0167
ENCODING 359
SWIDTH 315 0
DWIDTH 7 0
BBX 7 14 0 0
BITMAP
08
08
18
38
FE
38
38
FE
38
38
38
38
3A
1C
ENDCHAR
STARTCHAR 0168
ENCODING 360
SWIDTH 720 0
DWIDTH 16 0
BBX 15 19 1 0
BITMAP
0720
0FC0
01C0
0000
FE3E
7818
7808
7808
7808
7808
7808
7808
7808
7808
7808
3810
3810
3C30
1FC0
ENDCHAR
STARTCHAR 0169
ENCODING 361
SWIDTH 540 0
DWIDTH 12 0
BBX 10 15 1 0
BITMAP
1880
3F80
2F00
0000
0000
F3C0
73C0
73C0
73C0
73C0
73C0
73C0
73C0
73C0
3FC0
ENDCHAR
STARTCHAR 016A
ENCODING 362
SWIDTH 720 0
DWIDTH 16 0
BBX 15 18 1 0
BITMAP
1FC0
1FC0
0000
FE3E
7818
7808
7808
7808
7808
7808
7808
7808
7808
7808
3810
3810
3C30
1FC0
ENDCHAR
STARTCHAR 016B
ENCODING 363
SWIDTH 540 0
DWIDTH 12 0
BBX 10 14 1 0
BITMAP
3F80
3F80
0000
0000
F3C0
73C0
73C0
73C0
73C0
73C0
73C0
73C0
73C0
3FC0
ENDCHAR
STARTCHAR 016C
ENCODING 364
SWIDTH 720 0
DWIDTH 16 0
BBX 15 20 1 0
BITMAP
0800
0840
0FC0
0300
0000
FE3E
7818
7808
7808
7808
7808
7808
7808
7808
7808
7808
3810
3810
3C30
1FC0
ENDCHAR
STARTCHAR 016D
ENCODING 365
SWIDTH 540 0
DWIDTH 12 0
BBX 10 15 1 0
BITMAP
2100
3F00
1E00
0000
0000
F3C0
73C0
73C0
73C0
73C0
73C0
73C0
73C0
73C0
3FC0
ENDCHAR
STARTCHAR 016E
ENCODING 366
SWIDTH 720 0
DWIDTH 16 0
BBX 15 20 1 0
BITMAP
0380
0480
0440
0680
0100
FE3E
7818
7808
7808
7808
7808
7808
7808
7808
7808
7808
3810
3810
3C30
1FC0
ENDCHAR
STARTCHAR 016F
ENCODING 367
SWIDTH 540 0
DWIDTH 12 0
BBX 10 16 1 0
BITMAP
0400
1A00
1200
1200
0E00
0000
F3C0
73C0
73C0
73C0
73C0
73C0
73C0
73C0
73C0
3FC0
ENDCHAR
STARTCHAR 0170
ENCODING 368
SWIDTH 720 0
DWIDTH 16 0
BBX 15 20 1 0
BITMAP
0360
0640
04C0
0480
0000
FE3E
7818
7808
7808
7808
7808
7808
7808
7808
7808
7808
3810
3810
3C30
1FC0
ENDCHAR
STARTCHAR 0171
ENCODING 369
SWIDTH 540 0
DWIDTH 12 0
BBX 10 15 1 0
BITMAP
0D80
1900
1100
1200
0000
F3C0
73C0
73C0
73C0
73C0
73C0
73C0
73C0
73C0
3FC0
ENDCHAR
STARTCHAR 0172
ENCODING 370
SWIDTH 720 0
DWIDTH 16 0
BBX 15 20 1 -5
BITMAP
FE3E
7818
7808
7808
7808
7808
7808
7808
7808
7808
7808
3810
3810
3C30
1FC0
0100
0300
0300
0380
01E0
ENDCHAR
STARTCHAR 0173
ENCODING 371
SWIDTH 540 0
DWIDTH 12 0
BBX 10 15 1 -5
BITMAP
F3C0
71C0
71C0
71C0
71C0
71C0
71C0
71C0
73C0
3DC0
0300
0200
0700
0380
01C0
ENDCHAR
STARTCHAR 0174
ENCODING 372
SWIDTH 990 0
DWIDTH 22 0
BBX 22 20 0 0
BITMAP
003800
007800
00CC00
008400
000000
FEFE3C
783C08
3C3C10
3C1C10
1C1E10
1E1E20
1E2E20
0F2F20
0F4F40
0747C0
078780
078380
038380
030300
010100
ENDCHAR
STARTCHAR 0175
ENCODING 373
SWIDTH 720 0
DWIDTH 16 0
BBX 14 15 1 0
BITMAP
0780
0780
0CC0
0840
0000
F3CC
F1C4
73C8
73C8
3CF0
3CF0
3CF0
1860
1860
1860
ENDCHAR
STARTCHAR 0176
ENCODING 374
SWIDTH 720 0
DWIDTH 16 0
BBX 16 20 0 0
BITMAP
01C0
03E0
0260
0410
0000
FE1F
3C04
3C04
1E08
1E10
0F10
0720
07A0
03C0
03C0
03C0
03C0
03C0
03C0
07E0
ENDCHAR
STARTCHAR 0177
ENCODING 375
SWIDTH 495 0
DWIDTH 11 0
BBX 9 20 1 -5
BITMAP
1C00
3E00
2200
4100
0000
F180
F080
7100
7900
3A00
3A00
1E00
1C00
0C00
0800
0800
0800
D000
D000
E000
ENDCHAR
STARTCHAR 0178
ENCODING 376
SWIDTH 720 0
DWIDTH 16 0
BBX 16 19 0 0
BITMAP
0770
0770
0220
0000
FE1F
3C04
3C04
1E08
1E10
0F10
0720
07A0
03C0
03C0
03C0
03C0
03C0
03C0
07E0
ENDCHAR
STARTCHAR 0179
ENCODING 377
SWIDTH 675 0
DWIDTH 15 0
BBX 13 20 1 0
BITMAP
01C0
0380
0300
0200
0000
7FF0
60F0
41E0
81E0
03C0
0780
0780
0F00
1E00
1E00
3C08
3C08
7808
F038
FFF8
ENDCHAR
STARTCHAR 017A
ENCODING 378
SWIDTH 450 0
DWIDTH 10 0
BBX 9 15 0 0
BITMAP
0700
0600
0C00
0800
0000
7F80
4780
0700
0E00
1E00
1C00
3C00
3880
7080
FF80
ENDCHAR
STARTCHAR 017B
ENCODING 379
SWIDTH 675 0
DWIDTH 15 0
BBX 13 19 1 0
BITMAP
0700
0700
0700
0000
7FF0
60F0
41E0
81E0
03C0
0780
0780
0F00
1E00
1E00
3C08
3C08
7808
F038
FFF8
ENDCHAR
STARTCHAR 017C
ENCODING 380
SWIDTH 450 0
DWIDTH 10 0
BBX 9 15 0 0
BITMAP
0C00
0E00
0E00
0000
0000
7F80
4780
0700
0E00
1E00
1C00
3C00
3880
7080
FF80
ENDCHAR
STARTCHAR 017D
ENCODING 381
SWIDTH 675 0
DWIDTH 15 0
BBX 13 20 1 0
BITMAP
1040
0980
0F80
0700
0000
7FF0
60F0
41E0
81E0
03C0
0780
0780
0F00
1E00
1E00
3C08
3C08
7808
F038
FFF8
ENDCHAR
STARTCHAR 017E
ENCODING 382
SWIDTH 450 0
DWIDTH 10 0
BBX 9 15 0 0
BITMAP
3100
1B00
1E00
0E00
0000
7F80
4780
0700
0E00
1E00
1C00
3C00
3880
7080
FF80
ENDCHAR
STARTCHAR 017F
ENCODING 383
SWIDTH 270 0
DWIDTH 6 0
BBX 7 15 1 0
BITMAP
3E
76
76
70
70
70
70
70
70
70
70
70
70
70
F0
ENDCHAR
STARTCHAR 018F
ENCODING 399
SWIDTH 720 0
DWIDTH 16 0
BBX 15 15 1 0
BITMAP
4FC0
3070
2038
403C
003C
001C
001E
FFFE
F01E
F01C
F01C
703C
7038
3870
1FE0
ENDCHAR
STARTCHAR 0192
ENCODING 402
SWIDTH 495 0
DWIDTH 11 0
BBX 11 20 0 -5
BITMAP
00E0
0160
0300
0300
0700
1FC0
0780
0F00
0E00
0E00
0E00
0E00
1C00
1C00
1C00
1C00
1800
1800
D000
6000
ENDCHAR
STARTCHAR 01A0
ENCODING 416
SWIDTH 765 0
DWIDTH 17 0
BBX 16 16 1 0
BITMAP
0003
07C3
1C39
381E
701C
F01E
F01E
F00E
F00E
F00E
F01E
F01E
701E
781C
3838
0FF0
ENDCHAR
STARTCHAR 01A1
ENCODING 417
SWIDTH 540 0
DWIDTH 12 0
BBX 12 11 1 0
BITMAP
0070
3E70
6320
E3C0
E380
E380
E380
E380
E380
6300
3E00
ENDCHAR
STARTCHAR 01AF
ENCODING 431
SWIDTH 810 0
DWIDTH 18 0
BBX 18 18 1 0
BITMAP
000080
0001C0
000080
FE3F00
781800
780800
780800
780800
780800
780800
780800
780800
780800
780800
381000
381000
3C3000
1FC000
ENDCHAR
STARTCHAR 01B0
ENCODING 432
SWIDTH 585 0
DWIDTH 13 0
BBX 13 10 1 0
BITMAP
F3F8
73D8
73F0
73C0
73C0
73C0
73C0
73C0
73C0
3FC0
ENDCHAR
STARTCHAR 01CD
ENCODING 461
SWIDTH 720 0
DWIDTH 16 0
BBX 14 20 1 0
BITMAP
0840
0CC0
0780
0780
0000
0200
0300
0300
0780
0780
0BC0
0BC0
09C0
11E0
10E0
3FF0
2070
4078
4078
E07C
ENDCHAR
STARTCHAR 01CE
ENCODING 462
SWIDTH 495 0
DWIDTH 11 0
BBX 10 15 1 0
BITMAP
2300
3600
1C00
1C00
0000
7F00
E700
E700
6700
1F00
3700
6700
E700
FF40
F380
ENDCHAR
STARTCHAR 01CF
ENCODING 463
SWIDTH 405 0
DWIDTH 9 0
BBX 8 20 0 0
BITMAP
41
26
3C
1C
00
FF
3C
1C
1C
1C
1C
1C
1C
1C
1C
1C
1C
1C
3C
7E
ENDCHAR
STARTCHAR 01D0
ENCODING 464
SWIDTH 270 0
DWIDTH 6 0
BBX 6 15 0 0
BITMAP
C4
7C
78
30
00
78
38
38
38
38
38
38
38
38
78
ENDCHAR
STARTCHAR 01D1
ENCODING 465
SWIDTH 765 0
DWIDTH 17 0
BBX 15 20 1 0
BITMAP
0820
0640
07C0
0380
0000
07E0
1C38
381C
701C
F01E
F01E
F00E
F00E
F00E
F01E
F01E
701E
781C
3838
0FF0
ENDCHAR
STARTCHAR 01D2
ENCODING 466
SWIDTH 495 0
DWIDTH 11 0
BBX 9 15 1 0
BITMAP
2300
3600
1C00
1C00
0000
3E00
6300
E380
E380
E380
E380
E380
E380
6300
3E00
ENDCHAR
STARTCHAR 01D3
ENCODING 467
SWIDTH 720 0
DWIDTH 16 0
BBX 15 20 1 0
BITMAP
0820
04C0
0780
0380
0000
FE3E
7818
7808
7808
7808
7808
7808
7808
7808
7808
7808
3810
3810
3C30
1FC0
ENDCHAR
STARTCHAR 01D4
ENCODING 468
SWIDTH 540 0
DWIDTH 12 0
BBX 10 15 1 0
BITMAP
3100
1F00
1E00
0C00
0000
F3C0
73C0
73C0
73C0
73C0
73C0
73C0
73C0
73C0
3FC0
ENDCHAR
STARTCHAR 01D5
ENCODING 469
SWIDTH 720 0
DWIDTH 16 0
BBX 15 20 1 0
BITMAP
0FC0
0FC0
0000
0CC0
0000
FE3E
7818
7808
7808
7808
7808
7808
7808
7808
7808
7808
3810
3810
3C30
1FC0
ENDCHAR
STARTCHAR 01D6
ENCODING 470
SWIDTH 540 0
DWIDTH 12 0
BBX 10 17 1 0
BITMAP
3F80
3F80
0000
3300
3B80
3300
0000
F3C0
73C0
73C0
73C0
73C0
73C0
73C0
73C0
73C0
3FC0
ENDCHAR
STARTCHAR 01D7
ENCODING 471
SWIDTH 720 0
DWIDTH 16 0
BBX 15 20 1 0
BITMAP
0180
0300
0000
0CC0
0000
FE3E
7818
7808
7808
7808
7808
7808
7808
7808
7808
7808
3810
3810
3C30
1FC0
ENDCHAR
STARTCHAR 01D8
ENCODING 472
SWIDTH 540 0
DWIDTH 12 0
BBX 10 18 1 0
BITMAP
0700
0600
0C00
0000
3300
3B80
3300
0000
F3C0
73C0
73C0
73C0
73C0
73C0
73C0
73C0
73C0
3FC0
ENDCHAR
STARTCHAR 01D9
ENCODING 473
SWIDTH 720 0
DWIDTH 16 0
BBX 15 20 1 0
BITMAP
0480
0300
0000
0CC0
0000
FE3E
7818
7808
7808
7808
7808
7808
7808
7808
7808
7808
3810
3810
3C30
1FC0
ENDCHAR
STARTCHAR 01DA
ENCODING 474
SWIDTH 540 0
DWIDTH 12 0
BBX 10 19 1 0
BITMAP
2100
3300
1E00
1E00
0000
3300
3B80
3300
0000
F3C0
73C0
73C0
73C0
73C0
73C0
73C0
73C0
73C0
3FC0
ENDCHAR
STARTCHAR 01DB
ENCODING 475
SWIDTH 720 0
DWIDTH 16 0
BBX 15 20 1 0
BITMAP
0600
0300
0000
0CC0
0000
FE3E
7818
7808
7808
7808
7808
7808
7808
7808
7808
7808
3810
3810
3C30
1FC0
ENDCHAR
STARTCHAR 01DC
ENCODING 476
SWIDTH 540 0
DWIDTH 12 0
BBX 10 18 1 0
BITMAP
3800
1C00
0C00
0000
3300
3B80
3300
0000
F3C0
73C0
73C0
73C0
73C0
73C0
73C0
73C0
73C0
3FC0
ENDCHAR
STARTCHAR 01FA
ENCODING 506
SWIDTH 720 0
DWIDTH 16 0
BBX 14 23 1 0
BITMAP
01C0
0180
0300
0200
0300
0480
0480
0480
0300
0300
0300
0780
0780
0BC0
0BC0
09C0
11E0
10E0
3FF0
2070
4078
4078
E07C
ENDCHAR
STARTCHAR 01FB
ENCODING 507
SWIDTH 495 0
DWIDTH 11 0
BBX 10 20 1 0
BITMAP
0E00
0C00
0800
1000
0800
1400
2200
2200
1C00
0000
7F00
E700
E700
6700
1F00
3700
6700
E700
FF40
F380
ENDCHAR
STARTCHAR 01FC
ENCODING 508
SWIDTH 990 0
DWIDTH 22 0
BBX 21 20 0 0
BITMAP
000E00
001C00
001800
001000
000000
01FFF0
007C30
00BC10
00BC10
013C80
013C80
023C80
043F80
07FC80
083C80
103C80
103C08
203C08
603C18
F07FF8
ENDCHAR
STARTCHAR 01FD
ENCODING 509
SWIDTH 720 0
DWIDTH 16 0
BBX 14 15 1 0
BITMAP
01C0
0380
0300
0200
0000
7EF8
E38C
E38C
638C
0FFC
3380
6380
E380
F7EC
F9F8
ENDCHAR
STARTCHAR 01FE
ENCODING 510
SWIDTH 765 0
DWIDTH 17 0
BBX 15 21 1 -1
BITMAP
00E0
01C0
0180
0100
0000
07E6
1C3C
381C
701C
703E
F05E
F08E
F10E
F30E
F21E
F41E
781E
781C
3838
4EE0
0100
ENDCHAR
STARTCHAR 01FF
ENCODING 511
SWIDTH 495 0
DWIDTH 11 0
BBX 9 15 1 0
BITMAP
0E00
0C00
0800
1000
0000
3E80
6300
E380
E780
EB80
F380
F380
E380
6300
BE00
ENDCHAR
STARTCHAR 0218
ENCODING 536
SWIDTH 540 0
DWIDTH 12 0
BBX 10 20 1 -5
BITMAP
3E00
6180
6080
E040
F040
F800
7E00
3F80
1FC0
07C0
81C0
80C0
C0C0
E0C0
B300
0C00
0C00
0E00
0400
0400
ENDCHAR
STARTCHAR 0219
ENCODING 537
SWIDTH 405 0
DWIDTH 9 0
BBX 7 15 1 -5
BITMAP
7C
C4
E4
F0
7C
3C
1E
8E
84
FC
00
30
38
08
10
ENDCHAR
STARTCHAR 021A
ENCODING 538
SWIDTH 675 0
DWIDTH 15 0
BBX 13 20 1 -5
BITMAP
FFF8
C718
8708
8708
0700
0700
0700
0700
0700
0700
0700
0700
0700
0700
0F80
0000
0700
0700
0100
0200
ENDCHAR
STARTCHAR 021B
ENCODING 539
SWIDTH 315 0
DWIDTH 7 0
BBX 7 19 0 -5
BITMAP
08
08
18
38
FE
38
38
38
38
38
38
38
3A
1C
00
18
18
08
08
ENDCHAR
STARTCHAR 0259
ENCODING 601
SWIDTH 450 0
DWIDTH 10 0
BBX 8 10 1 0
BITMAP
7C
9E
0F
07
07
FF
C7
C7
E6
7C
ENDCHAR
STARTCHAR 02C6
ENCODING 710
SWIDTH 315 0
DWIDTH 7 0
BBX 7 4 0 11
BITMAP
38
7C
46
82
ENDCHAR
STARTCHAR 02C7
ENCODING 711
SWIDTH 315 0
DWIDTH 7 0
BBX 6 4 1 11
BITMAP
8C
D8
78
70
ENDCHAR
STARTCHAR 02C9
ENCODING 713
SWIDTH 315 0
DWIDTH 7 0
BBX 7 2 0 12
BITMAP
FE
FE
ENDCHAR
STARTCHAR 02D8
ENCODING 728
SWIDTH 315 0
DWIDTH 7 0
BBX 7 3 0 12
BITMAP
82
7E
3C
ENDCHAR
STARTCHAR 02D9
ENCODING 729
SWIDTH 315 0
DWIDTH 7 0
BBX 3 3 2 12
BITMAP
60
E0
E0
ENDCHAR
STARTCHAR 02DA
ENCODING 730
SWIDTH 315 0
DWIDTH 7 0
BBX 5 5 1 11
BITMAP
20
58
88
48
70
ENDCHAR
STARTCHAR 02DB
ENCODING 731
SWIDTH 315 0
DWIDTH 7 0
BBX 5 5 1 -5
BITMAP
40
C0
C0
E0
78
ENDCHAR
STARTCHAR 02DC
ENCODING 732
SWIDTH 315 0
DWIDTH 7 0
BBX 7 3 0 12
BITMAP
70
7E
9E
ENDCHAR
STARTCHAR 02DD
ENCODING 733
SWIDTH 315 0
DWIDTH 7 0
BBX 7 4 1 11
BITMAP
66
6C
48
88
ENDCHAR
STARTCHAR 0300
ENCODING 768
SWIDTH 0 0
DWIDTH 0 0
BBX 4 4 -6 16
BITMAP
E0
60
30
10
ENDCHAR
STARTCHAR 0301
ENCODING 769
SWIDTH 0 0
DWIDTH 0 0
BBX 4 4 -4 16
BITMAP
70
E0
C0
80
ENDCHAR
STARTCHAR 0303
ENCODING 771
SWIDTH 0 0
DWIDTH 0 0
BBX 7 3 -9 16
BITMAP
72
FE
9C
ENDCHAR
STARTCHAR 0309
ENCODING 777
SWIDTH 0 0
DWIDTH 0 0
BBX 5 3 -5 16
BITMAP
F0
98
30
ENDCHAR
STARTCHAR 0323
ENCODING 803
SWIDTH 0 0
DWIDTH 0 0
BBX 3 4 -11 -5
BITMAP
60
E0
E0
60
ENDCHAR
STARTCHAR 037E
ENCODING 894
SWIDTH 315 0
DWIDTH 7 0
BBX 4 14 2 -4
BITMAP
E0
E0
E0
00
00
00
00
E0
F0
F0
30
20
40
80
ENDCHAR
STARTCHAR 0384
ENCODING 900
SWIDTH 315 0
DWIDTH 7 0
BBX 4 4 2 11
BITMAP
70
60
40
80
ENDCHAR
STARTCHAR 0385
ENCODING 901
SWIDTH 315 0
DWIDTH 7 0
BBX 10 4 -1 11
BITMAP
0E00
CDC0
D9C0
5080
ENDCHAR
STARTCHAR 0386
ENCODING 902
SWIDTH 720 0
DWIDTH 16 0
BBX 14 15 1 0
BITMAP
3A00
3300
6300
4780
0780
0BC0
0BC0
09C0
11E0
10E0
3FF0
2070
4078
4078
E07C
ENDCHAR
STARTCHAR 0387
ENCODING 903
SWIDTH 315 0
DWIDTH 7 0
BBX 3 3 2 7
BITMAP
E0
E0
E0
ENDCHAR
STARTCHAR 0388
ENCODING 904
SWIDTH 810 0
DWIDTH 18 0
BBX 18 15 -1 0
BITMAP
7FFF80
C3C380
83C180
03C080
03C480
03C400
03CC00
03FC00
03CC00
03C400
03C440
03C040
03C080
03C180
07FF80
ENDCHAR
STARTCHAR 0389
ENCODING 905
SWIDTH 900 0
DWIDTH 20 0
BBX 21 15 -1 0
BITMAP
7FF7F8
C3C1E0
83C1E0
03C1E0
03C1E0
03C1E0
03C1E0
03FFE0
03C1E0
03C1E0
03C1E0
03C1E0
03C1E0
03C1E0
07E3F0
ENDCHAR
STARTCHAR 038A
ENCODING 906
SWIDTH 540 0
DWIDTH 12 0
BBX 12 15 -1 0
BITMAP
7FF0
C3C0
83C0
03C0
03C0
03C0
03C0
03C0
03C0
03C0
03C0
03C0
03C0
03C0
07E0
ENDCHAR
STARTCHAR 038C
ENCODING 908
SWIDTH 765 0
DWIDTH 17 0
BBX 17 15 -1 0
BITMAP
71F800
E70E00
CE0700
9C0700
3C0780
3C0780
3C0780
3C0380
3C0380
3C0780
3C0780
1C0700
1E0700
0E0E00
03F800
ENDCHAR
STARTCHAR 038E
ENCODING 910
SWIDTH 855 0
DWIDTH 19 0
BBX 20 15 -1 0
BITMAP
7FE1F0
C3C060
81C040
01E080
00F080
00F100
007A00
007A00
003C00
003C00
003C00
003C00
003C00
003C00
007E00
ENDCHAR
STARTCHAR 038F
ENCODING 911
SWIDTH 810 0
DWIDTH 18 0
BBX 18 15 -1 0
BITMAP
73FC00
C70E00
8E0700
1C0780
3C0380
3C0380
3C0380
1C0380
1C0780
0E0700
060E00
011040
3F0FC0
3F1FC0
3F1FC0
ENDCHAR
STARTCHAR 0390
ENCODING 912
SWIDTH 315 0
DWIDTH 7 0
BBX 10 15 -2 0
BITMAP
0700
ECC0
E8C0
4800
0000
1E00
0E00
0E00
0E00
0E00
0E00
0E00
0E80
0E80
0F00
ENDCHAR
STARTCHAR 0391
ENCODING 913
SWIDTH 720 0
DWIDTH 16 0
BBX 14 15 1 0
BITMAP
0200
0300
0300
0780
0780
0BC0
0BC0
09C0
11E0
10E0
3FF0
2070
4078
4078
E07C
ENDCHAR
STARTCHAR 0392
ENCODING 914
SWIDTH 675 0
DWIDTH 15 0
BBX 14 15 0 0
BITMAP
FFC0
3CF0
3C78
3C38
3C38
3C78
3CF0
3FE0
3C78
3C3C
3C3C
3C3C
3C3C
3C78
7FE0
ENDCHAR
STARTCHAR 0393
ENCODING 915
SWIDTH 630 0
DWIDTH 14 0
BBX 13 15 0 0
BITMAP
FFF8
3C08
3C08
3C08
3C00
3C00
3C00
3C00
3C00
3C00
3C00
3C00
3C00
3C00
7E00
ENDCHAR
STARTCHAR 0394
ENCODING 916
SWIDTH 630 0
DWIDTH 14 0
BBX 12 15 1 0
BITMAP
0400
0600
0600
0F00
0F00
1700
1780
1380
23C0
23C0
41C0
41E0
80E0
80F0
FFF0
ENDCHAR
STARTCHAR 0395
ENCODING 917
SWIDTH 675 0
DWIDTH 15 0
BBX 14 15 0 0
BITMAP
FFF8
3C38
1C08
1C08
1C48
1C40
1CC0
1FC0
1CC0
1C40
1C44
1C04
1C0C
3C18
7FF8
ENDCHAR
STARTCHAR 0396
ENCODING 918
SWIDTH 675 0
DWIDTH 15 0
BBX 13 15 1 0
BITMAP
7FF0
60F0
41E0
81E0
03C0
0780
0780
0F00
1E00
1E00
3C08
3C08
7808
F038
FFF8
ENDCHAR
STARTCHAR 0397
ENCODING 919
SWIDTH 765 0
DWIDTH 17 0
BBX 17 15 0 0
BITMAP
FF7F80
3C1E00
1C1E00
1C1E00
1C1E00
1C1E00
1C1E00
1FFE00
1C1E00
1C1E00
1C1E00
1C1E00
1C1E00
3C1E00
7E3F00
ENDCHAR
STARTCHAR 0398
ENCODING 920
SWIDTH 765 0
DWIDTH 17 0
BBX 15 15 1 0
BITMAP
07E0
1C38
381C
701C
F01E
F45E
F7DE
F7CE
F7CE
F45E
F01E
701C
781C
3838
0FE0
ENDCHAR
STARTCHAR 0399
ENCODING 921
SWIDTH 405 0
DWIDTH 9 0
BBX 8 15 0 0
BITMAP
FF
3C
1C
1C
1C
1C
1C
1C
1C
1C
1C
1C
1C
3C
7E
ENDCHAR
STARTCHAR 039A
ENCODING 922
SWIDTH 765 0
DWIDTH 17 0
BBX 17 15 0 0
BITMAP
FF1F80
3C0600
1C0C00
1C1000
1C2000
1CC000
1DC000
1FE000
1DE000
1CF000
1C7800
1C7C00
1C3C00
1C1E00
7E1F80
ENDCHAR
STARTCHAR 039B
ENCODING 923
SWIDTH 720 0
DWIDTH 16 0
BBX 14 15 1 0
BITMAP
0100
0300
0300
0780
0780
0BC0
0BC0
11E0
11E0
10E0
20F0
2070
4078
4078
E07C
ENDCHAR
STARTCHAR 039C
ENCODING 924
SWIDTH 945 0
DWIDTH 21 0
BBX 21 15 0 0
BITMAP
FE03F8
3E03E0
2E03C0
2F05C0
2705C0
2789C0
2789C0
23D1C0
23D1C0
21D1C0
21E1C0
20E1C0
20C1C0
20C1E0
7043F0
ENDCHAR
STARTCHAR 039D
ENCODING 925
SWIDTH 720 0
DWIDTH 16 0
BBX 16 15 0 0
BITMAP
FC1F
3C04
3E04
2F04
2F84
27C4
23C4
21E4
20F4
20FC
207C
203C
201C
200C
7804
ENDCHAR
STARTCHAR 039E
ENCODING 926
SWIDTH 675 0
DWIDTH 15 0
BBX 13 15 1 0
BITMAP
FFF8
FFF8
FFF8
8008
8008
2040
1FC0
1FC0
1FC0
2040
8008
8008
FFF8
FFF8
FFF8
ENDCHAR
STARTCHAR 039F
ENCODING 927
SWIDTH 765 0
DWIDTH 17 0
BBX 15 15 1 0
BITMAP
07E0
1C38
381C
701C
F01E
F01E
F00E
F00E
F00E
F01E
F01E
701E
781C
3838
0FF0
ENDCHAR
STARTCHAR 03A0
ENCODING 928
SWIDTH 765 0
DWIDTH 17 0
BBX 17 15 0 0
BITMAP
FFFF80
3C1E00
3C1E00
3C1E00
3C1E00
3C1E00
3C1E00
3C1E00
3C1E00
3C1E00
3C1E00
3C1E00
3C1E00
3C1E00
7E3F00
ENDCHAR
STARTCHAR 03A1
ENCODING 929
SWIDTH 630 0
DWIDTH 14 0
BBX 12 15 1 0
BITMAP
FF00
79E0
38E0
38F0
38F0
38F0
38E0
3BC0
3C00
3800
3800
3800
3800
3800
7C00
ENDCHAR
STARTCHAR 03A3
ENCODING 931
SWIDTH 675 0
DWIDTH 15 0
BBX 14 15 0 0
BITMAP
FFF8
7818
3C08
1C08
1E08
0F00
0700
0600
0400
0400
0804
1004
3FFC
7FFC
7FF8
ENDCHAR
STARTCHAR 03A4
ENCODING 932
SWIDTH 675 0
DWIDTH 15 0
BBX 13 15 1 0
BITMAP
FFF8
C718
8708
8708
0700
0700
0700
0700
0700
0700
0700
0700
0700
0700
0F80
ENDCHAR
STARTCHAR 03A5
ENCODING 933
SWIDTH 720 0
DWIDTH 16 0
BBX 16 15 0 0
BITMAP
FE1F
3C04
3C04
1E08
1E10
0F10
0720
07A0
03C0
03C0
03C0
03C0
03C0
03C0
07E0
ENDCHAR
STARTCHAR 03A6
ENCODING 934
SWIDTH 810 0
DWIDTH 18 0
BBX 17 15 1 0
BITMAP
0FF000
03C000
0FF000
3BCC00
73CE00
F3C700
E3C700
E3C780
E3C700
F3C700
73C700
3BCE00
0FF800
03C000
07E000
ENDCHAR
STARTCHAR 03A7
ENCODING 935
SWIDTH 720 0
DWIDTH 16 0
BBX 15 15 0 0
BITMAP
FF3E
3C08
1E18
1E10
0F20
07C0
0780
03C0
01E0
03E0
04F0
0878
107C
303C
787E
ENDCHAR
STARTCHAR 03A8
ENCODING 936
SWIDTH 765 0
DWIDTH 17 0
BBX 17 15 0 0
BITMAP
E7FB80
71E700
79C700
79CF00
39CF00
39CF00
39CE00
1DCC00
07F000
01C000
01C000
01C000
01C000
01C000
03F000
ENDCHAR
STARTCHAR 03A9
ENCODING 937
SWIDTH 810 0
DWIDTH 18 0
BBX 16 15 1 0
BITMAP
0FE0
1C38
381C
701E
F00E
F00E
F00E
700E
701E
381C
1838
0441
FC3F
FC7F
FC7F
ENDCHAR
STARTCHAR 03AA
ENCODING 938
SWIDTH 405 0
DWIDTH 9 0
BBX 8 19 0 0
BITMAP
66
77
66
00
FF
3C
1C
1C
1C
1C
1C
1C
1C
1C
1C
1C
1C
3C
7E
ENDCHAR
STARTCHAR 03AB
ENCODING 939
SWIDTH 720 0
DWIDTH 16 0
BBX 16 19 0 0
BITMAP
0660
0660
0660
0000
FE1F
3C04
3C04
1E08
1E10
0F10
0720
07A0
03C0
03C0
03C0
03C0
03C0
03C0
07E0
ENDCHAR
STARTCHAR 03AC
ENCODING 940
SWIDTH 540 0
DWIDTH 12 0
BBX 11 15 1 0
BITMAP
0700
0600
0C00
0800
0000
3DC0
63C0
E3C0
E180
E380
E380
E380
E3A0
67A0
3E60
ENDCHAR
STARTCHAR 03AD
ENCODING 941
SWIDTH 450 0
DWIDTH 10 0
BBX 8 15 1 0
BITMAP
0E
1C
18
10
00
7F
E3
E0
60
3C
70
E0
E3
E3
7E
ENDCHAR
STARTCHAR 03AE
ENCODING 942
SWIDTH 585 0
DWIDTH 13 0
BBX 11 20 0 -5
BITMAP
0380
0300
0600
0400
0000
7BC0
BCE0
B8E0
38E0
38E0
38E0
38E0
38E0
38E0
38E0
00E0
00E0
00E0
00E0
00E0
ENDCHAR
STARTCHAR 03AF
ENCODING 943
SWIDTH 315 0
DWIDTH 7 0
BBX 6 15 1 0
BITMAP
38
30
20
40
00
F0
70
70
70
70
70
70
74
74
78
ENDCHAR
STARTCHAR 03B0
ENCODING 944
SWIDTH 540 0
DWIDTH 12 0
BBX 11 15 0 0
BITMAP
0700
66E0
6CE0
2840
0000
7980
B8C0
B840
3860
3860
3860
3840
38C0
18C0
0F80
ENDCHAR
STARTCHAR 03B1
ENCODING 945
SWIDTH 540 0
DWIDTH 12 0
BBX 11 10 1 0
BITMAP
3DC0
63C0
E3C0
E180
E380
E380
E380
E3A0
67A0
3E60
ENDCHAR
STARTCHAR 03B2
ENCODING 946
SWIDTH 540 0
DWIDTH 12 0
BBX 10 20 1 -5
BITMAP
3F00
7380
7380
7380
F380
F300
FF00
F180
F180
F1C0
F1C0
F1C0
F1C0
F380
FF00
F000
F000
E000
E000
E000
ENDCHAR
STARTCHAR 03B3
ENCODING 947
SWIDTH 450 0
DWIDTH 10 0
BBX 10 15 0 -5
BITMAP
71C0
F180
9380
0B00
0B00
0A00
0E00
0600
0400
0C00
0C00
0C00
1C00
1C00
0800
ENDCHAR
STARTCHAR 03B4
ENCODING 948
SWIDTH 540 0
DWIDTH 12 0
BBX 10 15 1 0
BITMAP
3E00
4700
4300
3000
1C00
0F00
3780
6380
E380
E3C0
E3C0
E380
E380
6300
3E00
ENDCHAR
STARTCHAR 03B5
ENCODING 949
SWIDTH 450 0
DWIDTH 10 0
BBX 8 10 1 0
BITMAP
7F
E3
E0
60
3C
70
E0
E3
E3
7E
ENDCHAR
STARTCHAR 03B6
ENCODING 950
SWIDTH 405 0
DWIDTH 9 0
BBX 8 20 1 -5
BITMAP
46
4E
7C
20
40
40
80
80
80
80
80
80
FE
FF
7F
01
01
01
1E
0C
ENDCHAR
STARTCHAR 03B7
ENCODING 951
SWIDTH 585 0
DWIDTH 13 0
BBX 11 15 0 -5
BITMAP
7BC0
BCE0
B8E0
38E0
38E0
38E0
38E0
38E0
38E0
38E0
00E0
00E0
00E0
00E0
00E0
ENDCHAR
STARTCHAR 03B8
ENCODING 952
SWIDTH 540 0
DWIDTH 12 0
BBX 10 15 1 0
BITMAP
1E00
3300
6380
E380
E380
E3C0
E3C0
FFC0
E3C0
E3C0
E380
E380
6380
7300
3E00
ENDCHAR
STARTCHAR 03B9
ENCODING 953
SWIDTH 315 0
DWIDTH 7 0
BBX 6 10 1 0
BITMAP
F0
70
70
70
70
70
70
74
74
78
ENDCHAR
STARTCHAR 03BA
ENCODING 954
SWIDTH 540 0
DWIDTH 12 0
BBX 11 10 1 0
BITMAP
F1E0
7360
7200
7600
7E00
7700
7780
7380
73C0
71E0
ENDCHAR
STARTCHAR 03BB
ENCODING 955
SWIDTH 495 0
DWIDTH 11 0
BBX 10 15 1 0
BITMAP
6000
F000
9000
1000
0800
0800
1800
1800
3C00
3C00
7400
7400
F240
E3C0
E1C0
ENDCHAR
STARTCHAR 03BC
ENCODING 956
SWIDTH 585 0
DWIDTH 13 0
BBX 11 15 1 -5
BITMAP
7380
7380
7380
7380
7380
7380
7380
7380
73E0
7DE0
4000
E000
E000
E000
4000
ENDCHAR
STARTCHAR 03BD
ENCODING 957
SWIDTH 450 0
DWIDTH 10 0
BBX 9 10 0 0
BITMAP
F180
7180
7980
3880
3D00
1D00
1E00
0E00
0C00
0C00
ENDCHAR
STARTCHAR 03BE
ENCODING 958
SWIDTH 450 0
DWIDTH 10 0
BBX 9 20 1 -5
BITMAP
4E00
DC00
3800
4000
4000
4F00
3E00
4000
8000
8000
8000
8000
FE00
FF00
7F80
0080
0080
0080
0F00
0E00
ENDCHAR
STARTCHAR 03BF
ENCODING 959
SWIDTH 495 0
DWIDTH 11 0
BBX 9 10 1 0
BITMAP
3E00
6300
E380
E380
E380
E380
E380
E380
6300
3E00
ENDCHAR
STARTCHAR 03C0
ENCODING 960
SWIDTH 540 0
DWIDTH 12 0
BBX 12 10 0 0
BITMAP
3FF0
7FF0
C980
9980
1980
1980
3180
3180
71A0
71C0
ENDCHAR
STARTCHAR 03C1
ENCODING 961
SWIDTH 540 0
DWIDTH 12 0
BBX 10 15 1 -5
BITMAP
3F00
7380
71C0
71C0
71C0
F1C0
F1C0
F180
F380
FF00
E000
E000
E000
E000
E000
ENDCHAR
STARTCHAR 03C2
ENCODING 962
SWIDTH 405 0
DWIDTH 9 0
BBX 8 15 1 -5
BITMAP
3F
67
40
80
80
80
80
FE
FF
7F
01
01
01
1E
0C
ENDCHAR
STARTCHAR 03C3
ENCODING 963
SWIDTH 540 0
DWIDTH 12 0
BBX 11 10 1 0
BITMAP
1FE0
7FE0
FA00
E300
E180
E1C0
E1C0
E180
7380
3F00
ENDCHAR
STARTCHAR 03C4
ENCODING 964
SWIDTH 450 0
DWIDTH 10 0
BBX 10 10 0 0
BITMAP
3FC0
7FC0
CC00
0C00
0C00
0C00
0C00
0C00
0F00
0F00
ENDCHAR
STARTCHAR 03C5
ENCODING 965
SWIDTH 540 0
DWIDTH 12 0
BBX 11 10 0 0
BITMAP
7980
B8C0
B840
3860
3860
3860
3840
38C0
18C0
0F80
ENDCHAR
STARTCHAR 03C6
ENCODING 966
SWIDTH 630 0
DWIDTH 14 0
BBX 12 15 1 -5
BITMAP
33C0
66E0
E670
E670
E670
E670
E670
6660
76E0
3F80
0600
0600
0600
0600
0600
ENDCHAR
STARTCHAR 03C7
ENCODING 967
SWIDTH 450 0
DWIDTH 10 0
BBX 10 15 0 -5
BITMAP
71C0
F380
9380
0B00
0F00
0600
0E00
0C00
1C00
1C00
3A00
3A00
7340
71C0
E080
ENDCHAR
STARTCHAR 03C8
ENCODING 968
SWIDTH 675 0
DWIDTH 15 0
BBX 13 15 1 -5
BITMAP
E318
E338
E338
7338
7338
7370
7370
7370
3B60
1BC0
0700
0300
0300
0300
0300
ENDCHAR
STARTCHAR 03C9
ENCODING 969
SWIDTH 720 0
DWIDTH 16 0
BBX 14 10 1 0
BITMAP
3870
7318
E31C
E31C
E31C
E31C
E31C
E11C
7318
3CF8
ENDCHAR
STARTCHAR 03CA
ENCODING 970
SWIDTH 315 0
DWIDTH 7 0
BBX 7 15 0 0
BITMAP
CC
EE
CC
00
00
78
38
38
38
38
38
38
3A
3A
3C
ENDCHAR
STARTCHAR 03CB
ENCODING 971
SWIDTH 540 0
DWIDTH 12 0
BBX 11 15 0 0
BITMAP
1980
3B80
1980
0000
0000
7980
B8C0
B840
3860
3860
3860
3840
38C0
18C0
0F80
ENDCHAR
STARTCHAR 03CC
ENCODING 972
SWIDTH 495 0
DWIDTH 11 0
BBX 9 15 1 0
BITMAP
0E00
0C00
0800
1000
0000
3E00
6300
E380
E380
E380
E380
E380
E380
6300
3E00
ENDCHAR
STARTCHAR 03CD
ENCODING 973
SWIDTH 540 0
DWIDTH 12 0
BBX 11 15 0 0
BITMAP
0380
0600
0400
0000
0000
7980
B8C0
B840
3860
3860
3860
3840
38C0
18C0
0F80
ENDCHAR
STARTCHAR 03CE
ENCODING 974
SWIDTH 720 0
DWIDTH 16 0
BBX 14 15 1 0
BITMAP
01C0
0180
0300
0200
0000
3870
7318
E31C
E31C
E31C
E31C
E31C
E11C
7318
3CF8
ENDCHAR
STARTCHAR 0401
ENCODING 1025
SWIDTH 675 0
DWIDTH 15 0
BBX 14 19 0 0
BITMAP
0CE0
0EE0
0CC0
0000
FFF8
3C38
1C08
1C08
1C48
1C40
1CC0
1FC0
1CC0
1C40
1C44
1C04
1C0C
3C18
7FF8
ENDCHAR
STARTCHAR 0402
ENCODING 1026
SWIDTH 810 0
DWIDTH 18 0
BBX 16 15 1 0
BITMAP
FFF0
CE30
8E10
0E00
0E00
0E7C
0FFE
0F0E
0E0F
0E0F
0E0F
0E0F
0E0E
0E0E
1F3C
ENDCHAR
STARTCHAR 0403
ENCODING 1027
SWIDTH 630 0
DWIDTH 14 0
BBX 13 20 0 0
BITMAP
01C0
0180
0300
0200
0000
FFF8
3C08
3C08
3C08
3C00
3C00
3C00
3C00
3C00
3C00
3C00
3C00
3C00
3C00
7E00
ENDCHAR
STARTCHAR 0404
ENCODING 1028
SWIDTH 675 0
DWIDTH 15 0
BBX 13 15 1 0
BITMAP
0FC8
1C38
3808
7008
F008
F000
F000
FFC0
F000
F000
F000
7000
7808
3C10
0FE0
ENDCHAR
STARTCHAR 0405
ENCODING 1029
SWIDTH 540 0
DWIDTH 12 0
BBX 10 15 1 0
BITMAP
3E00
6180
6080
E040
F040
F800
7E00
3F80
1FC0
07C0
81C0
80C0
C0C0
E0C0
BF00
ENDCHAR
STARTCHAR 0406
ENCODING 1030
SWIDTH 405 0
DWIDTH 9 0
BBX 8 15 0 0
BITMAP
FF
3C
1C
1C
1C
1C
1C
1C
1C
1C
1C
1C
1C
3C
7E
ENDCHAR
STARTCHAR 0407
ENCODING 1031
SWIDTH 405 0
DWIDTH 9 0
BBX 8 19 0 0
BITMAP
66
77
66
00
FF
3C
1C
1C
1C
1C
1C
1C
1C
1C
1C
1C
1C
3C
7E
ENDCHAR
STARTCHAR 0408
ENCODING 1032
SWIDTH 495 0
DWIDTH 11 0
BBX 11 15 0 0
BITMAP
1FE0
0780
0780
0780
0780
0780
0780
0780
0780
0780
0780
E780
E780
6700
3E00
ENDCHAR
STARTCHAR 0409
ENCODING 1033
SWIDTH 990 0
DWIDTH 22 0
BBX 22 15 0 0
BITMAP
0FFF00
023C00
023C00
023C00
023C00
023C00
023C00
023FE0
023CF8
023C78
023C3C
043C3C
E43C78
EC3C78
787FE0
ENDCHAR
STARTCHAR 040A
ENCODING 1034
SWIDTH 990 0
DWIDTH 22 0
BBX 22 15 0 0
BITMAP
FFFF00
3C3C00
1C3C00
1C3C00
1C3C00
1C3C00
1C3C00
1FFFE0
1C3CF8
1C3C78
1C3C7C
1C3C3C
1C3C78
3C3C78
7E7FE0
ENDCHAR
STARTCHAR 040B
ENCODING 1035
SWIDTH 810 0
DWIDTH 18 0
BBX 15 15 1 0
BITMAP
FFE0
CE60
8E20
0E00
0E00
0E78
0FFC
0F1E
0E1E
0E1E
0E1E
0E1E
0E1E
0E1E
1F3E
ENDCHAR
STARTCHAR 040C
ENCODING 1036
SWIDTH 720 0
DWIDTH 16 0
BBX 16 20 0 0
BITMAP
00E0
00C0
0180
0100
0000
FF0E
3C1E
1C27
1C26
1C20
1C40
1C40
1FC0
1DE0
1CF0
1CF0
1C78
1C78
3C3C
7E1E
ENDCHAR
STARTCHAR 040D
ENCODING 1037
SWIDTH 765 0
DWIDTH 17 0
BBX 17 20 0 0
BITMAP
070000
038000
018000
008000
000000
FF7F80
3C1E00
1C1E00
1C1E00
1C3E00
1C7E00
1C5E00
1C9E00
1C9E00
1D1E00
1E1E00
1E1E00
1C1E00
3C1E00
7E3F00
ENDCHAR
STARTCHAR 040E
ENCODING 1038
SWIDTH 720 0
DWIDTH 16 0
BBX 16 19 0 0
BITMAP
0618
0638
03F0
0000
FF1F
3C06
1C04
1E08
0F08
0F10
0790
07A0
03E0
01C0
01C0
0080
1880
1D00
1F00
ENDCHAR
STARTCHAR 040F
ENCODING 1039
SWIDTH 765 0
DWIDTH 17 0
BBX 17 19 0 -4
BITMAP
FF7F80
3C1E00
3C1E00
3C1E00
3C1E00
3C1E00
3C1E00
3C1E00
3C1E00
3C1E00
3C1E00
3C1E00
3C1E00
3C1E00
3FFF00
41C000
008000
008000
008000
ENDCHAR
STARTCHAR 0410
ENCODING 1040
SWIDTH 720 0
DWIDTH 16 0
BBX 14 15 1 0
BITMAP
0200
0300
0300
0780
0780
0BC0
0BC0
09C0
11E0
10E0
3FF0
2070
4078
4078
E07C
ENDCHAR
STARTCHAR 0411
ENCODING 1041
SWIDTH 675 0
DWIDTH 15 0
BBX 14 15 0 0
BITMAP
FFF8
3C18
3C08
3C08
3C00
3C00
3C00
3FE0
3C78
3C3C
3C3C
3C3C
3C3C
3C78
7FF0
ENDCHAR
STARTCHAR 0412
ENCODING 1042
SWIDTH 675 0
DWIDTH 15 0
BBX 14 15 0 0
BITMAP
FFC0
3CF0
3C78
3C38
3C38
3C78
3CF0
3FE0
3C78
3C3C
3C3C
3C3C
3C3C
3C78
7FE0
ENDCHAR
STARTCHAR 0413
ENCODING 1043
SWIDTH 630 0
DWIDTH 14 0
BBX 13 15 0 0
BITMAP
FFF8
3C08
3C08
3C08
3C00
3C00
3C00
3C00
3C00
3C00
3C00
3C00
3C00
3C00
7E00
ENDCHAR
STARTCHAR 0414
ENCODING 1044
SWIDTH 675 0
DWIDTH 15 0
BBX 15 19 0 -4
BITMAP
1FFE
0438
0438
0438
0438
0438
0438
0438
0838
0838
0838
0838
1038
2038
FFFC
E00E
C006
8002
8002
ENDCHAR
STARTCHAR 0415
ENCODING 1045
SWIDTH 675 0
DWIDTH 15 0
BBX 14 15 0 0
BITMAP
FFF8
3C38
1C08
1C08
1C48
1C40
1CC0
1FC0
1CC0
1C40
1C44
1C04
1C0C
3C18
7FF8
ENDCHAR
STARTCHAR 0416
ENCODING 1046
SWIDTH 990 0
DWIDTH 22 0
BBX 21 15 0 0
BITMAP
71FE38
787878
E47898
647898
047900
027900
027900
03FF00
077B80
0F7BC0
0E79C0
1E79E0
1C78E0
3C78F0
78FC78
ENDCHAR
STARTCHAR 0417
ENCODING 1047
SWIDTH 540 0
DWIDTH 12 0
BBX 10 15 1 0
BITMAP
BE00
C780
8780
8380
0380
0780
0700
3E00
0780
0380
03C0
03C0
03C0
8780
7F00
ENDCHAR
STARTCHAR 0418
ENCODING 1048
SWIDTH 765 0
DWIDTH 17 0
BBX 17 15 0 0
BITMAP
FF7F80
3C1E00
1C1E00
1C1E00
1C3E00
1C7E00
1C5E00
1C9E00
1C9E00
1D1E00
1E1E00
1E1E00
1C1E00
3C1E00
7E3F00
ENDCHAR
STARTCHAR 0419
ENCODING 1049
SWIDTH 765 0
DWIDTH 17 0
BBX 17 19 0 0
BITMAP
0E1800
063800
03E000
000000
FF7F80
3C1E00
1C1E00
1C1E00
1C3E00
1C7E00
1C5E00
1C9E00
1C9E00
1D1E00
1E1E00
1E1E00
1C1E00
3C1E00
7E3F00
ENDCHAR
STARTCHAR 041A
ENCODING 1050
SWIDTH 720 0
DWIDTH 16 0
BBX 16 15 0 0
BITMAP
FF0E
3C1E
1C27
1C26
1C20
1C40
1C40
1FC0
1DE0
1CF0
1CF0
1C78
1C78
3C3C
7E1E
ENDCHAR
STARTCHAR 041B
ENCODING 1051
SWIDTH 765 0
DWIDTH 17 0
BBX 16 15 0 0
BITMAP
0FFF
023C
023C
023C
023C
023C
023C
023C
023C
023C
023C
043C
E43C
EC3C
783E
ENDCHAR
STARTCHAR 041C
ENCODING 1052
SWIDTH 945 0
DWIDTH 21 0
BBX 21 15 0 0
BITMAP
FE03F8
3E03E0
2E03C0
2F05C0
2705C0
2789C0
2789C0
23D1C0
23D1C0
21D1C0
21E1C0
20E1C0
20C1C0
20C1E0
7043F0
ENDCHAR
STARTCHAR 041D
ENCODING 1053
SWIDTH 765 0
DWIDTH 17 0
BBX 17 15 0 0
BITMAP
FF7F80
3C1E00
1C1E00
1C1E00
1C1E00
1C1E00
1C1E00
1FFE00
1C1E00
1C1E00
1C1E00
1C1E00
1C1E00
3C1E00
7E3F00
ENDCHAR
STARTCHAR 041E
ENCODING 1054
SWIDTH 765 0
DWIDTH 17 0
BBX 15 15 1 0
BITMAP
07E0
1C38
381C
701C
F01E
F01E
F00E
F00E
F00E
F01E
F01E
701E
781C
3838
0FF0
ENDCHAR
STARTCHAR 041F
ENCODING 1055
SWIDTH 765 0
DWIDTH 17 0
BBX 17 15 0 0
BITMAP
FFFF80
3C1E00
3C1E00
3C1E00
3C1E00
3C1E00
3C1E00
3C1E00
3C1E00
3C1E00
3C1E00
3C1E00
3C1E00
3C1E00
7E3F00
ENDCHAR
STARTCHAR 0420
ENCODING 1056
SWIDTH 630 0
DWIDTH 14 0
BBX 12 15 1 0
BITMAP
FF00
79E0
38E0
38F0
38F0
38F0
38E0
3BC0
3C00
3800
3800
3800
3800
3800
7C00
ENDCHAR
STARTCHAR 0421
ENCODING 1057
SWIDTH 720 0
DWIDTH 16 0
BBX 14 15 1 0
BITMAP
07E4
1E1C
380C
7804
7004
F000
F000
F000
F000
F000
F000
7000
7804
3C08
0FF0
ENDCHAR
STARTCHAR 0422
ENCODING 1058
SWIDTH 675 0
DWIDTH 15 0
BBX 13 15 1 0
BITMAP
FFF8
C718
8708
8708
0700
0700
0700
0700
0700
0700
0700
0700
0700
0700
0F80
ENDCHAR
STARTCHAR 0423
ENCODING 1059
SWIDTH 720 0
DWIDTH 16 0
BBX 16 15 0 0
BITMAP
FF1F
3C06
1C04
1E08
0F08
0F10
0790
07A0
03E0
01C0
01C0
0080
1880
1D00
1F00
ENDCHAR
STARTCHAR 0424
ENCODING 1060
SWIDTH 855 0
DWIDTH 19 0
BBX 17 15 1 0
BITMAP
07F000
01C000
07F000
39CE00
71C700
F1C780
E1C380
E1C380
E1C380
F1C780
71C700
39CE00
0FF800
01C000
03E000
ENDCHAR
STARTCHAR 0425
ENCODING 1061
SWIDTH 720 0
DWIDTH 16 0
BBX 15 15 0 0
BITMAP
FF3E
3C08
1E18
1E10
0F20
07C0
0780
03C0
01E0
03E0
04F0
0878
107C
303C
787E
ENDCHAR
STARTCHAR 0426
ENCODING 1062
SWIDTH 765 0
DWIDTH 17 0
BBX 17 19 0 -4
BITMAP
FF7F80
3C1E00
3C1E00
3C1E00
3C1E00
3C1E00
3C1E00
3C1E00
3C1E00
3C1E00
3C1E00
3C1E00
3C1E00
3C1E00
3FFF00
400380
000180
000080
000080
ENDCHAR
STARTCHAR 0427
ENCODING 1063
SWIDTH 720 0
DWIDTH 16 0
BBX 16 15 0 0
BITMAP
FE7F
3C3C
3C3C
3C3C
3C3C
3C3C
3C3C
3C3C
1FFC
063C
003C
003C
003C
003C
007E
ENDCHAR
STARTCHAR 0428
ENCODING 1064
SWIDTH 1080 0
DWIDTH 24 0
BBX 22 15 1 0
BITMAP
FEFEFC
787878
387878
387878
387878
387878
387878
387878
387878
387878
387878
387878
387878
787878
7FFFF8
ENDCHAR
STARTCHAR 0429
ENCODING 1065
SWIDTH 1080 0
DWIDTH 24 0
BBX 22 19 1 -4
BITMAP
FEFEFC
787878
387878
387878
387878
387878
387878
387878
387878
387878
387878
387878
387878
787878
7FFFF8
00000C
000004
000004
000004
ENDCHAR
STARTCHAR 042A
ENCODING 1066
SWIDTH 765 0
DWIDTH 17 0
BBX 15 15 1 0
BITMAP
FF80
CE00
8E00
8E00
0E00
0E00
0E00
0FF8
0E3C
0E1E
0E1E
0E1E
0E1E
0E1C
1FF8
ENDCHAR
STARTCHAR 042B
ENCODING 1067
SWIDTH 990 0
DWIDTH 22 0
BBX 21 15 0 0
BITMAP
FF03F8
3C00E0
1C00E0
1C00E0
1C00E0
1C00E0
1C00E0
1FE0E0
1C78E0
1C3CE0
1C3CE0
1C3CE0
1C3CE0
3C78E0
7FF1F0
ENDCHAR
STARTCHAR 042C
ENCODING 1068
SWIDTH 675 0
DWIDTH 15 0
BBX 14 15 0 0
BITMAP
FF00
3C00
3C00
3C00
3C00
3C00
3C00
3FE0
3C78
3C3C
3C3C
3C3C
3C3C
3C78
7FF0
ENDCHAR
STARTCHAR 042D
ENCODING 1069
SWIDTH 675 0
DWIDTH 15 0
BBX 13 15 1 0
BITMAP
9F80
E1C0
C0E0
8070
8078
0078
0078
1FF8
0078
0078
0078
0070
80F0
40E0
3F80
ENDCHAR
STARTCHAR 042E
ENCODING 1070
SWIDTH 1125 0
DWIDTH 25 0
BBX 24 15 0 0
BITMAP
FF07E0
3C0C38
3C3C1C
3C380E
3C780F
3C780F
3C780F
3FF00F
3C780F
3C780F
3C780F
3C380E
3C381E
3C1C1C
7E07F0
ENDCHAR
STARTCHAR 042F
ENCODING 1071
SWIDTH 720 0
DWIDTH 16 0
BBX 16 15 0 0
BITMAP
03FF
1E3C
1C3C
3C3C
3C3C
3C3C
1C3C
0FBC
07FC
0F3C
0F3C
1E3C
3C3C
783C
F87E
ENDCHAR
STARTCHAR 0430
ENCODING 1072
SWIDTH 495 0
DWIDTH 11 0
BBX 10 10 1 0
BITMAP
7F00
E700
E700
6700
1F00
3700
6700
E700
FF40
F380
ENDCHAR
STARTCHAR 0431
ENCODING 1073
SWIDTH 495 0
DWIDTH 11 0
BBX 9 15 1 0
BITMAP
0F80
3F00
7E00
4000
8000
BE00
E300
E380
E380
E380
E380
E380
E380
6300
3E00
ENDCHAR
STARTCHAR 0432
ENCODING 1074
SWIDTH 540 0
DWIDTH 12 0
BBX 10 10 1 0
BITMAP
FF00
7380
7180
7380
7F00
7380
71C0
71C0
71C0
FF80
ENDCHAR
STARTCHAR 0433
ENCODING 1075
SWIDTH 450 0
DWIDTH 10 0
BBX 9 10 1 0
BITMAP
FF80
7080
7080
7000
7000
7000
7000
7000
7000
F800
ENDCHAR
STARTCHAR 0434
ENCODING 1076
SWIDTH 495 0
DWIDTH 11 0
BBX 10 12 0 -3
BITMAP
3FC0
1380
1380
1380
2380
2380
2380
2380
4380
FFC0
C040
8040
ENDCHAR
STARTCHAR 0435
ENCODING 1077
SWIDTH 450 0
DWIDTH 10 0
BBX 8 10 1 0
BITMAP
3E
67
E3
E3
FF
E0
E0
F1
7B
3E
ENDCHAR
STARTCHAR 0436
ENCODING 1078
SWIDTH 720 0
DWIDTH 16 0
BBX 16 10 0 0
BITMAP
73CE
F1CF
49D2
09D0
07E0
1DF8
39DC
39DC
71CE
73CE
ENDCHAR
STARTCHAR 0437
ENCODING 1079
SWIDTH 405 0
DWIDTH 9 0
BBX 8 10 0 0
BITMAP
7E
47
07
06
1C
07
07
07
87
7E
ENDCHAR
STARTCHAR 0438
ENCODING 1080
SWIDTH 585 0
DWIDTH 13 0
BBX 10 10 1 0
BITMAP
F3C0
71C0
73C0
73C0
75C0
79C0
79C0
71C0
71C0
F3C0
ENDCHAR
STARTCHAR 0439
ENCODING 1081
SWIDTH 585 0
DWIDTH 13 0
BBX 10 15 1 0
BITMAP
2080
3180
3380
0C00
0000
F3C0
71C0
73C0
73C0
75C0
79C0
79C0
71C0
71C0
F3C0
ENDCHAR
STARTCHAR 043A
ENCODING 1082
SWIDTH 585 0
DWIDTH 13 0
BBX 11 10 1 0
BITMAP
F1E0
7160
7260
7200
7C00
7700
7780
7380
71C0
F1E0
ENDCHAR
STARTCHAR 043B
ENCODING 1083
SWIDTH 540 0
DWIDTH 12 0
BBX 11 10 0 0
BITMAP
1FE0
08E0
08E0
08E0
08E0
08E0
08E0
C8E0
F0E0
71E0
ENDCHAR
STARTCHAR 043C
ENCODING 1084
SWIDTH 675 0
DWIDTH 15 0
BBX 13 10 1 0
BITMAP
F078
7870
78F0
7D70
5D70
5D70
4E70
4E70
4C70
C478
ENDCHAR
STARTCHAR 043D
ENCODING 1085
SWIDTH 585 0
DWIDTH 13 0
BBX 10 10 1 0
BITMAP
F3C0
71C0
71C0
71C0
7FC0
71C0
71C0
71C0
71C0
F3C0
ENDCHAR
STARTCHAR 043E
ENCODING 1086
SWIDTH 495 0
DWIDTH 11 0
BBX 9 10 1 0
BITMAP
3E00
6300
E380
E380
E380
E380
E380
E380
6300
3E00
ENDCHAR
STARTCHAR 043F
ENCODING 1087
SWIDTH 585 0
DWIDTH 13 0
BBX 11 10 1 0
BITMAP
FFE0
71C0
71C0
71C0
71C0
71C0
71C0
71C0
71C0
F3C0
ENDCHAR
STARTCHAR 0440
ENCODING 1088
SWIDTH 540 0
DWIDTH 12 0
BBX 11 15 0 -5
BITMAP
7FC0
38E0
38E0
38E0
38E0
38E0
38E0
38E0
38E0
3FC0
3800
3800
3800
3800
FC00
ENDCHAR
STARTCHAR 0441
ENCODING 1089
SWIDTH 450 0
DWIDTH 10 0
BBX 8 10 1 0
BITMAP
3E
67
E7
E0
E0
E0
E0
F0
7B
3E
ENDCHAR
STARTCHAR 0442
ENCODING 1090
SWIDTH 495 0
DWIDTH 11 0
BBX 11 10 0 0
BITMAP
FFE0
8E20
8E20
0E00
0E00
0E00
0E00
0E00
0E00
1F00
ENDCHAR
STARTCHAR 0443
ENCODING 1091
SWIDTH 495 0
DWIDTH 11 0
BBX 9 15 1 -5
BITMAP
F180
F080
7100
7900
3A00
3A00
1E00
1C00
0C00
0800
0800
0800
D000
D000
E000
ENDCHAR
STARTCHAR 0444
ENCODING 1092
SWIDTH 675 0
DWIDTH 15 0
BBX 13 20 1 -5
BITMAP
0F00
0700
0700
0700
0700
7FF0
6738
E738
E738
E738
E738
E738
E738
6738
7FF0
0700
0700
0700
0700
0F80
ENDCHAR
STARTCHAR 0445
ENCODING 1093
SWIDTH 495 0
DWIDTH 11 0
BBX 9 10 1 0
BITMAP
FB80
7200
3A00
3C00
1C00
1E00
1E00
2F00
2700
E780
ENDCHAR
STARTCHAR 0446
ENCODING 1094
SWIDTH 585 0
DWIDTH 13 0
BBX 11 12 1 -3
BITMAP
F3C0
71C0
71C0
71C0
71C0
71C0
71C0
71C0
71C0
FFC0
0060
0020
ENDCHAR
STARTCHAR 0447
ENCODING 1095
SWIDTH 585 0
DWIDTH 13 0
BBX 10 10 1 0
BITMAP
F3C0
71C0
71C0
71C0
71C0
3FC0
01C0
01C0
01C0
03C0
ENDCHAR
STARTCHAR 0448
ENCODING 1096
SWIDTH 855 0
DWIDTH 19 0
BBX 16 10 1 0
BITMAP
F3CF
71C7
71C7
71C7
71C7
71C7
71C7
71C7
71C7
FFFF
ENDCHAR
STARTCHAR 0449
ENCODING 1097
SWIDTH 855 0
DWIDTH 19 0
BBX 17 12 1 -3
BITMAP
F3CF00
71C700
71C700
71C700
71C700
71C700
71C700
71C700
71C700
FFFF00
000180
000080
ENDCHAR
STARTCHAR 044A
ENCODING 1098
SWIDTH 585 0
DWIDTH 13 0
BBX 12 10 0 0
BITMAP
FE00
9C00
9C00
1C00
1F80
1CE0
1C70
1C70
1C70
3FE0
ENDCHAR
STARTCHAR 044B
ENCODING 1099
SWIDTH 765 0
DWIDTH 17 0
BBX 15 10 1 0
BITMAP
F81E
701C
701C
701C
7C1C
739C
71DC
71DC
73DC
FF1E
ENDCHAR
STARTCHAR 044C
ENCODING 1100
SWIDTH 540 0
DWIDTH 12 0
BBX 10 10 1 0
BITMAP
F800
7000
7000
7000
7C00
7380
71C0
71C0
73C0
FF00
ENDCHAR
STARTCHAR 044D
ENCODING 1101
SWIDTH 450 0
DWIDTH 10 0
BBX 8 10 1 0
BITMAP
FC
8E
06
07
3F
07
07
0E
0E
FC
ENDCHAR
STARTCHAR 044E
ENCODING 1102
SWIDTH 765 0
DWIDTH 17 0
BBX 15 10 1 0
BITMAP
F8F8
718C
738E
738E
7F8E
738E
738E
738E
718C
F8F8
ENDCHAR
STARTCHAR 044F
ENCODING 1103
SWIDTH 540 0
DWIDTH 12 0
BBX 10 10 1 0
BITMAP
7FC0
E380
E380
E380
7380
3F80
3B80
7380
7380
F7C0
ENDCHAR
STARTCHAR 0451
ENCODING 1105
SWIDTH 450 0
DWIDTH 10 0
BBX 8 15 1 0
BITMAP
66
77
66
00
00
3E
67
E3
E3
FF
E0
E0
F1
7B
3E
ENDCHAR
STARTCHAR 0452
ENCODING 1106
SWIDTH 540 0
DWIDTH 12 0
BBX 10 20 1 -5
BITMAP
F000
7000
FF00
7000
7000
7F80
7380
7180
71C0
71C0
71C0
71C0
71C0
71C0
F980
0380
0380
0300
0200
0C00
ENDCHAR
STARTCHAR 0453
ENCODING 1107
SWIDTH 450 0
DWIDTH 10 0
BBX 9 15 1 0
BITMAP
0E00
1C00
1800
1000
0000
FF80
7080
7080
7000
7000
7000
7000
7000
7000
F800
ENDCHAR
STARTCHAR 0454
ENCODING 1108
SWIDTH 450 0
DWIDTH 10 0
BBX 8 10 1 0
BITMAP
3F
61
E1
E0
F8
E0
E0
E0
61
3E
ENDCHAR
STARTCHAR 0455
ENCODING 1109
SWIDTH 405 0
DWIDTH 9 0
BBX 7 10 1 0
BITMAP
7C
C4
E4
F0
7C
3C
1E
8E
84
FC
ENDCHAR
STARTCHAR 0456
ENCODING 1110
SWIDTH 270 0
DWIDTH 6 0
BBX 4 15 1 0
BITMAP
60
70
70
00
00
F0
70
70
70
70
70
70
70
70
F0
ENDCHAR
STARTCHAR 0457
ENCODING 1111
SWIDTH 270 0
DWIDTH 6 0
BBX 7 15 0 0
BITMAP
CC
CE
CC
00
00
78
38
38
38
38
38
38
38
38
78
ENDCHAR
STARTCHAR 0458
ENCODING 1112
SWIDTH 315 0
DWIDTH 7 0
BBX 7 20 -1 -5
BITMAP
0C
1E
1C
00
00
1C
1C
1C
1C
1C
1C
1C
1C
1C
1C
1C
1C
CC
CC
78
ENDCHAR
STARTCHAR 0459
ENCODING 1113
SWIDTH 765 0
DWIDTH 17 0
BBX 17 10 0 0
BITMAP
1FE000
09E000
09E000
09E000
09F800
09E700
09E780
C9E780
F1E700
71FE00
ENDCHAR
STARTCHAR 045A
ENCODING 1114
SWIDTH 810 0
DWIDTH 18 0
BBX 16 10 1 0
BITMAP
F3C0
71C0
71C0
71C0
7FF0
71CE
71C7
71C7
71CF
F3FC
ENDCHAR
STARTCHAR 045B
ENCODING 1115
SWIDTH 540 0
DWIDTH 12 0
BBX 10 15 1 0
BITMAP
F000
7000
FF00
7000
7000
7780
7B80
71C0
71C0
71C0
71C0
71C0
71C0
71C0
FBC0
ENDCHAR
STARTCHAR 045C
ENCODING 1116
SWIDTH 585 0
DWIDTH 13 0
BBX 11 15 1 0
BITMAP
0700
0600
0400
0800
0000
F1E0
7160
7260
7200
7C00
7700
7780
7380
71C0
F1E0
ENDCHAR
STARTCHAR 045D
ENCODING 1117
SWIDTH 585 0
DWIDTH 13 0
BBX 10 15 1 0
BITMAP
3800
1C00
0C00
0400
0000
F3C0
71C0
73C0
73C0
75C0
79C0
79C0
71C0
71C0
F3C0
ENDCHAR
STARTCHAR 045E
ENCODING 1118
SWIDTH 495 0
DWIDTH 11 0
BBX 9 20 1 -5
BITMAP
6100
6380
3300
0C00
0000
F180
F080
7100
7900
3A00
3A00
1E00
1C00
0C00
0800
0800
0800
D000
D000
E000
ENDCHAR
STARTCHAR 045F
ENCODING 1119
SWIDTH 585 0
DWIDTH 13 0
BBX 10 13 1 -3
BITMAP
F3C0
71C0
71C0
71C0
71C0
71C0
71C0
71C0
71C0
FFC0
0C00
0400
0400
ENDCHAR
STARTCHAR 0490
ENCODING 1168
SWIDTH 540 0
DWIDTH 12 0
BBX 11 17 0 1
BITMAP
0020
0020
FFE0
3C00
3C00
3C00
3C00
3C00
3C00
3C00
3C00
3C00
3C00
3C00
3C00
3C00
7E00
ENDCHAR
STARTCHAR 0491
ENCODING 1169
SWIDTH 405 0
DWIDTH 9 0
BBX 7 12 1 0
BITMAP
02
02
FE
70
70
70
70
70
70
70
70
F8
ENDCHAR
STARTCHAR 0492
ENCODING 1170
SWIDTH 630 0
DWIDTH 14 0
BBX 13 15 0 0
BITMAP
FFF8
3C08
3C08
3C08
3C00
3C00
3C00
FF80
3C00
3C00
3C00
3C00
3C00
3C00
7E00
ENDCHAR
STARTCHAR 0493
ENCODING 1171
SWIDTH 450 0
DWIDTH 10 0
BBX 10 10 0 0
BITMAP
7FC0
3840
3840
3800
FE00
3800
3800
3800
3800
7C00
ENDCHAR
STARTCHAR 0496
ENCODING 1174
SWIDTH 990 0
DWIDTH 22 0
BBX 22 19 0 -4
BITMAP
71FE38
787878
E4789C
647898
047900
027900
027900
03FF00
077B80
0F7BC0
0E79C0
1E79E0
1C78E0
3C78F0
78FC78
00001C
00000C
000004
000004
ENDCHAR
STARTCHAR 0497
ENCODING 1175
SWIDTH 720 0
DWIDTH 16 0
BBX 16 12 0 -3
BITMAP
73CE
F1CF
49D2
09D0
07E0
1DF8
39DC
39DC
71CE
73CE
0003
0001
ENDCHAR
STARTCHAR 049A
ENCODING 1178
SWIDTH 720 0
DWIDTH 16 0
BBX 16 19 0 -4
BITMAP
FF0E
3C1E
1C27
1C26
1C20
1C40
1C40
1FC0
1DE0
1CF0
1CF0
1C78
1C78
3C3C
7E1E
0007
0003
0001
0001
ENDCHAR
STARTCHAR 049B
ENCODING 1179
SWIDTH 585 0
DWIDTH 13 0
BBX 12 13 1 -3
BITMAP
F1E0
7160
7260
7200
7C00
7700
7780
7380
71C0
F9E0
0030
0010
0010
ENDCHAR
STARTCHAR 049C
ENCODING 1180
SWIDTH 720 0
DWIDTH 16 0
BBX 16 15 0 0
BITMAP
FF0E
3C1E
1C27
1D26
1D20
1D40
1D40
1FC0
1DE0
1CF0
1CF0
1D78
1C78
3C3C
7E1E
ENDCHAR
STARTCHAR 049D
ENCODING 1181
SWIDTH 585 0
DWIDTH 13 0
BBX 11 10 1 0
BITMAP
F1E0
7160
7660
7600
7C00
7700
7780
7780
71C0
F9E0
ENDCHAR
STARTCHAR 04A2
ENCODING 1186
SWIDTH 765 0
DWIDTH 17 0
BBX 17 19 0 -4
BITMAP
FF7F80
3C1E00
1C1E00
1C1E00
1C1E00
1C1E00
1C1E00
1FFE00
1C1E00
1C1E00
1C1E00
1C1E00
1C1E00
3C1E00
3E3F00
400380
000180
000080
000080
ENDCHAR
STARTCHAR 04A3
ENCODING 1187
SWIDTH 585 0
DWIDTH 13 0
BBX 11 12 1 -3
BITMAP
F3C0
71C0
71C0
71C0
7FC0
71C0
71C0
71C0
71C0
F3C0
0060
0020
ENDCHAR
STARTCHAR 04AE
ENCODING 1198
SWIDTH 720 0
DWIDTH 16 0
BBX 16 15 0 0
BITMAP
FE1F
3C04
3C04
1E08
1E10
0F10
0720
07A0
03C0
03C0
03C0
03C0
03C0
03C0
07E0
ENDCHAR
STARTCHAR 04AF
ENCODING 1199
SWIDTH 495 0
DWIDTH 11 0
BBX 9 15 1 -5
BITMAP
F180
F080
7100
7100
3900
3A00
3A00
1E00
1C00
1C00
1C00
1C00
1C00
1C00
3E00
ENDCHAR
STARTCHAR 04B0
ENCODING 1200
SWIDTH 720 0
DWIDTH 16 0
BBX 16 15 0 0
BITMAP
FE1F
3C04
3C04
1E08
1E10
0F10
0720
07A0
03C0
03C0
1FF8
03C0
03C0
03C0
07E0
ENDCHAR
STARTCHAR 04B1
ENCODING 1201
SWIDTH 495 0
DWIDTH 11 0
BBX 11 15 0 -5
BITMAP
78C0
7840
3880
3880
1C80
1D00
1D00
0F00
0E00
FFE0
0E00
0E00
0E00
0E00
1F00
ENDCHAR
STARTCHAR 04B2
ENCODING 1202
SWIDTH 720 0
DWIDTH 16 0
BBX 16 19 0 -4
BITMAP
FF3E
3C08
1E18
1E10
0F20
07C0
0780
03C0
01E0
03E0
04F0
0878
107C
303C
787E
0007
0003
0001
0001
ENDCHAR
STARTCHAR 04B3
ENCODING 1203
SWIDTH 495 0
DWIDTH 11 0
BBX 10 13 1 -3
BITMAP
FB80
7200
3A00
3C00
1C00
1E00
1E00
2F00
2700
E780
00C0
0040
0040
ENDCHAR
STARTCHAR 04B8
ENCODING 1208
SWIDTH 720 0
DWIDTH 16 0
BBX 16 15 0 0
BITMAP
FE7F
3C3C
3C3C
3C3C
3D3C
3D3C
3D3C
3D3C
1FFC
053C
013C
013C
003C
003C
007E
ENDCHAR
STARTCHAR 04B9
ENCODING 1209
SWIDTH 585 0
DWIDTH 13 0
BBX 10 10 1 0
BITMAP
F3C0
71C0
75C0
75C0
75C0
3FC0
05C0
05C0
01C0
03C0
ENDCHAR
STARTCHAR 04BA
ENCODING 1210
SWIDTH 720 0
DWIDTH 16 0
BBX 15 15 0 0
BITMAP
FF00
3C00
1C00
1C00
1C00
1C00
1DF8
1E3C
1C1C
1C1C
1C1C
1C1C
1C1C
3C1C
7E3E
ENDCHAR
STARTCHAR 04BB
ENCODING 1211
SWIDTH 540 0
DWIDTH 12 0
BBX 10 15 1 0
BITMAP
F000
7000
7000
7000
7000
7780
7B80
71C0
71C0
71C0
71C0
71C0
71C0
71C0
F3C0
ENDCHAR
STARTCHAR 04D8
ENCODING 1240
SWIDTH 720 0
DWIDTH 16 0
BBX 15 15 1 0
BITMAP
4FC0
3070
2038
403C
003C
001C
001E
FFFE
F01E
F01C
F01C
703C
7038
3870
1FE0
ENDCHAR
STARTCHAR 04D9
ENCODING 1241
SWIDTH 450 0
DWIDTH 10 0
BBX 8 10 1 0
BITMAP
7C
9E
0F
07
07
FF
C7
C7
E6
7C
ENDCHAR
STARTCHAR 04E8
ENCODING 1256
SWIDTH 765 0
DWIDTH 17 0
BBX 15 15 1 0
BITMAP
07E0
1C38
381C
701C
F01E
F01E
F00E
FFFE
F00E
F01E
F01E
701E
781C
3838
0FF0
ENDCHAR
STARTCHAR 04E9
ENCODING 1257
SWIDTH 495 0
DWIDTH 11 0
BBX 9 10 1 0
BITMAP
3E00
6300
E380
E380
FF80
E380
E380
E380
6300
3E00
ENDCHAR
STARTCHAR 05B0
ENCODING 1456
SWIDTH 315 0
DWIDTH 7 0
BBX 2 4 3 -5
BITMAP
C0
00
C0
80
ENDCHAR
STARTCHAR 05B1
ENCODING 1457
SWIDTH 315 0
DWIDTH 7 0
BBX 7 4 0 -5
BITMAP
DE
00
26
22
ENDCHAR
STARTCHAR 05B2
ENCODING 1458
SWIDTH 315 0
DWIDTH 7 0
BBX 6 4 1 -5
BITMAP
EC
00
0C
0C
ENDCHAR
STARTCHAR 05B3
ENCODING 1459
SWIDTH 315 0
DWIDTH 7 0
BBX 7 4 0 -5
BITMAP
F6
20
66
02
ENDCHAR
STARTCHAR 05B4
ENCODING 1460
SWIDTH 315 0
DWIDTH 7 0
BBX 2 1 3 -3
BITMAP
C0
ENDCHAR
STARTCHAR 05B5
ENCODING 1461
SWIDTH 315 0
DWIDTH 7 0
BBX 4 1 2 -3
BITMAP
B0
ENDCHAR
STARTCHAR 05B6
ENCODING 1462
SWIDTH 315 0
DWIDTH 7 0
BBX 4 4 2 -5
BITMAP
B0
00
60
40
ENDCHAR
STARTCHAR 05B7
ENCODING 1463
SWIDTH 315 0
DWIDTH 7 0
BBX 4 1 2 -3
BITMAP
F0
ENDCHAR
STARTCHAR 05B8
ENCODING 1464
SWIDTH 315 0
DWIDTH 7 0
BBX 4 4 2 -5
BITMAP
F0
40
60
40
ENDCHAR
STARTCHAR 05B9
ENCODING 1465
SWIDTH 315 0
DWIDTH 7 0
BBX 1 2 3 13
BITMAP
80
80
ENDCHAR
STARTCHAR 05BA
ENCODING 1466
SWIDTH 315 0
DWIDTH 7 0
BBX 1 2 3 13
BITMAP
80
80
ENDCHAR
STARTCHAR 05BB
ENCODING 1467
SWIDTH 315 0
DWIDTH 7 0
BBX 7 4 0 -5
BITMAP
C0
18
16
02
ENDCHAR
STARTCHAR 05BC
ENCODING 1468
SWIDTH 315 0
DWIDTH 7 0
BBX 2 2 3 5
BITMAP
80
C0
ENDCHAR
STARTCHAR 05BD
ENCODING 1469
SWIDTH 315 0
DWIDTH 7 0
BBX 1 4 3 -5
BITMAP
80
80
80
80
ENDCHAR
STARTCHAR 05BE
ENCODING 1470
SWIDTH 360 0
DWIDTH 8 0
BBX 6 3 1 8
BITMAP
FC
FC
FC
ENDCHAR
STARTCHAR 05BF
ENCODING 1471
SWIDTH 315 0
DWIDTH 7 0
BBX 4 1 2 13
BITMAP
F0
ENDCHAR
STARTCHAR 05C0
ENCODING 1472
SWIDTH 315 0
DWIDTH 7 0
BBX 2 14 3 -1
BITMAP
C0
C0
C0
C0
C0
C0
C0
C0
C0
C0
C0
C0
C0
C0
ENDCHAR
STARTCHAR 05C1
ENCODING 1473
SWIDTH 360 0
DWIDTH 8 0
BBX 1 2 8 13
BITMAP
80
80
ENDCHAR
STARTCHAR 05C2
ENCODING 1474
SWIDTH 360 0
DWIDTH 8 0
BBX 2 2 -2 13
BITMAP
40
C0
ENDCHAR
STARTCHAR 05C3
ENCODING 1475
SWIDTH 315 0
DWIDTH 7 0
BBX 3 12 2 0
BITMAP
40
E0
E0
60
00
00
00
00
00
E0
E0
E0
ENDCHAR
STARTCHAR 05D0
ENCODING 1488
SWIDTH 540 0
DWIDTH 12 0
BBX 10 12 1 0
BITMAP
4300
C7C0
E3C0
FBC0
7D00
7F00
5F00
CF80
E7C0
F3C0
F1C0
F080
ENDCHAR
STARTCHAR 05D1
ENCODING 1489
SWIDTH 450 0
DWIDTH 10 0
BBX 9 12 1 0
BITMAP
C000
FE00
FE00
FF00
0300
0300
0300
0200
FF80
FF80
FF00
FF00
ENDCHAR
STARTCHAR 05D2
ENCODING 1490
SWIDTH 360 0
DWIDTH 8 0
BBX 8 12 0 0
BITMAP
30
7C
7C
3C
0C
04
04
06
7F
7B
73
F2
ENDCHAR
STARTCHAR 05D3
ENCODING 1491
SWIDTH 450 0
DWIDTH 10 0
BBX 9 12 1 0
BITMAP
8000
FF80
FF80
FF00
0200
0400
0400
0C00
0C00
0C00
0C00
0C00
ENDCHAR
STARTCHAR 05D4
ENCODING 1492
SWIDTH 495 0
DWIDTH 11 0
BBX 10 12 1 0
BITMAP
C000
FFC0
FFC0
FFC0
0080
0100
0100
E180
C180
C180
C180
C100
ENDCHAR
STARTCHAR 05D5
ENCODING 1493
SWIDTH 315 0
DWIDTH 7 0
BBX 4 12 1 0
BITMAP
C0
F0
F0
F0
10
10
10
10
10
10
10
10
ENDCHAR
STARTCHAR 05D6
ENCODING 1494
SWIDTH 315 0
DWIDTH 7 0
BBX 5 12 1 0
BITMAP
C0
F8
F8
F8
20
20
60
60
30
30
30
20
ENDCHAR
STARTCHAR 05D7
ENCODING 1495
SWIDTH 495 0
DWIDTH 11 0
BBX 10 12 1 0
BITMAP
8000
FFC0
FFC0
FF80
2080
4100
C100
C100
C180
C180
C180
C100
ENDCHAR
STARTCHAR 05D8
ENCODING 1496
SWIDTH 540 0
DWIDTH 12 0
BBX 10 12 1 0
BITMAP
C100
F380
F780
F7C0
44C0
4440
4040
4040
7FC0
7F80
7F80
7F80
ENDCHAR
STARTCHAR 05D9
ENCODING 1497
SWIDTH 315 0
DWIDTH 7 0
BBX 5 8 1 4
BITMAP
C0
F8
F8
F8
18
08
08
10
ENDCHAR
STARTCHAR 05DA
ENCODING 1498
SWIDTH 450 0
DWIDTH 10 0
BBX 8 16 1 -4
BITMAP
80
FF
FF
FF
03
02
02
02
03
03
03
03
03
03
03
02
ENDCHAR
STARTCHAR 05DB
ENCODING 1499
SWIDTH 450 0
DWIDTH 10 0
BBX 8 12 1 0
BITMAP
C0
FE
FE
FF
03
01
01
01
FF
FF
FE
FC
ENDCHAR
STARTCHAR 05DC
ENCODING 1500
SWIDTH 450 0
DWIDTH 10 0
BBX 9 17 0 0
BITMAP
8000
E000
E000
6000
4000
6000
7F00
7F80
7F80
0180
0180
0100
0300
0600
0C00
0C00
0C00
ENDCHAR
STARTCHAR 05DD
ENCODING 1501
SWIDTH 495 0
DWIDTH 11 0
BBX 9 12 1 0
BITMAP
C000
FF80
FF80
FF80
2180
4080
C080
8080
FF80
FF80
FF80
FF80
ENDCHAR
STARTCHAR 05DE
ENCODING 1502
SWIDTH 540 0
DWIDTH 12 0
BBX 10 12 1 0
BITMAP
C200
F300
F780
FF80
39C0
20C0
6040
4040
CFC0
CFC0
8F80
9F80
ENDCHAR
STARTCHAR 05DF
ENCODING 1503
SWIDTH 315 0
DWIDTH 7 0
BBX 5 16 1 -4
BITMAP
E0
F8
F8
F8
18
08
10
18
18
18
18
18
18
18
18
10
ENDCHAR
STARTCHAR 05E0
ENCODING 1504
SWIDTH 315 0
DWIDTH 7 0
BBX 6 12 0 0
BITMAP
60
7C
7C
7C
0C
08
0C
04
7C
7C
7C
FC
ENDCHAR
STARTCHAR 05E1
ENCODING 1505
SWIDTH 495 0
DWIDTH 11 0
BBX 9 12 1 0
BITMAP
C000
FF00
FF00
FF00
4180
C080
C080
C180
FF80
FF00
7F00
3E00
ENDCHAR
STARTCHAR 05E2
ENCODING 1506
SWIDTH 495 0
DWIDTH 11 0
BBX 11 13 0 -1
BITMAP
6300
7BC0
7BE0
79C0
2040
30C0
3880
0880
0F80
7F80
7F80
7F00
C000
ENDCHAR
STARTCHAR 05E3
ENCODING 1507
SWIDTH 495 0
DWIDTH 11 0
BBX 9 16 1 -4
BITMAP
8000
FF00
FF00
FF80
4380
4180
4180
F180
F180
0180
0180
0180
0180
0180
0180
0100
ENDCHAR
STARTCHAR 05E4
ENCODING 1508
SWIDTH 450 0
DWIDTH 10 0
BBX 8 12 1 0
BITMAP
C0
FE
FF
FF
43
E1
F1
01
FF
FF
FE
FC
ENDCHAR
STARTCHAR 05E5
ENCODING 1509
SWIDTH 585 0
DWIDTH 13 0
BBX 11 15 1 -4
BITMAP
C300
FBE0
FBE0
FBE0
1180
1200
1400
1800
1800
1000
1000
1800
1800
1800
1000
ENDCHAR
STARTCHAR 05E6
ENCODING 1510
SWIDTH 495 0
DWIDTH 11 0
BBX 10 12 1 0
BITMAP
C600
F7C0
F7C0
F3C0
1100
1A00
0E00
0700
7F80
FF80
FF80
FF80
ENDCHAR
STARTCHAR 05E7
ENCODING 1511
SWIDTH 495 0
DWIDTH 11 0
BBX 9 16 1 -4
BITMAP
8000
FF80
FF80
FF80
0180
0180
4100
C300
C400
C800
D800
D800
C000
C000
C000
8000
ENDCHAR
STARTCHAR 05E8
ENCODING 1512
SWIDTH 450 0
DWIDTH 10 0
BBX 8 12 1 0
BITMAP
80
FF
FF
FF
03
01
01
01
01
01
01
01
ENDCHAR
STARTCHAR 05E9
ENCODING 1513
SWIDTH 675 0
DWIDTH 15 0
BBX 14 12 1 0
BITMAP
C630
F7B8
F7BC
F7BC
4218
4210
4410
4420
7FE0
7FE0
7FE0
7FC0
ENDCHAR
STARTCHAR 05EA
ENCODING 1514
SWIDTH 540 0
DWIDTH 12 0
BBX 10 12 0 0
BITMAP
2000
7FC0
7FC0
3FC0
08C0
1040
1040
1040
7040
7840
7840
F840
ENDCHAR
STARTCHAR 05F0
ENCODING 1520
SWIDTH 585 0
DWIDTH 13 0
BBX 11 12 1 0
BITMAP
C100
F3E0
F3E0
F1E0
1060
1020
1020
1020
1020
1020
1020
1020
ENDCHAR
STARTCHAR 05F1
ENCODING 1521
SWIDTH 630 0
DWIDTH 14 0
BBX 11 12 1 0
BITMAP
C180
F9E0
F9E0
F9E0
1860
0820
0820
1020
0020
0020
0020
0020
ENDCHAR
STARTCHAR 05F2
ENCODING 1522
SWIDTH 630 0
DWIDTH 14 0
BBX 12 8 1 4
BITMAP
C180
F9F0
F9F0
F9F0
1830
0810
0810
1020
ENDCHAR
STARTCHAR 05F3
ENCODING 1523
SWIDTH 270 0
DWIDTH 6 0
BBX 3 7 2 5
BITMAP
C0
E0
C0
C0
80
80
80
ENDCHAR
STARTCHAR 05F4
ENCODING 1524
SWIDTH 450 0
DWIDTH 10 0
BBX 7 7 2 5
BITMAP
C6
EE
CE
CC
8C
88
88
ENDCHAR
STARTCHAR 060C
ENCODING 1548
SWIDTH 315 0
DWIDTH 7 0
BBX 3 6 2 4
BITMAP
40
80
80
E0
E0
60
ENDCHAR
STARTCHAR 061B
ENCODING 1563
SWIDTH 315 0
DWIDTH 7 0
BBX 3 10 2 4
BITMAP
40
80
80
E0
E0
E0
00
40
E0
60
ENDCHAR
STARTCHAR 061F
ENCODING 1567
SWIDTH 360 0
DWIDTH 8 0
BBX 6 13 1 3
BITMAP
38
C4
CC
DC
E8
E0
60
30
10
00
30
30
30
ENDCHAR
STARTCHAR 0621
ENCODING 1569
SWIDTH 450 0
DWIDTH 10 0
BBX 8 10 1 1
BITMAP
3C
3C
6C
60
F7
7F
3C
30
60
40
ENDCHAR
STARTCHAR 0622
ENCODING 1570
SWIDTH 225 0
DWIDTH 5 0
BBX 5 15 0 2
BITMAP
F8
00
20
20
20
20
30
30
30
30
30
30
30
10
20
ENDCHAR
STARTCHAR 0623
ENCODING 1571
SWIDTH 225 0
DWIDTH 5 0
BBX 3 16 1 2
BITMAP
C0
60
80
40
40
40
40
60
60
60
60
60
60
20
20
40
ENDCHAR
STARTCHAR 0624
ENCODING 1572
SWIDTH 450 0
DWIDTH 10 0
BBX 10 17 0 -2
BITMAP
0800
1000
0C00
0000
0180
0380
03C0
06C0
0640
07C0
03C0
01C0
00C0
8380
7F80
3F00
0400
ENDCHAR
STARTCHAR 0625
ENCODING 1573
SWIDTH 225 0
DWIDTH 5 0
BBX 3 18 1 -2
BITMAP
40
40
40
40
60
60
60
60
60
60
60
20
40
00
00
60
C0
C0
ENDCHAR
STARTCHAR 0626
ENCODING 1574
SWIDTH 630 0
DWIDTH 14 0
BBX 11 13 2 -1
BITMAP
6000
C000
E0E0
01E0
0320
4600
8600
87C0
83C0
80C0
83C0
FF80
FE00
ENDCHAR
STARTCHAR 0627
ENCODING 1575
SWIDTH 225 0
DWIDTH 5 0
BBX 2 13 2 2
BITMAP
80
80
80
80
C0
C0
C0
C0
C0
C0
C0
40
80
ENDCHAR
STARTCHAR 0628
ENCODING 1576
SWIDTH 630 0
DWIDTH 14 0
BBX 13 12 1 -2
BITMAP
4000
8008
8018
8008
C008
FFF8
FFF8
7FF8
0000
0300
0380
0300
ENDCHAR
STARTCHAR 0629
ENCODING 1577
SWIDTH 360 0
DWIDTH 8 0
BBX 6 14 1 3
BITMAP
10
F8
F0
C0
00
00
60
78
7C
9C
8C
FC
F8
F0
ENDCHAR
STARTCHAR 062A
ENCODING 1578
SWIDTH 630 0
DWIDTH 14 0
BBX 13 11 1 4
BITMAP
01C0
0F80
0E80
4000
8008
8018
8008
C008
FFF8
FFF8
7FF8
ENDCHAR
STARTCHAR 062B
ENCODING 1579
SWIDTH 630 0
DWIDTH 14 0
BBX 13 14 1 3
BITMAP
0400
0600
0600
0180
0780
0E80
4000
8008
8018
8008
C008
FFF8
FFF8
3FF8
ENDCHAR
STARTCHAR 062C
ENCODING 1580
SWIDTH 585 0
DWIDTH 13 0
BBX 11 16 1 -5
BITMAP
3C00
7FC0
FFC0
9F80
3800
6000
4000
8600
8700
8600
8200
C000
E000
FC20
7FE0
3F80
ENDCHAR
STARTCHAR 062D
ENCODING 1581
SWIDTH 585 0
DWIDTH 13 0
BBX 11 16 1 -5
BITMAP
3C00
7FC0
FFC0
9F80
3800
6000
4000
8000
8000
8000
8000
C000
E000
FC20
7FE0
3F80
ENDCHAR
STARTCHAR 062E
ENCODING 1582
SWIDTH 585 0
DWIDTH 13 0
BBX 11 20 1 -4
BITMAP
0C00
1C00
0C00
0000
3C00
7FC0
FFC0
9F80
3800
6000
4000
8000
8000
8000
8000
C000
E000
FC20
7FE0
3F80
ENDCHAR
STARTCHAR 062F
ENCODING 1583
SWIDTH 360 0
DWIDTH 8 0
BBX 7 10 1 3
BITMAP
08
0C
1C
0C
06
06
82
FE
FE
7E
ENDCHAR
STARTCHAR 0630
ENCODING 1584
SWIDTH 360 0
DWIDTH 8 0
BBX 7 16 1 3
BITMAP
20
38
70
30
00
00
08
0C
1C
0C
06
06
82
FE
FE
7E
ENDCHAR
STARTCHAR 0631
ENCODING 1585
SWIDTH 450 0
DWIDTH 10 0
BBX 9 12 1 -2
BITMAP
0100
0100
0300
0180
0080
0080
0180
0380
0700
9E00
7C00
1800
ENDCHAR
STARTCHAR 0632
ENCODING 1586
SWIDTH 450 0
DWIDTH 10 0
BBX 9 17 1 -2
BITMAP
0600
0700
0600
0000
0000
0100
0100
0300
0180
0080
0080
0180
0380
0700
9E00
7C00
1800
ENDCHAR
STARTCHAR 0633
ENCODING 1587
SWIDTH 900 0
DWIDTH 20 0
BBX 19 11 1 -1
BITMAP
004020
006160
406160
406320
803FE0
803FE0
803E60
C06000
E0E000
FFC000
7F8000
ENDCHAR
STARTCHAR 0634
ENCODING 1588
SWIDTH 900 0
DWIDTH 20 0
BBX 19 18 1 -1
BITMAP
000200
000700
000200
0005C0
0007C0
000600
000000
004020
006160
406160
406320
803FE0
803FE0
803E60
C06000
E0E000
FFC000
7F8000
ENDCHAR
STARTCHAR 0635
ENCODING 1589
SWIDTH 1080 0
DWIDTH 24 0
BBX 23 12 1 -1
BITMAP
00003C
00407C
0061FE
406386
406E06
803FFE
803FFE
803FFE
C06000
E0E000
FFC000
7F8000
ENDCHAR
STARTCHAR 0636
ENCODING 1590
SWIDTH 1080 0
DWIDTH 24 0
BBX 23 17 1 -1
BITMAP
000300
000380
000300
000100
000000
00003C
00407C
0061FE
406386
406E06
803FFE
803FFE
803FFE
C06000
E0E000
FFC000
7F8000
ENDCHAR
STARTCHAR 0637
ENCODING 1591
SWIDTH 540 0
DWIDTH 12 0
BBX 13 15 -1 3
BITMAP
1000
1C00
1C00
1C00
0C00
0800
0C00
0CF0
0FF0
0FF8
0E18
3838
FFF8
FFF8
FFF8
ENDCHAR
STARTCHAR 0638
ENCODING 1592
SWIDTH 540 0
DWIDTH 12 0
BBX 13 15 -1 3
BITMAP
1000
1C00
1CC0
1CE0
0CC0
0840
0C00
0CF0
0FF0
0FF8
0E18
3838
FFF8
FFF8
FFF8
ENDCHAR
STARTCHAR 0639
ENCODING 1593
SWIDTH 540 0
DWIDTH 12 0
BBX 10 18 1 -5
BITMAP
3E00
7F00
6000
C000
E380
FF00
7E00
7000
E000
C000
8000
8000
8000
C000
F800
FFC0
7F00
0600
ENDCHAR
STARTCHAR 063A
ENCODING 1594
SWIDTH 540 0
DWIDTH 12 0
BBX 10 23 1 -5
BITMAP
1000
3800
3800
0000
0000
3E00
7F00
6000
C000
E380
FF00
7E00
7000
E000
C000
8000
8000
8000
C000
F800
FFC0
7F00
0600
ENDCHAR
STARTCHAR 0640
ENCODING 1600
SWIDTH 180 0
DWIDTH 4 0
BBX 5 3 -1 3
BITMAP
F8
F8
F8
ENDCHAR
STARTCHAR 0641
ENCODING 1601
SWIDTH 765 0
DWIDTH 17 0
BBX 16 14 1 3
BITMAP
000C
001E
000C
0000
0000
000E
801E
801F
8013
801F
C01F
FFFF
FFFF
7FFF
ENDCHAR
STARTCHAR 0642
ENCODING 1602
SWIDTH 630 0
DWIDTH 14 0
BBX 14 17 0 -2
BITMAP
0018
00F8
00C0
0040
0030
0078
0078
20D8
20FC
407C
407C
4004
C00C
E018
7FF8
7FF0
1FC0
ENDCHAR
STARTCHAR 0643
ENCODING 1603
SWIDTH 540 0
DWIDTH 12 0
BBX 12 14 0 3
BITMAP
0040
0060
0370
0270
0620
0720
0320
4320
4E30
4030
E010
FFF0
7FF0
3FF0
ENDCHAR
STARTCHAR 0644
ENCODING 1604
SWIDTH 450 0
DWIDTH 10 0
BBX 10 18 0 -1
BITMAP
0100
0180
01C0
01C0
0080
0080
0080
0080
20C0
20C0
4040
4040
4040
C0C0
E1C0
7F80
7F00
3C00
ENDCHAR
STARTCHAR 0645
ENCODING 1605
SWIDTH 360 0
DWIDTH 8 0
BBX 8 14 0 -5
BITMAP
08
1C
3E
2F
1F
7F
7F
C0
C0
40
40
60
20
20
ENDCHAR
STARTCHAR 0646
ENCODING 1606
SWIDTH 540 0
DWIDTH 12 0
BBX 11 14 1 0
BITMAP
0E00
0E00
0600
0040
0060
4060
4060
8020
8020
8020
8060
E0E0
FFC0
7F80
ENDCHAR
STARTCHAR 0647
ENCODING 1607
SWIDTH 360 0
DWIDTH 8 0
BBX 6 8 1 4
BITMAP
60
78
7C
9C
8C
FC
F8
F0
ENDCHAR
STARTCHAR 0648
ENCODING 1608
SWIDTH 450 0
DWIDTH 10 0
BBX 10 13 0 -2
BITMAP
0180
0380
03C0
06C0
0640
07C0
03C0
01C0
00C0
8380
7F80
3F00
0400
ENDCHAR
STARTCHAR 0649
ENCODING 1609
SWIDTH 630 0
DWIDTH 14 0
BBX 11 11 2 -1
BITMAP
00E0
01E0
0320
4600
8600
87C0
83C0
80C0
83C0
FF80
FE00
ENDCHAR
STARTCHAR 064A
ENCODING 1610
SWIDTH 630 0
DWIDTH 14 0
BBX 11 14 2 -4
BITMAP
00E0
01E0
0320
4600
8600
87C0
83C0
80C0
83C0
FF80
FE00
0000
1B00
1C00
ENDCHAR
STARTCHAR 064B
ENCODING 1611
SWIDTH 180 0
DWIDTH 4 0
BBX 3 4 1 15
BITMAP
20
C0
60
80
ENDCHAR
STARTCHAR 064C
ENCODING 1612
SWIDTH 225 0
DWIDTH 5 0
BBX 4 4 1 15
BITMAP
30
B0
B0
C0
ENDCHAR
STARTCHAR 064D
ENCODING 1613
SWIDTH 180 0
DWIDTH 4 0
BBX 3 4 1 -3
BITMAP
20
C0
20
C0
ENDCHAR
STARTCHAR 064E
ENCODING 1614
SWIDTH 180 0
DWIDTH 4 0
BBX 3 2 1 15
BITMAP
60
80
ENDCHAR
STARTCHAR 064F
ENCODING 1615
SWIDTH 225 0
DWIDTH 5 0
BBX 4 5 1 15
BITMAP
20
60
20
50
80
ENDCHAR
STARTCHAR 0650
ENCODING 1616
SWIDTH 180 0
DWIDTH 4 0
BBX 3 2 1 -1
BITMAP
20
C0
ENDCHAR
STARTCHAR 0651
ENCODING 1617
SWIDTH 225 0
DWIDTH 5 0
BBX 4 4 1 15
BITMAP
10
50
E0
80
ENDCHAR
STARTCHAR 0652
ENCODING 1618
SWIDTH 180 0
DWIDTH 4 0
BBX 3 3 1 16
BITMAP
E0
A0
C0
ENDCHAR
STARTCHAR 0653
ENCODING 1619
SWIDTH 225 0
DWIDTH 5 0
BBX 5 1 0 17
BITMAP
F8
ENDCHAR
STARTCHAR 0654
ENCODING 1620
SWIDTH 225 0
DWIDTH 5 0
BBX 3 3 1 17
BITMAP
60
80
60
ENDCHAR
STARTCHAR 0655
ENCODING 1621
SWIDTH 225 0
DWIDTH 5 0
BBX 3 2 1 -3
BITMAP
C0
60
ENDCHAR
STARTCHAR 0660
ENCODING 1632
SWIDTH 540 0
DWIDTH 12 0
BBX 4 5 4 5
BITMAP
40
60
F0
F0
20
ENDCHAR
STARTCHAR 0661
ENCODING 1633
SWIDTH 540 0
DWIDTH 12 0
BBX 4 12 4 4
BITMAP
C0
E0
E0
E0
70
30
30
30
10
10
10
10
ENDCHAR
STARTCHAR 0662
ENCODING 1634
SWIDTH 540 0
DWIDTH 12 0
BBX 6 12 3 4
BITMAP
C4
FC
FC
7C
70
30
30
10
10
10
10
10
ENDCHAR
STARTCHAR 0663
ENCODING 1635
SWIDTH 540 0
DWIDTH 12 0
BBX 9 12 2 3
BITMAP
0480
C480
FF80
FF00
FF00
7000
2000
3000
3000
3000
3000
2000
ENDCHAR
STARTCHAR 0664
ENCODING 1636
SWIDTH 540 0
DWIDTH 12 0
BBX 6 13 3 3
BITMAP
08
10
30
60
70
F8
78
10
20
78
7C
78
18
ENDCHAR
STARTCHAR 0665
ENCODING 1637
SWIDTH 540 0
DWIDTH 12 0
BBX 7 9 3 5
BITMAP
38
7C
7E
9E
86
C6
FC
FC
70
ENDCHAR
STARTCHAR 0666
ENCODING 1638
SWIDTH 540 0
DWIDTH 12 0
BBX 7 12 2 3
BITMAP
80
FC
FC
F8
78
04
04
0C
06
06
06
02
ENDCHAR
STARTCHAR 0667
ENCODING 1639
SWIDTH 540 0
DWIDTH 12 0
BBX 8 12 2 4
BITMAP
81
C3
C3
E3
66
24
34
14
18
18
08
08
ENDCHAR
STARTCHAR 0668
ENCODING 1640
SWIDTH 540 0
DWIDTH 12 0
BBX 8 12 2 3
BITMAP
10
18
18
18
1C
2C
26
67
E7
C3
C3
81
ENDCHAR
STARTCHAR 0669
ENCODING 1641
SWIDTH 540 0
DWIDTH 12 0
BBX 6 13 3 3
BITMAP
30
78
F8
98
F8
F8
F8
08
0C
0C
0C
0C
04
ENDCHAR
STARTCHAR 066A
ENCODING 1642
SWIDTH 540 0
DWIDTH 12 0
BBX 8 15 2 2
BITMAP
E1
E2
42
04
04
08
08
10
10
20
20
40
42
87
87
ENDCHAR
STARTCHAR 066B
ENCODING 1643
SWIDTH 315 0
DWIDTH 7 0
BBX 3 5 2 1
BITMAP
60
E0
60
60
40
ENDCHAR
STARTCHAR 066C
ENCODING 1644
SWIDTH 315 0
DWIDTH 7 0
BBX 3 6 2 4
BITMAP
40
80
80
E0
E0
60
ENDCHAR
STARTCHAR 066D
ENCODING 1645
SWIDTH 540 0
DWIDTH 12 0
BBX 7 7 2 10
BITMAP
54
74
28
F6
3C
54
10
ENDCHAR
STARTCHAR 066E
ENCODING 1646
SWIDTH 630 0
DWIDTH 14 0
BBX 13 8 1 3
BITMAP
4000
8008
8018
8008
C008
FFF8
FFF8
7FF8
ENDCHAR
STARTCHAR 066F
ENCODING 1647
SWIDTH 630 0
DWIDTH 14 0
BBX 14 13 0 -3
BITMAP
0030
0078
0078
20D8
20FC
407C
407C
4004
C00C
E018
7FF8
7FF0
1FC0
ENDCHAR
STARTCHAR 0670
ENCODING 1648
SWIDTH 0 0
DWIDTH 0 0
BBX 2 5 -1 13
BITMAP
80
80
40
40
80
ENDCHAR
STARTCHAR 0671
ENCODING 1649
SWIDTH 225 0
DWIDTH 5 0
BBX 5 17 0 2
BITMAP
10
68
F0
80
20
20
20
20
30
30
30
30
30
30
30
10
20
ENDCHAR
STARTCHAR 0672
ENCODING 1650
SWIDTH 225 0
DWIDTH 5 0
BBX 3 17 1 2
BITMAP
40
80
60
80
40
40
40
40
60
60
60
60
60
60
60
20
40
ENDCHAR
STARTCHAR 0673
ENCODING 1651
SWIDTH 225 0
DWIDTH 5 0
BBX 4 18 0 -2
BITMAP
20
20
20
20
30
30
30
30
30
30
30
10
20
00
00
30
20
F0
ENDCHAR
STARTCHAR 0674
ENCODING 1652
SWIDTH 225 0
DWIDTH 5 0
BBX 3 3 1 17
BITMAP
60
80
60
ENDCHAR
STARTCHAR 0675
ENCODING 1653
SWIDTH 225 0
DWIDTH 5 0
BBX 4 13 2 3
BITMAP
B0
B0
80
80
C0
C0
C0
C0
C0
C0
C0
40
80
ENDCHAR
STARTCHAR 0676
ENCODING 1654
SWIDTH 450 0
DWIDTH 10 0
BBX 11 17 0 -2
BITMAP
00E0
0060
0080
0000
0180
0380
03C0
06C0
0640
07C0
03C0
01C0
00C0
8380
7F80
3F00
0400
ENDCHAR
STARTCHAR 0677
ENCODING 1655
SWIDTH 450 0
DWIDTH 10 0
BBX 11 18 0 -2
BITMAP
0600
06E0
0260
0480
0800
0180
0380
03C0
06C0
0640
07C0
03C0
01C0
00C0
8380
7F80
3F00
0400
ENDCHAR
STARTCHAR 0678
ENCODING 1656
SWIDTH 630 0
DWIDTH 14 0
BBX 12 16 2 -1
BITMAP
0030
0030
0040
0000
0000
00E0
01E0
0320
4600
8600
87C0
83C0
80C0
83C0
FF80
FE00
ENDCHAR
STARTCHAR 0679
ENCODING 1657
SWIDTH 630 0
DWIDTH 14 0
BBX 13 15 1 4
BITMAP
0400
0400
0400
0580
0680
0F80
0000
4000
8008
8018
8008
C008
FFF8
FFF8
7FF8
ENDCHAR
STARTCHAR 067A
ENCODING 1658
SWIDTH 630 0
DWIDTH 14 0
BBX 13 14 1 3
BITMAP
0400
0E00
0400
0300
0300
0300
4000
8008
8018
8008
C008
FFF8
FFF8
7FF8
ENDCHAR
STARTCHAR 067B
ENCODING 1659
SWIDTH 630 0
DWIDTH 14 0
BBX 13 15 1 -4
BITMAP
4000
8008
8018
8008
C008
FFF8
FFF8
7FF8
0000
0300
0700
0200
01C0
0180
0080
ENDCHAR
STARTCHAR 067C
ENCODING 1660
SWIDTH 630 0
DWIDTH 14 0
BBX 13 13 1 2
BITMAP
01C0
0F80
0E80
4000
8008
8018
8008
C008
FFF8
FFF8
7FF8
0500
0300
ENDCHAR
STARTCHAR 067D
ENCODING 1661
SWIDTH 630 0
DWIDTH 14 0
BBX 13 14 1 3
BITMAP
0100
0F80
0D00
0C00
0380
0300
4100
8008
8018
8008
C008
FFF8
FFF8
7FF8
ENDCHAR
STARTCHAR 067E
ENCODING 1662
SWIDTH 630 0
DWIDTH 14 0
BBX 13 15 1 -4
BITMAP
4000
8008
8018
8008
C008
FFF8
FFF8
7FF8
0000
0180
0780
0E80
0500
0180
0180
ENDCHAR
STARTCHAR 067F
ENCODING 1663
SWIDTH 630 0
DWIDTH 14 0
BBX 13 14 1 3
BITMAP
0300
1F00
1900
0DC0
0780
0E80
4000
8008
8018
8008
C008
FFF8
FFF8
7FF8
ENDCHAR
STARTCHAR 0680
ENCODING 1664
SWIDTH 630 0
DWIDTH 14 0
BBX 13 15 1 -5
BITMAP
4000
8008
8018
8008
C008
FFF8
FFF8
7FF8
0000
0180
0F80
0D00
04C0
03C0
0740
ENDCHAR
STARTCHAR 0681
ENCODING 1665
SWIDTH 585 0
DWIDTH 13 0
BBX 11 20 1 -5
BITMAP
0600
0400
0200
0000
3C00
7FC0
FFC0
9F80
3800
6000
4000
8000
8000
8000
8000
C000
E000
FC20
7FE0
3F80
ENDCHAR
STARTCHAR 0682
ENCODING 1666
SWIDTH 585 0
DWIDTH 13 0
BBX 11 23 1 -5
BITMAP
1800
1800
1800
0400
0E00
0400
0000
3C00
7FC0
FFC0
9F80
3800
6000
4000
8000
8000
8000
8000
C000
E000
FC20
7FE0
3F80
ENDCHAR
STARTCHAR 0683
ENCODING 1667
SWIDTH 585 0
DWIDTH 13 0
BBX 11 16 1 -5
BITMAP
3C00
7FC0
FFC0
9F80
3800
6000
4000
8B80
8F00
9C00
8000
C000
E000
FC20
7FE0
3F80
ENDCHAR
STARTCHAR 0684
ENCODING 1668
SWIDTH 585 0
DWIDTH 13 0
BBX 11 16 1 -5
BITMAP
3C00
7FC0
FFC0
9F80
3800
6000
4400
8E00
8C00
8300
8300
C300
E000
FC20
7FE0
3F80
ENDCHAR
STARTCHAR 0685
ENCODING 1669
SWIDTH 585 0
DWIDTH 13 0
BBX 11 23 1 -5
BITMAP
0C00
1C00
0600
0B00
1F00
0800
0000
3C00
7FC0
FFC0
9F80
3800
6000
4000
8000
8000
8000
8000
C000
E000
FC20
7FE0
3F80
ENDCHAR
STARTCHAR 0686
ENCODING 1670
SWIDTH 585 0
DWIDTH 13 0
BBX 11 16 1 -5
BITMAP
3C00
7FC0
FFC0
9F80
3800
6000
4300
8F00
9D00
8A00
8700
C300
E000
FC20
7FE0
3F80
ENDCHAR
STARTCHAR 0687
ENCODING 1671
SWIDTH 585 0
DWIDTH 13 0
BBX 11 16 1 -5
BITMAP
3C00
7FC0
FFC0
9F80
3800
6000
4B80
8F00
9C80
87C0
8780
C600
E000
FC20
7FE0
3F80
ENDCHAR
STARTCHAR 0688
ENCODING 1672
SWIDTH 360 0
DWIDTH 8 0
BBX 7 17 1 3
BITMAP
40
60
40
48
5C
64
FC
00
08
0C
1C
0C
06
86
FE
FE
7E
ENDCHAR
STARTCHAR 0689
ENCODING 1673
SWIDTH 360 0
DWIDTH 8 0
BBX 7 12 1 1
BITMAP
08
0C
1C
0C
06
06
82
FE
FE
7E
28
38
ENDCHAR
STARTCHAR 068A
ENCODING 1674
SWIDTH 360 0
DWIDTH 8 0
BBX 7 14 1 -1
BITMAP
08
0C
1C
0C
06
06
82
FE
FE
7E
00
38
38
38
ENDCHAR
STARTCHAR 068B
ENCODING 1675
SWIDTH 360 0
DWIDTH 8 0
BBX 7 21 1 -1
BITMAP
40
60
40
48
5C
64
FC
00
08
0C
1C
0C
06
86
FE
FE
7E
00
38
38
38
ENDCHAR
STARTCHAR 068C
ENCODING 1676
SWIDTH 360 0
DWIDTH 8 0
BBX 7 15 1 4
BITMAP
5C
F8
40
00
00
08
0C
1C
0C
06
06
82
FE
FE
7E
ENDCHAR
STARTCHAR 068D
ENCODING 1677
SWIDTH 360 0
DWIDTH 8 0
BBX 7 15 1 -2
BITMAP
08
0C
1C
0C
06
06
82
FE
FE
7E
00
0C
7C
60
20
ENDCHAR
STARTCHAR 068E
ENCODING 1678
SWIDTH 360 0
DWIDTH 8 0
BBX 7 16 1 4
BITMAP
70
60
08
7C
E8
20
00
08
0C
1C
0C
06
86
FE
FE
7E
ENDCHAR
STARTCHAR 068F
ENCODING 1679
SWIDTH 360 0
DWIDTH 8 0
BBX 7 17 1 3
BITMAP
10
B8
F8
C0
30
30
10
00
08
0C
1C
0C
06
86
FE
FE
7E
ENDCHAR
STARTCHAR 0690
ENCODING 1680
SWIDTH 360 0
DWIDTH 8 0
BBX 7 16 1 4
BITMAP
B8
F0
C8
2C
7C
60
00
08
0C
1C
0C
06
86
FE
FE
7E
ENDCHAR
STARTCHAR 0691
ENCODING 1681
SWIDTH 450 0
DWIDTH 10 0
BBX 9 20 1 -1
BITMAP
0800
0800
0800
0F00
0900
3F00
0000
0000
0100
0100
0300
0180
0080
0080
0180
0380
0700
9E00
7C00
1800
ENDCHAR
STARTCHAR 0692
ENCODING 1682
SWIDTH 450 0
DWIDTH 10 0
BBX 9 16 1 -2
BITMAP
0500
0700
0000
0000
0100
0100
0300
0180
0080
0080
0180
0380
0700
9E00
7C00
1800
ENDCHAR
STARTCHAR 0693
ENCODING 1683
SWIDTH 450 0
DWIDTH 10 0
BBX 9 12 1 -2
BITMAP
0100
0100
0300
0180
0080
0080
0180
0380
0700
9F80
7E80
1B80
ENDCHAR
STARTCHAR 0694
ENCODING 1684
SWIDTH 450 0
DWIDTH 10 0
BBX 10 14 1 -4
BITMAP
0100
0100
0300
0180
0080
0080
0180
0380
0700
9E00
7C00
19C0
03C0
0080
ENDCHAR
STARTCHAR 0695
ENCODING 1685
SWIDTH 450 0
DWIDTH 10 0
BBX 10 14 1 -4
BITMAP
0100
0100
0300
0180
0080
0080
0180
0380
0700
9E00
7C00
1800
03C0
0180
ENDCHAR
STARTCHAR 0696
ENCODING 1686
SWIDTH 450 0
DWIDTH 10 0
BBX 10 14 1 -4
BITMAP
0100
0100
0300
0180
1880
1C80
1980
0380
0700
9E00
7C00
19C0
03C0
0080
ENDCHAR
STARTCHAR 0697
ENCODING 1687
SWIDTH 450 0
DWIDTH 10 0
BBX 9 17 1 -1
BITMAP
0B80
0F00
1D00
0000
0000
0100
0100
0300
0180
0080
0080
0180
0380
0700
9E00
7C00
1800
ENDCHAR
STARTCHAR 0698
ENCODING 1688
SWIDTH 450 0
DWIDTH 10 0
BBX 9 20 1 -2
BITMAP
0400
0E00
0C00
0B80
0F00
1D00
0000
0000
0100
0100
0300
0180
0080
0080
0180
0380
0700
9E00
7C00
1800
ENDCHAR
STARTCHAR 0699
ENCODING 1689
SWIDTH 450 0
DWIDTH 10 0
BBX 9 20 1 -2
BITMAP
0600
3E00
3000
1B80
0F00
1D00
0000
0000
0100
0100
0300
0180
0080
0080
0180
0380
0700
9E00
7C00
1800
ENDCHAR
STARTCHAR 069A
ENCODING 1690
SWIDTH 900 0
DWIDTH 20 0
BBX 19 15 1 -1
BITMAP
000C00
000E00
000E00
000000
004020
006160
406160
406320
803FE0
803FE0
803E60
C06000
E0E300
FFC780
7F8300
ENDCHAR
STARTCHAR 069B
ENCODING 1691
SWIDTH 900 0
DWIDTH 20 0
BBX 19 14 1 -4
BITMAP
004020
006160
406160
406320
803FE0
803FE0
803E60
C06000
E0E180
FFC780
7F8E80
000100
000180
000180
ENDCHAR
STARTCHAR 069C
ENCODING 1692
SWIDTH 900 0
DWIDTH 20 0
BBX 19 21 1 -4
BITMAP
000200
000700
000200
0005C0
0007C0
000600
000000
004020
006160
406160
406320
803FE0
803FE0
803E60
C06000
E0E180
FFC780
7F8E80
000100
000180
000180
ENDCHAR
STARTCHAR 069D
ENCODING 1693
SWIDTH 1080 0
DWIDTH 24 0
BBX 23 13 1 -2
BITMAP
00003C
00407C
0061FE
406386
406E06
803FFE
803FFE
803FFE
C06000
E0E030
FFC1F0
7F81A0
000080
ENDCHAR
STARTCHAR 069E
ENCODING 1694
SWIDTH 1080 0
DWIDTH 24 0
BBX 23 19 1 -1
BITMAP
000600
000600
000200
0005C0
000780
000680
000000
00003C
00407C
0061FE
406386
406E06
803FFE
803FFE
803FFE
C06000
E0E000
FFC000
7F8000
ENDCHAR
STARTCHAR 069F
ENCODING 1695
SWIDTH 540 0
DWIDTH 12 0
BBX 13 16 -1 3
BITMAP
00C0
10C0
1CC0
1C38
1CF0
0DD0
0800
0C00
0CF0
0FF0
0FF8
0E18
3838
FFF8
FFF8
FFF8
ENDCHAR
STARTCHAR 06A0
ENCODING 1696
SWIDTH 540 0
DWIDTH 12 0
BBX 10 25 1 -5
BITMAP
4000
6000
6000
1800
7800
F800
4000
3E00
7F00
6000
C000
E380
FF00
7E00
7000
E000
C000
8000
8000
8000
C000
F800
FFC0
7F00
0600
ENDCHAR
STARTCHAR 06A1
ENCODING 1697
SWIDTH 765 0
DWIDTH 17 0
BBX 16 9 1 3
BITMAP
000E
801E
801F
8013
801F
C01F
FFFF
FFFF
7FFF
ENDCHAR
STARTCHAR 06A2
ENCODING 1698
SWIDTH 765 0
DWIDTH 17 0
BBX 16 13 1 -1
BITMAP
000E
801E
801F
8013
801F
C01F
FFFF
FFFF
7FFF
0000
000C
001E
000C
ENDCHAR
STARTCHAR 06A3
ENCODING 1699
SWIDTH 765 0
DWIDTH 17 0
BBX 16 18 1 -1
BITMAP
000C
001E
000C
0000
0000
000E
801E
801F
8013
801F
C01F
FFFF
FFFF
7FFF
0000
01C0
01C0
01C0
ENDCHAR
STARTCHAR 06A4
ENCODING 1700
SWIDTH 765 0
DWIDTH 17 0
BBX 16 16 1 3
BITMAP
0018
0038
0014
0016
003E
0030
0000
000E
801E
801F
8013
801F
C01F
FFFF
FFFF
7FFF
ENDCHAR
STARTCHAR 06A5
ENCODING 1701
SWIDTH 765 0
DWIDTH 17 0
BBX 16 16 1 -4
BITMAP
000E
801E
801F
8013
801F
C01F
FFFF
FFFF
7FFF
0000
0006
001E
003A
0004
0006
0006
ENDCHAR
STARTCHAR 06A6
ENCODING 1702
SWIDTH 765 0
DWIDTH 17 0
BBX 16 16 1 4
BITMAP
005C
0078
00E4
0016
003E
0030
0000
000E
801E
801F
8013
801F
C01F
FFFF
FFFF
7FFF
ENDCHAR
STARTCHAR 06A7
ENCODING 1703
SWIDTH 630 0
DWIDTH 14 0
BBX 14 18 0 -3
BITMAP
0060
00F0
00E0
0020
0000
0030
0078
0078
20D8
20FC
407C
407C
4004
C00C
E018
7FF8
7FF0
1FC0
ENDCHAR
STARTCHAR 06A8
ENCODING 1704
SWIDTH 630 0
DWIDTH 14 0
BBX 14 20 0 -3
BITMAP
00C0
00C0
00C0
00B8
00F0
01D0
0000
0030
0078
0078
20D8
20FC
407C
407C
4004
C00C
E018
7FF8
7FF0
1FC0
ENDCHAR
STARTCHAR 06A9
ENCODING 1705
SWIDTH 765 0
DWIDTH 17 0
BBX 17 13 0 3
BITMAP
000100
000700
001F00
003C00
003000
003800
401C00
400E00
400300
E00180
FFFF80
7FFF80
3FFF80
ENDCHAR
STARTCHAR 06AA
ENCODING 1706
SWIDTH 765 0
DWIDTH 17 0
BBX 17 12 0 3
BITMAP
004000
01C000
07C000
0F0000
0F0000
07F800
43FE00
407F00
E00380
FFFF80
7FFF80
3FFF80
ENDCHAR
STARTCHAR 06AB
ENCODING 1707
SWIDTH 765 0
DWIDTH 17 0
BBX 17 13 0 3
BITMAP
000100
000700
001F00
003E80
003280
003900
401C00
400E00
400300
E00180
FFFF80
7FFF80
3FFF80
ENDCHAR
STARTCHAR 06AC
ENCODING 1708
SWIDTH 540 0
DWIDTH 12 0
BBX 12 17 0 3
BITMAP
0400
0700
0E00
0240
0060
0370
0270
0620
0720
0320
4320
4E30
4030
E010
FFF0
7FF0
3FF0
ENDCHAR
STARTCHAR 06AD
ENCODING 1709
SWIDTH 540 0
DWIDTH 12 0
BBX 12 16 0 3
BITMAP
0400
0B00
0840
0060
0370
0270
0620
0720
0320
4320
4E30
4030
E010
FFF0
7FF0
3FF0
ENDCHAR
STARTCHAR 06AE
ENCODING 1710
SWIDTH 540 0
DWIDTH 12 0
BBX 12 21 0 -4
BITMAP
0040
0060
0370
0270
0620
0720
0320
4320
4E30
4030
E010
FFF0
7FF0
3FF0
0000
0180
0780
0E80
0500
0380
0100
ENDCHAR
STARTCHAR 06AF
ENCODING 1711
SWIDTH 765 0
DWIDTH 17 0
BBX 17 16 0 3
BITMAP
000300
000F00
001E00
007900
006700
001F00
003C00
003000
003800
401C00
400E00
400300
E00180
FFFF80
7FFF80
3FFF80
ENDCHAR
STARTCHAR 06B0
ENCODING 1712
SWIDTH 765 0
DWIDTH 17 0
BBX 17 16 0 3
BITMAP
000300
000F00
001E00
007900
006700
001F00
003E80
003280
003900
401C00
400E00
400300
E00180
FFFF80
7FFF80
3FFF80
ENDCHAR
STARTCHAR 06B1
ENCODING 1713
SWIDTH 765 0
DWIDTH 17 0
BBX 17 17 0 3
BITMAP
000800
002B00
002F00
001E00
007900
006700
001F00
003C00
003000
003800
401C00
400E00
400300
E00180
FFFF80
7FFF80
3FFF80
ENDCHAR
STARTCHAR 06B2
ENCODING 1714
SWIDTH 765 0
DWIDTH 17 0
BBX 17 20 0 -2
BITMAP
000300
000F00
001E00
007900
006700
001F00
003C00
003000
003800
401C00
400E00
400300
E00180
FFFF80
7FFF80
3FFF80
000000
006000
01E000
03A000
ENDCHAR
STARTCHAR 06B3
ENCODING 1715
SWIDTH 765 0
DWIDTH 17 0
BBX 17 22 0 -4
BITMAP
000300
000F00
001E00
007900
006700
001F00
003C00
003000
003800
401C00
400E00
400300
E00180
FFFF80
7FFF80
3FFF80
000000
018000
018000
008000
006000
00E000
ENDCHAR
STARTCHAR 06B4
ENCODING 1716
SWIDTH 765 0
DWIDTH 17 0
BBX 17 17 0 3
BITMAP
002000
003B00
006F00
001E00
007900
006700
001F00
003C00
003000
003800
401C00
400E00
400300
E00180
FFFF80
7FFF80
3FFF80
ENDCHAR
STARTCHAR 06B5
ENCODING 1717
SWIDTH 450 0
DWIDTH 10 0
BBX 10 21 0 -1
BITMAP
0480
0300
0300
0100
0180
01C0
01C0
0080
0080
0080
0080
20C0
20C0
4040
4040
4040
C0C0
E1C0
7F80
7F00
3C00
ENDCHAR
STARTCHAR 06B6
ENCODING 1718
SWIDTH 450 0
DWIDTH 10 0
BBX 10 21 0 -1
BITMAP
0400
0700
0E00
0300
0180
01C0
01C0
0080
0080
0080
0080
20C0
20C0
4040
4040
4040
C0C0
E1C0
7F80
7F00
3C00
ENDCHAR
STARTCHAR 06B7
ENCODING 1719
SWIDTH 450 0
DWIDTH 10 0
BBX 10 21 0 -1
BITMAP
0200
0080
0600
0100
0180
01C0
01C0
0080
0080
0080
0080
20C0
20C0
4040
4040
4040
C0C0
E1C0
7F80
7F00
3C00
ENDCHAR
STARTCHAR 06B8
ENCODING 1720
SWIDTH 450 0
DWIDTH 10 0
BBX 10 21 0 -4
BITMAP
0100
0180
01C0
01C0
0080
0080
0080
0080
20C0
20C0
4040
4040
4040
C0C0
E1C0
7F80
7F00
3C00
0000
0800
0400
ENDCHAR
STARTCHAR 06B9
ENCODING 1721
SWIDTH 540 0
DWIDTH 12 0
BBX 11 17 1 -4
BITMAP
0E00
0E00
0600
0040
0060
4060
4060
8020
8020
8020
8060
E0E0
FFC0
7F80
0400
0E00
0E00
ENDCHAR
STARTCHAR 06BA
ENCODING 1722
SWIDTH 540 0
DWIDTH 12 0
BBX 11 11 1 -1
BITMAP
0040
0060
4060
4060
8020
8020
8020
8060
E0E0
FFC0
7F80
ENDCHAR
STARTCHAR 06BB
ENCODING 1723
SWIDTH 540 0
DWIDTH 12 0
BBX 11 18 1 0
BITMAP
0800
0800
0800
0F00
0900
1F00
0000
0040
0060
4060
4060
8020
8020
8020
8060
E0E0
FFC0
7F80
ENDCHAR
STARTCHAR 06BC
ENCODING 1724
SWIDTH 540 0
DWIDTH 12 0
BBX 11 17 1 -3
BITMAP
0E00
0E00
0600
0040
0060
4060
4060
8020
8020
8020
8060
E0E0
FFC0
7F80
1400
1400
0C00
ENDCHAR
STARTCHAR 06BD
ENCODING 1725
SWIDTH 540 0
DWIDTH 12 0
BBX 11 17 1 -1
BITMAP
0C00
1C00
0A00
1F00
1A00
1800
0040
0060
4060
4060
8020
8020
8020
8060
E0E0
FFC0
7F80
ENDCHAR
STARTCHAR 06BE
ENCODING 1726
SWIDTH 450 0
DWIDTH 10 0
BBX 10 11 -1 3
BITMAP
0800
0C00
0E00
0F00
1F00
1380
1680
3EC0
FFC0
FFC0
E380
ENDCHAR
STARTCHAR 06BF
ENCODING 1727
SWIDTH 585 0
DWIDTH 13 0
BBX 11 20 1 -4
BITMAP
0C00
1C00
0C00
0000
3C00
7FC0
FFC0
9F80
3800
6000
4300
8F00
9D00
8A00
8700
C300
E000
FC20
7FE0
3F80
ENDCHAR
STARTCHAR 06C0
ENCODING 1728
SWIDTH 360 0
DWIDTH 8 0
BBX 6 12 1 3
BITMAP
60
70
00
00
60
78
7C
9C
8C
FC
F8
F0
ENDCHAR
STARTCHAR 06C1
ENCODING 1729
SWIDTH 405 0
DWIDTH 9 0
BBX 8 5 1 2
BITMAP
38
3C
7F
CF
83
ENDCHAR
STARTCHAR 06C2
ENCODING 1730
SWIDTH 405 0
DWIDTH 9 0
BBX 8 10 1 2
BITMAP
30
28
30
00
00
38
3C
7F
CF
83
ENDCHAR
STARTCHAR 06C3
ENCODING 1731
SWIDTH 405 0
DWIDTH 9 0
BBX 8 11 1 2
BITMAP
08
7C
68
60
00
00
38
3C
7F
CF
83
ENDCHAR
STARTCHAR 06C4
ENCODING 1732
SWIDTH 450 0
DWIDTH 10 0
BBX 10 13 0 -2
BITMAP
0180
0380
03C0
06C0
0640
07C0
03C0
01C0
0CC0
9380
7F80
3F00
0400
ENDCHAR
STARTCHAR 06C5
ENCODING 1733
SWIDTH 450 0
DWIDTH 10 0
BBX 10 13 0 -2
BITMAP
0180
0380
03C0
06C0
0640
07C0
03C0
01C0
1FC0
8380
7F80
3F00
0400
ENDCHAR
STARTCHAR 06C6
ENCODING 1734
SWIDTH 450 0
DWIDTH 10 0
BBX 10 17 0 -2
BITMAP
0280
0380
0100
0000
0180
0380
03C0
06C0
0640
07C0
03C0
01C0
00C0
8380
7F80
3F00
0400
ENDCHAR
STARTCHAR 06C7
ENCODING 1735
SWIDTH 450 0
DWIDTH 10 0
BBX 10 19 0 -2
BITMAP
0180
0180
0180
0200
0000
0000
0180
0380
03C0
06C0
0640
07C0
03C0
01C0
00C0
8380
7F80
3F00
0400
ENDCHAR
STARTCHAR 06C8
ENCODING 1736
SWIDTH 450 0
DWIDTH 10 0
BBX 10 19 0 -1
BITMAP
0200
0200
0100
0100
0200
0000
0180
0380
03C0
06C0
0640
07C0
03C0
01C0
00C0
8380
7F80
3F00
0400
ENDCHAR
STARTCHAR 06C9
ENCODING 1737
SWIDTH 450 0
DWIDTH 10 0
BBX 10 17 0 -2
BITMAP
0100
0380
0680
0000
0180
0380
03C0
06C0
0640
07C0
03C0
01C0
00C0
8380
7F80
3F00
0400
ENDCHAR
STARTCHAR 06CA
ENCODING 1738
SWIDTH 450 0
DWIDTH 10 0
BBX 10 17 0 -1
BITMAP
05C0
0780
0E80
0000
0180
0380
03C0
06C0
0640
07C0
03C0
01C0
00C0
8380
7F80
3F00
0400
ENDCHAR
STARTCHAR 06CB
ENCODING 1739
SWIDTH 450 0
DWIDTH 10 0
BBX 10 20 0 -2
BITMAP
0600
0600
0600
05C0
0780
0E80
0000
0180
0380
03C0
06C0
0640
07C0
03C0
01C0
00C0
8380
7F80
3F00
0400
ENDCHAR
STARTCHAR 06CC
ENCODING 1740
SWIDTH 630 0
DWIDTH 14 0
BBX 11 11 2 -1
BITMAP
00E0
01E0
0320
4600
8600
87C0
83C0
80C0
83C0
FF80
FE00
ENDCHAR
STARTCHAR 06CD
ENCODING 1741
SWIDTH 630 0
DWIDTH 14 0
BBX 12 11 1 -1
BITMAP
0070
00F0
0190
6300
C300
43E0
41E0
4060
41E0
7FC0
7F00
ENDCHAR
STARTCHAR 06CE
ENCODING 1742
SWIDTH 630 0
DWIDTH 14 0
BBX 11 13 2 -1
BITMAP
2C00
3800
10E0
01E0
0320
4600
8600
87C0
83C0
80C0
83C0
FF80
FE00
ENDCHAR
STARTCHAR 06CF
ENCODING 1743
SWIDTH 450 0
DWIDTH 10 0
BBX 10 18 0 -2
BITMAP
0200
0700
0700
0000
0000
0180
0380
03C0
06C0
0640
07C0
03C0
01C0
00C0
8380
7F80
3F00
0400
ENDCHAR
STARTCHAR 06D0
ENCODING 1744
SWIDTH 630 0
DWIDTH 14 0
BBX 11 14 2 -4
BITMAP
00E0
01E0
0320
4600
8600
87C0
83C0
80C0
83C0
FF80
FE00
0000
0800
0800
ENDCHAR
STARTCHAR 06D1
ENCODING 1745
SWIDTH 630 0
DWIDTH 14 0
BBX 11 14 2 -4
BITMAP
00E0
01E0
0320
4600
8600
87C0
83C0
80C0
83C0
FF80
FE00
0000
1C00
0800
ENDCHAR
STARTCHAR 06D2
ENCODING 1746
SWIDTH 810 0
DWIDTH 18 0
BBX 17 11 1 -1
BITMAP
018000
038000
078000
1C8000
780000
F00000
C00000
800000
FFFF80
FFFE00
FFFC00
ENDCHAR
STARTCHAR 06D3
ENCODING 1747
SWIDTH 810 0
DWIDTH 18 0
BBX 17 14 1 -1
BITMAP
080000
180000
100000
018000
038000
078000
1C8000
780000
F00000
C00000
800000
FFFF80
FFFE00
FFFC00
ENDCHAR
STARTCHAR 06D4
ENCODING 1748
SWIDTH 225 0
DWIDTH 5 0
BBX 4 3 0 3
BITMAP
F0
F0
F0
ENDCHAR
STARTCHAR 06D5
ENCODING 1749
SWIDTH 360 0
DWIDTH 8 0
BBX 6 8 1 4
BITMAP
60
78
7C
9C
8C
FC
F8
F0
ENDCHAR
STARTCHAR 06D6
ENCODING 1750
SWIDTH 0 0
DWIDTH 0 0
BBX 10 8 -5 12
BITMAP
2000
3000
20C0
11C0
1FC0
7FC0
8000
FF00
ENDCHAR
STARTCHAR 06D7
ENCODING 1751
SWIDTH 0 0
DWIDTH 0 0
BBX 8 7 -4 13
BITMAP
30
16
16
1E
7E
80
FF
ENDCHAR
STARTCHAR 06D8
ENCODING 1752
SWIDTH 0 0
DWIDTH 0 0
BBX 4 3 -2 12
BITMAP
10
30
F0
ENDCHAR
STARTCHAR 06D9
ENCODING 1753
SWIDTH 0 0
DWIDTH 0 0
BBX 4 6 -2 13
BITMAP
90
D0
50
20
30
70
ENDCHAR
STARTCHAR 06DA
ENCODING 1754
SWIDTH 0 0
DWIDTH 0 0
BBX 5 7 -3 12
BITMAP
78
A0
C0
90
90
C0
78
ENDCHAR
STARTCHAR 06DB
ENCODING 1755
SWIDTH 0 0
DWIDTH 0 0
BBX 2 3 -1 12
BITMAP
80
80
C0
ENDCHAR
STARTCHAR 06DC
ENCODING 1756
SWIDTH 0 0
DWIDTH 0 0
BBX 10 4 -5 13
BITMAP
4540
87C0
8400
7800
ENDCHAR
STARTCHAR 06DD
ENCODING 1757
SWIDTH 1125 0
DWIDTH 25 0
BBX 23 24 1 -4
BITMAP
007C00
03FF80
1E00E0
1BFFB0
340058
200008
400004
400004
800002
800002
800002
800002
800002
800002
800002
800002
C00006
400004
60000C
300018
1C0070
13FFA0
0F01E0
01FE00
ENDCHAR
STARTCHAR 06DE
ENCODING 1758
SWIDTH 1080 0
DWIDTH 24 0
BBX 22 22 1 -2
BITMAP
003000
004800
008400
1FFFE0
120120
1400A0
180060
100020
300030
507828
904824
904824
507828
300030
100020
180060
1400A0
120120
1FFFE0
008400
004800
003000
ENDCHAR
STARTCHAR 06DF
ENCODING 1759
SWIDTH 0 0
DWIDTH 0 0
BBX 2 1 -1 12
BITMAP
C0
ENDCHAR
STARTCHAR 06E0
ENCODING 1760
SWIDTH 0 0
DWIDTH 0 0
BBX 2 1 -1 12
BITMAP
C0
ENDCHAR
STARTCHAR 06E1
ENCODING 1761
SWIDTH 0 0
DWIDTH 0 0
BBX 6 3 -3 12
BITMAP
70
18
FC
ENDCHAR
STARTCHAR 06E2
ENCODING 1762
SWIDTH 0 0
DWIDTH 0 0
BBX 4 5 -2 12
BITMAP
60
30
F0
80
80
ENDCHAR
STARTCHAR 06E3
ENCODING 1763
SWIDTH 0 0
DWIDTH 0 0
BBX 10 5 -5 -4
BITMAP
4540
87C0
8400
7C00
3000
ENDCHAR
STARTCHAR 06E4
ENCODING 1764
SWIDTH 0 0
DWIDTH 0 0
BBX 0 0 -1 11
BITMAP
ENDCHAR
STARTCHAR 06E5
ENCODING 1765
SWIDTH 225 0
DWIDTH 5 0
BBX 4 5 1 12
BITMAP
30
50
30
10
E0
ENDCHAR
STARTCHAR 06E6
ENCODING 1766
SWIDTH 360 0
DWIDTH 8 0
BBX 8 5 0 12
BITMAP
10
30
60
80
FF
ENDCHAR
STARTCHAR 06E7
ENCODING 1767
SWIDTH 0 0
DWIDTH 0 0
BBX 8 5 -4 12
BITMAP
10
30
60
80
FF
ENDCHAR
STARTCHAR 06E8
ENCODING 1768
SWIDTH 0 0
DWIDTH 0 0
BBX 6 6 -3 13
BITMAP
30
00
04
84
84
F8
ENDCHAR
STARTCHAR 06E9
ENCODING 1769
SWIDTH 585 0
DWIDTH 13 0
BBX 11 18 1 0
BITMAP
0400
0A00
1500
2A80
5F40
B1A0
B1A0
5B40
3B40
3B80
3B80
3B80
3B80
3B80
3B80
3540
5F40
FFE0
ENDCHAR
STARTCHAR 06EA
ENCODING 1770
SWIDTH 0 0
DWIDTH 0 0
BBX 3 2 -2 -3
BITMAP
E0
60
ENDCHAR
STARTCHAR 06EB
ENCODING 1771
SWIDTH 0 0
DWIDTH 0 0
BBX 4 3 -2 12
BITMAP
60
90
60
ENDCHAR
STARTCHAR 06EC
ENCODING 1772
SWIDTH 0 0
DWIDTH 0 0
BBX 2 1 -1 12
BITMAP
C0
ENDCHAR
STARTCHAR 06ED
ENCODING 1773
SWIDTH 0 0
DWIDTH 0 0
BBX 4 6 -2 -5
BITMAP
60
30
F0
80
80
80
ENDCHAR
STARTCHAR 06F0
ENCODING 1776
SWIDTH 540 0
DWIDTH 12 0
BBX 4 5 4 5
BITMAP
40
60
F0
F0
20
ENDCHAR
STARTCHAR 06F1
ENCODING 1777
SWIDTH 540 0
DWIDTH 12 0
BBX 4 12 4 4
BITMAP
C0
E0
E0
E0
70
30
30
30
10
10
10
10
ENDCHAR
STARTCHAR 06F2
ENCODING 1778
SWIDTH 540 0
DWIDTH 12 0
BBX 6 12 3 4
BITMAP
C4
FC
FC
7C
70
30
30
10
10
10
10
10
ENDCHAR
STARTCHAR 06F3
ENCODING 1779
SWIDTH 540 0
DWIDTH 12 0
BBX 9 12 2 3
BITMAP
0480
C480
FF80
FF00
FF00
7000
2000
3000
3000
3000
3000
2000
ENDCHAR
STARTCHAR 06F4
ENCODING 1780
SWIDTH 540 0
DWIDTH 12 0
BBX 8 13 2 3
BITMAP
0E
C9
F0
FF
7F
7E
30
30
10
10
10
10
10
ENDCHAR
STARTCHAR 06F5
ENCODING 1781
SWIDTH 540 0
DWIDTH 12 0
BBX 8 13 2 3
BITMAP
10
18
1C
1C
1E
27
23
41
C1
ED
FF
FE
70
ENDCHAR
STARTCHAR 06F6
ENCODING 1782
SWIDTH 540 0
DWIDTH 12 0
BBX 8 13 2 3
BITMAP
1C
3E
40
41
FF
7E
3C
18
30
30
20
20
20
ENDCHAR
STARTCHAR 06F7
ENCODING 1783
SWIDTH 540 0
DWIDTH 12 0
BBX 8 12 2 4
BITMAP
81
C3
C3
E3
66
24
34
14
18
18
08
08
ENDCHAR
STARTCHAR 06F8
ENCODING 1784
SWIDTH 540 0
DWIDTH 12 0
BBX 8 12 2 3
BITMAP
10
18
18
18
1C
2C
26
67
E7
C3
C3
81
ENDCHAR
STARTCHAR 06F9
ENCODING 1785
SWIDTH 540 0
DWIDTH 12 0
BBX 6 13 3 3
BITMAP
30
78
F8
98
F8
F8
F8
08
0C
0C
0C
0C
04
ENDCHAR
STARTCHAR 06FA
ENCODING 1786
SWIDTH 900 0
DWIDTH 20 0
BBX 19 18 1 -1
BITMAP
000200
000700
000200
0005C0
0007C0
000600
000000
004020
006160
406160
406320
803FE0
803FE0
803E60
C06000
E0E300
FFC780
7F8300
ENDCHAR
STARTCHAR 06FB
ENCODING 1787
SWIDTH 1080 0
DWIDTH 24 0
BBX 23 17 1 -1
BITMAP
000300
000380
000300
000100
000000
00003C
00407C
0061FE
406386
406E06
803FFE
803FFE
803FFE
C06000
E0E0C0
FFC1C0
7F80C0
ENDCHAR
STARTCHAR 06FC
ENCODING 1788
SWIDTH 540 0
DWIDTH 12 0
BBX 10 23 1 -5
BITMAP
1000
3800
3800
0000
0000
3E00
7F00
6000
C000
E380
FF00
7E00
7000
E000
C600
8700
8700
8200
C000
F800
FFC0
7F00
0600
ENDCHAR
STARTCHAR 06FD
ENCODING 1789
SWIDTH 450 0
DWIDTH 10 0
BBX 8 14 1 -3
BITMAP
3C
3C
6C
60
F7
7F
3C
30
60
40
16
16
16
16
ENDCHAR
STARTCHAR 06FE
ENCODING 1790
SWIDTH 360 0
DWIDTH 8 0
BBX 8 14 0 -5
BITMAP
08
1C
3E
2F
1F
7F
7F
C0
C0
4B
4B
6B
2B
20
ENDCHAR
STARTCHAR 1E80
ENCODING 7808
SWIDTH 990 0
DWIDTH 22 0
BBX 22 20 0 0
BITMAP
00E000
007000
003000
001000
000000
FEFE3C
783C08
3C3C10
3C1C10
1C1E10
1E1E20
1E2E20
0F2F20
0F4F40
0747C0
078780
078380
038380
030300
010100
ENDCHAR
STARTCHAR 1E81
ENCODING 7809
SWIDTH 720 0
DWIDTH 16 0
BBX 14 15 1 0
BITMAP
0E00
0700
0300
0100
0000
F3CC
F1C4
73C8
73C8
3CF0
3CF0
3CF0
1860
1860
1860
ENDCHAR
STARTCHAR 1E82
ENCODING 7810
SWIDTH 990 0
DWIDTH 22 0
BBX 22 20 0 0
BITMAP
001C00
001800
003000
002000
000000
FEFE3C
783C08
3C3C10
3C1C10
1C1E10
1E1E20
1E2E20
0F2F20
0F4F40
0747C0
078780
078380
038380
030300
010100
ENDCHAR
STARTCHAR 1E83
ENCODING 7811
SWIDTH 720 0
DWIDTH 16 0
BBX 14 15 1 0
BITMAP
01C0
0380
0300
0200
0000
F3CC
F1C4
73C8
73C8
3CF0
3CF0
3CF0
1860
1860
1860
ENDCHAR
STARTCHAR 1E84
ENCODING 7812
SWIDTH 990 0
DWIDTH 22 0
BBX 22 19 0 0
BITMAP
00CE00
00EE00
00CC00
000000
FEFE3C
783C08
3C3C10
3C1C10
1C1E10
1E1E20
1E2E20
0F2F20
0F4F40
0747C0
078780
078380
038380
030300
010100
ENDCHAR
STARTCHAR 1E85
ENCODING 7813
SWIDTH 720 0
DWIDTH 16 0
BBX 14 15 1 0
BITMAP
0CC0
0CC0
0CC0
0000
0000
F3CC
F1C4
73C8
73C8
3CF0
3CF0
3CF0
1860
1860
1860
ENDCHAR
STARTCHAR 1EA0
ENCODING 7840
SWIDTH 720 0
DWIDTH 16 0
BBX 14 20 1 -5
BITMAP
0200
0300
0300
0780
0780
0BC0
0BC0
09C0
11E0
10E0
3FF0
2070
4078
4078
E07C
0000
0600
0700
0700
0600
ENDCHAR
STARTCHAR 1EA1
ENCODING 7841
SWIDTH 495 0
DWIDTH 11 0
BBX 10 15 1 -5
BITMAP
7F00
E700
E700
6700
1F00
3700
6700
E700
FF40
F380
0000
1800
1C00
1C00
1800
ENDCHAR
STARTCHAR 1EA2
ENCODING 7842
SWIDTH 720 0
DWIDTH 16 0
BBX 14 20 1 0
BITMAP
0380
06C0
0180
0100
0000
0200
0300
0300
0780
0780
0BC0
0BC0
09C0
11E0
10E0
3FF0
2070
4078
4078
E07C
ENDCHAR
STARTCHAR 1EA3
ENCODING 7843
SWIDTH 495 0
DWIDTH 11 0
BBX 10 15 1 0
BITMAP
1E00
1600
0400
0800
0000
7F00
E700
E700
6700
1F00
3700
6700
E700
FF40
F380
ENDCHAR
STARTCHAR 1EA4
ENCODING 7844
SWIDTH 720 0
DWIDTH 16 0
BBX 14 20 1 0
BITMAP
01C0
0100
0300
0480
0000
0200
0300
0300
0780
0780
0BC0
0BC0
09C0
11E0
10E0
3FF0
2070
4078
4078
E07C
ENDCHAR
STARTCHAR 1EA5
ENCODING 7845
SWIDTH 495 0
DWIDTH 11 0
BBX 10 20 1 0
BITMAP
0F00
0E00
0C00
0800
0000
1C00
3E00
2200
4100
0000
7F00
E700
E700
6700
1F00
3700
6700
E700
FF40
F380
ENDCHAR
STARTCHAR 1EA6
ENCODING 7846
SWIDTH 720 0
DWIDTH 16 0
BBX 14 20 1 0
BITMAP
0E00
0300
0300
0480
0000
0200
0300
0300
0780
0780
0BC0
0BC0
09C0
11E0
10E0
3FF0
2070
4078
4078
E07C
ENDCHAR
STARTCHAR 1EA7
ENCODING 7847
SWIDTH 495 0
DWIDTH 11 0
BBX 10 20 1 0
BITMAP
3800
1800
0800
0C00
0000
1C00
3E00
2200
4100
0000
7F00
E700
E700
6700
1F00
3700
6700
E700
FF40
F380
ENDCHAR
STARTCHAR 1EA8
ENCODING 7848
SWIDTH 720 0
DWIDTH 16 0
BBX 14 20 1 0
BITMAP
0380
0100
0300
0480
0000
0200
0300
0300
0780
0780
0BC0
0BC0
09C0
11E0
10E0
3FF0
2070
4078
4078
E07C
ENDCHAR
STARTCHAR 1EA9
ENCODING 7849
SWIDTH 495 0
DWIDTH 11 0
BBX 10 20 1 0
BITMAP
1E00
1200
0400
0000
0000
1C00
3E00
2200
4100
0000
7F00
E700
E700
6700
1F00
3700
6700
E700
FF40
F380
ENDCHAR
STARTCHAR 1EAA
ENCODING 7850
SWIDTH 720 0
DWIDTH 16 0
BBX 14 20 1 0
BITMAP
0600
09C0
0300
0480
0000
0200
0300
0300
0780
0780
0BC0
0BC0
09C0
11E0
10E0
3FF0
2070
4078
4078
E07C
ENDCHAR
STARTCHAR 1EAB
ENCODING 7851
SWIDTH 495 0
DWIDTH 11 0
BBX 10 19 1 0
BITMAP
3900
7F00
4E00
0000
1C00
3E00
2200
4100
0000
7F00
E700
E700
6700
1F00
3700
6700
E700
FF40
F380
ENDCHAR
STARTCHAR 1EAC
ENCODING 7852
SWIDTH 720 0
DWIDTH 16 0
BBX 14 23 1 -5
BITMAP
0300
0480
0000
0200
0300
0300
0780
0780
0BC0
0BC0
09C0
11E0
10E0
3FF0
2070
4078
4078
E07C
0000
0600
0700
0700
0600
ENDCHAR
STARTCHAR 1EAD
ENCODING 7853
SWIDTH 495 0
DWIDTH 11 0
BBX 10 20 1 -5
BITMAP
1C00
3E00
2200
4100
0000
7F00
E700
E700
6700
1F00
3700
6700
E700
FF40
F380
0000
1800
1C00
1C00
1800
ENDCHAR
STARTCHAR 1EAE
ENCODING 7854
SWIDTH 720 0
DWIDTH 16 0
BBX 14 20 1 0
BITMAP
0180
0300
0840
0780
0000
0200
0300
0300
0780
0780
0BC0
0BC0
09C0
11E0
10E0
3FF0
2070
4078
4078
E07C
ENDCHAR
STARTCHAR 1EAF
ENCODING 7855
SWIDTH 495 0
DWIDTH 11 0
BBX 10 20 1 0
BITMAP
0F00
0E00
0C00
0800
0000
4100
3F00
3E00
0000
0000
7F00
E700
E700
6700
1F00
3700
6700
E700
FF40
F380
ENDCHAR
STARTCHAR 1EB0
ENCODING 7856
SWIDTH 720 0
DWIDTH 16 0
BBX 14 20 1 0
BITMAP
0700
0300
0840
0780
0000
0200
0300
0300
0780
0780
0BC0
0BC0
09C0
11E0
10E0
3FF0
2070
4078
4078
E07C
ENDCHAR
STARTCHAR 1EB1
ENCODING 7857
SWIDTH 495 0
DWIDTH 11 0
BBX 10 20 1 0
BITMAP
3800
1800
0800
0C00
0000
4100
3F00
3E00
0000
0000
7F00
E700
E700
6700
1F00
3700
6700
E700
FF40
F380
ENDCHAR
STARTCHAR 1EB2
ENCODING 7858
SWIDTH 720 0
DWIDTH 16 0
BBX 14 20 1 0
BITMAP
0380
0100
0840
0780
0000
0200
0300
0300
0780
0780
0BC0
0BC0
09C0
11E0
10E0
3FF0
2070
4078
4078
E07C
ENDCHAR
STARTCHAR 1EB3
ENCODING 7859
SWIDTH 495 0
DWIDTH 11 0
BBX 10 20 1 0
BITMAP
1C00
3600
0400
0800
0000
4100
3F00
3E00
0000
0000
7F00
E700
E700
6700
1F00
3700
6700
E700
FF40
F380
ENDCHAR
STARTCHAR 1EB4
ENCODING 7860
SWIDTH 720 0
DWIDTH 16 0
BBX 14 20 1 0
BITMAP
0600
09C0
0840
0780
0000
0200
0300
0300
0780
0780
0BC0
0BC0
09C0
11E0
10E0
3FF0
2070
4078
4078
E07C
ENDCHAR
STARTCHAR 1EB5
ENCODING 7861
SWIDTH 495 0
DWIDTH 11 0
BBX 10 19 1 0
BITMAP
3900
7F00
4E00
0000
4100
3F00
3E00
0000
0000
7F00
E700
E700
6700
1F00
3700
6700
E700
FF40
F380
ENDCHAR
STARTCHAR 1EB6
ENCODING 7862
SWIDTH 720 0
DWIDTH 16 0
BBX 14 23 1 -5
BITMAP
0840
0780
0000
0200
0300
0300
0780
0780
0BC0
0BC0
09C0
11E0
10E0
3FF0
2070
4078
4078
E07C
0000
0600
0700
0700
0600
ENDCHAR
STARTCHAR 1EB7
ENCODING 7863
SWIDTH 495 0
DWIDTH 11 0
BBX 10 20 1 -5
BITMAP
4100
3F00
3E00
0000
0000
7F00
E700
E700
6700
1F00
3700
6700
E700
FF40
F380
0000
1800
1C00
1C00
1800
ENDCHAR
STARTCHAR 1EB8
ENCODING 7864
SWIDTH 675 0
DWIDTH 15 0
BBX 14 20 0 -5
BITMAP
FFF8
3C38
1C08
1C08
1C48
1C40
1CC0
1FC0
1CC0
1C40
1C44
1C04
1C0C
3C18
3FF8
4000
0300
0780
0780
0300
ENDCHAR
STARTCHAR 1EB9
ENCODING 7865
SWIDTH 450 0
DWIDTH 10 0
BBX 8 15 1 -5
BITMAP
3E
67
E3
E3
FF
E0
E0
F1
7B
3E
00
18
3C
3C
18
ENDCHAR
STARTCHAR 1EBA
ENCODING 7866
SWIDTH 675 0
DWIDTH 15 0
BBX 14 20 0 0
BITMAP
03C0
0240
0080
0000
0000
FFF8
3C38
1C08
1C08
1C48
1C40
1CC0
1FC0
1CC0
1C40
1C44
1C04
1C0C
3C18
7FF8
ENDCHAR
STARTCHAR 1EBB
ENCODING 7867
SWIDTH 450 0
DWIDTH 10 0
BBX 8 15 1 0
BITMAP
3E
06
04
08
00
3E
67
E3
E3
FF
E0
E0
F1
7B
3E
ENDCHAR
STARTCHAR 1EBC
ENCODING 7868
SWIDTH 675 0
DWIDTH 15 0
BBX 14 19 0 0
BITMAP
07A0
07E0
09E0
0000
FFF8
3C38
1C08
1C08
1C48
1C40
1CC0
1FC0
1CC0
1C40
1C44
1C04
1C0C
3C18
7FF8
ENDCHAR
STARTCHAR 1EBD
ENCODING 7869
SWIDTH 450 0
DWIDTH 10 0
BBX 8 15 1 0
BITMAP
39
7F
5E
00
00
3E
67
E3
E3
FF
E0
E0
F1
7B
3E
ENDCHAR
STARTCHAR 1EBE
ENCODING 7870
SWIDTH 675 0
DWIDTH 15 0
BBX 14 20 0 0
BITMAP
01C0
0100
0380
06C0
0000
FFF8
3C38
1C08
1C08
1C48
1C40
1CC0
1FC0
1CC0
1C40
1C44
1C04
1C0C
3C18
7FF8
ENDCHAR
STARTCHAR 1EBF
ENCODING 7871
SWIDTH 450 0
DWIDTH 10 0
BBX 8 20 1 0
BITMAP
0E
0C
08
18
00
1C
36
22
41
00
3E
67
E3
E3
FF
E0
E0
F1
7B
3E
ENDCHAR
STARTCHAR 1EC0
ENCODING 7872
SWIDTH 675 0
DWIDTH 15 0
BBX 14 20 0 0
BITMAP
0700
0100
0380
06C0
0000
FFF8
3C38
1C08
1C08
1C48
1C40
1CC0
1FC0
1CC0
1C40
1C44
1C04
1C0C
3C18
7FF8
ENDCHAR
STARTCHAR 1EC1
ENCODING 7873
SWIDTH 450 0
DWIDTH 10 0
BBX 8 20 1 0
BITMAP
78
38
18
08
00
1C
36
22
41
00
3E
67
E3
E3
FF
E0
E0
F1
7B
3E
ENDCHAR
STARTCHAR 1EC2
ENCODING 7874
SWIDTH 675 0
DWIDTH 15 0
BBX 14 20 0 0
BITMAP
0380
0000
0380
06C0
0000
FFF8
3C38
1C08
1C08
1C48
1C40
1CC0
1FC0
1CC0
1C40
1C44
1C04
1C0C
3C18
7FF8
ENDCHAR
STARTCHAR 1EC3
ENCODING 7875
SWIDTH 450 0
DWIDTH 10 0
BBX 8 20 1 0
BITMAP
1C
36
04
08
00
1C
36
22
41
00
3E
67
E3
E3
FF
E0
E0
F1
7B
3E
ENDCHAR
STARTCHAR 1EC4
ENCODING 7876
SWIDTH 675 0
DWIDTH 15 0
BBX 14 20 0 0
BITMAP
0720
09C0
0380
06C0
0000
FFF8
3C38
1C08
1C08
1C48
1C40
1CC0
1FC0
1CC0
1C40
1C44
1C04
1C0C
3C18
7FF8
ENDCHAR
STARTCHAR 1EC5
ENCODING 7877
SWIDTH 450 0
DWIDTH 10 0
BBX 8 19 1 0
BITMAP
39
7F
4E
00
1C
36
22
41
00
3E
67
E3
E3
FF
E0
E0
F1
7B
3E
ENDCHAR
STARTCHAR 1EC6
ENCODING 7878
SWIDTH 675 0
DWIDTH 15 0
BBX 14 23 0 -5
BITMAP
0380
06C0
0000
FFF8
3C38
1C08
1C08
1C48
1C40
1CC0
1FC0
1CC0
1C40
1C44
1C04
1C0C
3C18
3FF8
4000
0300
0780
0780
0300
ENDCHAR
STARTCHAR 1EC7
ENCODING 7879
SWIDTH 450 0
DWIDTH 10 0
BBX 8 20 1 -5
BITMAP
1C
36
22
41
00
3E
67
E3
E3
FF
E0
E0
F1
7B
3E
00
18
3C
3C
18
ENDCHAR
STARTCHAR 1EC8
ENCODING 7880
SWIDTH 405 0
DWIDTH 9 0
BBX 8 20 0 0
BITMAP
1C
36
04
08
00
FF
3C
1C
1C
1C
1C
1C
1C
1C
1C
1C
1C
1C
3C
7E
ENDCHAR
STARTCHAR 1EC9
ENCODING 7881
SWIDTH 270 0
DWIDTH 6 0
BBX 5 15 1 0
BITMAP
F8
18
20
20
00
F0
70
70
70
70
70
70
70
70
F0
ENDCHAR
STARTCHAR 1ECA
ENCODING 7882
SWIDTH 405 0
DWIDTH 9 0
BBX 8 20 0 -5
BITMAP
FF
3C
1C
1C
1C
1C
1C
1C
1C
1C
1C
1C
1C
3C
3E
40
18
1C
1C
18
ENDCHAR
STARTCHAR 1ECB
ENCODING 7883
SWIDTH 270 0
DWIDTH 6 0
BBX 4 20 1 -5
BITMAP
60
70
70
00
00
F0
70
70
70
70
70
70
70
70
F0
00
60
F0
F0
60
ENDCHAR
STARTCHAR 1ECC
ENCODING 7884
SWIDTH 765 0
DWIDTH 17 0
BBX 15 20 1 -5
BITMAP
07E0
1C38
381C
701C
F01E
F01E
F00E
F00E
F00E
F01E
F01E
701E
781C
3838
0EF0
0100
0180
0380
0380
0180
ENDCHAR
STARTCHAR 1ECD
ENCODING 7885
SWIDTH 495 0
DWIDTH 11 0
BBX 9 15 1 -5
BITMAP
3E00
6300
E380
E380
E380
E380
E380
E380
6300
3600
0800
1C00
1C00
1C00
0800
ENDCHAR
STARTCHAR 1ECE
ENCODING 7886
SWIDTH 765 0
DWIDTH 17 0
BBX 15 20 1 0
BITMAP
0380
06C0
0080
0100
0000
07E0
1C38
381C
701C
F01E
F01E
F00E
F00E
F00E
F01E
F01E
701E
781C
3838
0FF0
ENDCHAR
STARTCHAR 1ECF
ENCODING 7887
SWIDTH 495 0
DWIDTH 11 0
BBX 9 15 1 0
BITMAP
1E00
1600
0400
0800
0000
3E00
6300
E380
E380
E380
E380
E380
E380
6300
3E00
ENDCHAR
STARTCHAR 1ED0
ENCODING 7888
SWIDTH 765 0
DWIDTH 17 0
BBX 15 20 1 0
BITMAP
01C0
0180
0180
06C0
0000
07E0
1C38
381C
701C
F01E
F01E
F00E
F00E
F00E
F01E
F01E
701E
781C
3838
0FF0
ENDCHAR
STARTCHAR 1ED1
ENCODING 7889
SWIDTH 495 0
DWIDTH 11 0
BBX 9 20 1 0
BITMAP
0F00
0E00
0C00
0800
0000
1C00
3E00
2200
4100
0000
3E00
6300
E380
E380
E380
E380
E380
E380
6300
3E00
ENDCHAR
STARTCHAR 1ED2
ENCODING 7890
SWIDTH 765 0
DWIDTH 17 0
BBX 15 20 1 0
BITMAP
0700
0180
0180
06C0
0000
07E0
1C38
381C
701C
F01E
F01E
F00E
F00E
F00E
F01E
F01E
701E
781C
3838
0FF0
ENDCHAR
STARTCHAR 1ED3
ENCODING 7891
SWIDTH 495 0
DWIDTH 11 0
BBX 9 20 1 0
BITMAP
3800
1800
0800
0C00
0000
1C00
3E00
2200
4100
0000
3E00
6300
E380
E380
E380
E380
E380
E380
6300
3E00
ENDCHAR
STARTCHAR 1ED4
ENCODING 7892
SWIDTH 765 0
DWIDTH 17 0
BBX 15 20 1 0
BITMAP
0380
0080
0180
06C0
0000
07E0
1C38
381C
701C
F01E
F01E
F00E
F00E
F00E
F01E
F01E
701E
781C
3838
0FF0
ENDCHAR
STARTCHAR 1ED5
ENCODING 7893
SWIDTH 495 0
DWIDTH 11 0
BBX 9 20 1 0
BITMAP
1E00
1200
0400
0000
0000
1C00
3E00
2200
4100
0000
3E00
6300
E380
E380
E380
E380
E380
E380
6300
3E00
ENDCHAR
STARTCHAR 1ED6
ENCODING 7894
SWIDTH 765 0
DWIDTH 17 0
BBX 15 20 1 0
BITMAP
0720
01C0
0180
06C0
0000
07E0
1C38
381C
701C
F01E
F01E
F00E
F00E
F00E
F01E
F01E
701E
781C
3838
0FF0
ENDCHAR
STARTCHAR 1ED7
ENCODING 7895
SWIDTH 495 0
DWIDTH 11 0
BBX 9 19 1 0
BITMAP
3900
7F00
4E00
0000
1C00
3E00
2200
4100
0000
3E00
6300
E380
E380
E380
E380
E380
E380
6300
3E00
ENDCHAR
STARTCHAR 1ED8
ENCODING 7896
SWIDTH 765 0
DWIDTH 17 0
BBX 15 23 1 -5
BITMAP
0180
06C0
0000
07E0
1C38
381C
701C
F01E
F01E
F00E
F00E
F00E
F01E
F01E
701E
781C
3838
0EF0
0100
0180
0380
0380
0180
ENDCHAR
STARTCHAR 1ED9
ENCODING 7897
SWIDTH 495 0
DWIDTH 11 0
BBX 9 20 1 -5
BITMAP
1C00
3E00
2200
4100
0000
3E00
6300
E380
E380
E380
E380
E380
E380
6300
3600
0800
1C00
1C00
1C00
0800
ENDCHAR
STARTCHAR 1EDA
ENCODING 7898
SWIDTH 765 0
DWIDTH 17 0
BBX 16 20 1 0
BITMAP
00E0
01C0
0180
0100
0003
07C3
1C39
381E
701C
F01E
F01E
F00E
F00E
F00E
F01E
F01E
701E
781C
3838
0FF0
ENDCHAR
STARTCHAR 1EDB
ENCODING 7899
SWIDTH 540 0
DWIDTH 12 0
BBX 12 15 1 0
BITMAP
0700
0E00
0C00
0800
0070
3E70
6320
E3C0
E380
E380
E380
E380
E380
6300
3E00
ENDCHAR
STARTCHAR 1EDC
ENCODING 7900
SWIDTH 765 0
DWIDTH 17 0
BBX 16 20 1 0
BITMAP
0700
0300
0300
0180
0003
07C3
1C39
381E
701C
F01E
F01E
F00E
F00E
F00E
F01E
F01E
701E
781C
3838
0FF0
ENDCHAR
STARTCHAR 1EDD
ENCODING 7901
SWIDTH 540 0
DWIDTH 12 0
BBX 12 15 1 0
BITMAP
3800
1800
0800
0400
0070
3E70
6320
E3C0
E380
E380
E380
E380
E380
6300
3E00
ENDCHAR
STARTCHAR 1EDE
ENCODING 7902
SWIDTH 765 0
DWIDTH 17 0
BBX 16 20 1 0
BITMAP
03C0
0640
0080
0100
0003
07C3
1C39
381E
701C
F01E
F01E
F00E
F00E
F00E
F01E
F01E
701E
781C
3838
0FF0
ENDCHAR
STARTCHAR 1EDF
ENCODING 7903
SWIDTH 540 0
DWIDTH 12 0
BBX 12 15 1 0
BITMAP
1E00
1600
0400
0800
0070
3E70
6320
E3C0
E380
E380
E380
E380
E380
6300
3E00
ENDCHAR
STARTCHAR 1EE0
ENCODING 7904
SWIDTH 765 0
DWIDTH 17 0
BBX 16 19 1 0
BITMAP
0720
0FE0
09C0
0003
07C3
1C39
381E
701C
F01E
F01E
F00E
F00E
F00E
F01E
F01E
701E
781C
3838
0FF0
ENDCHAR
STARTCHAR 1EE1
ENCODING 7905
SWIDTH 540 0
DWIDTH 12 0
BBX 12 15 1 0
BITMAP
3900
7F00
4E00
0000
0070
3E70
6320
E3C0
E380
E380
E380
E380
E380
6300
3E00
ENDCHAR
STARTCHAR 1EE2
ENCODING 7906
SWIDTH 765 0
DWIDTH 17 0
BBX 16 21 1 -5
BITMAP
0003
07C3
1C39
381E
701C
F01E
F01E
F00E
F00E
F00E
F01E
F01E
701E
781C
3838
0EF0
0100
0180
0380
0380
0180
ENDCHAR
STARTCHAR 1EE3
ENCODING 7907
SWIDTH 540 0
DWIDTH 12 0
BBX 12 16 1 -5
BITMAP
0070
3E70
6320
E3C0
E380
E380
E380
E380
E380
6300
3600
0800
1C00
1C00
1C00
0800
ENDCHAR
STARTCHAR 1EE4
ENCODING 7908
SWIDTH 720 0
DWIDTH 16 0
BBX 15 20 1 -5
BITMAP
FE3E
7818
7808
7808
7808
7808
7808
7808
7808
7808
7808
3810
3810
3C30
1FC0
0000
0300
0780
0780
0300
ENDCHAR
STARTCHAR 1EE5
ENCODING 7909
SWIDTH 540 0
DWIDTH 12 0
BBX 10 15 1 -5
BITMAP
F3C0
73C0
73C0
73C0
73C0
73C0
73C0
73C0
73C0
3FC0
0000
0C00
1E00
1E00
0C00
ENDCHAR
STARTCHAR 1EE6
ENCODING 7910
SWIDTH 720 0
DWIDTH 16 0
BBX 15 20 1 0
BITMAP
0780
0480
0100
0000
0000
FE3E
7818
7808
7808
7808
7808
7808
7808
7808
7808
7808
3810
3810
3C30
1FC0
ENDCHAR
STARTCHAR 1EE7
ENCODING 7911
SWIDTH 540 0
DWIDTH 12 0
BBX 10 15 1 0
BITMAP
1E00
0300
0400
0000
0000
F3C0
73C0
73C0
73C0
73C0
73C0
73C0
73C0
73C0
3FC0
ENDCHAR
STARTCHAR 1EE8
ENCODING 7912
SWIDTH 810 0
DWIDTH 18 0
BBX 18 20 1 0
BITMAP
01C000
018000
030080
0201C0
000080
FE3F00
781800
780800
780800
780800
780800
780800
780800
780800
780800
780800
381000
381000
3C3000
1FC000
ENDCHAR
STARTCHAR 1EE9
ENCODING 7913
SWIDTH 585 0
DWIDTH 13 0
BBX 13 15 1 0
BITMAP
0700
0600
0C00
0800
0000
F3F8
73D8
73F0
73C0
73C0
73C0
73C0
73C0
73C0
3FC0
ENDCHAR
STARTCHAR 1EEA
ENCODING 7914
SWIDTH 810 0
DWIDTH 18 0
BBX 18 20 1 0
BITMAP
0E0000
060000
030080
0101C0
000080
FE3F00
781800
780800
780800
780800
780800
780800
780800
780800
780800
780800
381000
381000
3C3000
1FC000
ENDCHAR
STARTCHAR 1EEB
ENCODING 7915
SWIDTH 585 0
DWIDTH 13 0
BBX 13 15 1 0
BITMAP
3800
1800
0C00
0400
0000
F3F8
73D8
73F0
73C0
73C0
73C0
73C0
73C0
73C0
3FC0
ENDCHAR
STARTCHAR 1EEC
ENCODING 7916
SWIDTH 810 0
DWIDTH 18 0
BBX 18 20 1 0
BITMAP
01C000
036000
004080
0081C0
000080
FE3F00
781800
780800
780800
780800
780800
780800
780800
780800
780800
780800
381000
381000
3C3000
1FC000
ENDCHAR
STARTCHAR 1EED
ENCODING 7917
SWIDTH 585 0
DWIDTH 13 0
BBX 13 15 1 0
BITMAP
1E00
0300
0400
0000
0000
F3F8
73D8
73F0
73C0
73C0
73C0
73C0
73C0
73C0
3FC0
ENDCHAR
STARTCHAR 1EEE
ENCODING 7918
SWIDTH 810 0
DWIDTH 18 0
BBX 18 19 1 0
BITMAP
0F4000
0FC080
03C1C0
000080
FE3F00
781800
780800
780800
780800
780800
780800
780800
780800
780800
780800
381000
381000
3C3000
1FC000
ENDCHAR
STARTCHAR 1EEF
ENCODING 7919
SWIDTH 585 0
DWIDTH 13 0
BBX 13 15 1 0
BITMAP
1880
3F80
4F00
0000
0000
F3F8
73D8
73F0
73C0
73C0
73C0
73C0
73C0
73C0
3FC0
ENDCHAR
STARTCHAR 1EF0
ENCODING 7920
SWIDTH 810 0
DWIDTH 18 0
BBX 18 23 1 -5
BITMAP
000080
0001C0
000080
FE3F00
781800
780800
780800
780800
780800
780800
780800
780800
780800
780800
381000
381000
3C3000
1FC000
000000
030000
078000
078000
030000
ENDCHAR
STARTCHAR 1EF1
ENCODING 7921
SWIDTH 585 0
DWIDTH 13 0
BBX 13 15 1 -5
BITMAP
F3F8
73D8
73F0
73C0
73C0
73C0
73C0
73C0
73C0
3FC0
0000
0C00
1E00
1E00
0C00
ENDCHAR
STARTCHAR 1EF2
ENCODING 7922
SWIDTH 720 0
DWIDTH 16 0
BBX 16 20 0 0
BITMAP
0700
0380
0180
0080
0000
FE1F
3C04
3C04
1E08
1E10
0F10
0720
07A0
03C0
03C0
03C0
03C0
03C0
03C0
07E0
ENDCHAR
STARTCHAR 1EF3
ENCODING 7923
SWIDTH 495 0
DWIDTH 11 0
BBX 9 20 1 -5
BITMAP
3800
1800
0800
0400
0000
F180
F080
7100
7900
3A00
3A00
1E00
1C00
0C00
0800
0800
0800
D000
D000
E000
ENDCHAR
STARTCHAR 1EF4
ENCODING 7924
SWIDTH 720 0
DWIDTH 16 0
BBX 16 20 0 -5
BITMAP
FE1F
3C04
3C04
1E08
1E10
0F10
0720
07A0
03C0
03C0
03C0
03C0
03C0
03C0
07E0
0000
0180
03C0
03C0
0180
ENDCHAR
STARTCHAR 1EF5
ENCODING 7925
SWIDTH 495 0
DWIDTH 11 0
BBX 9 15 1 -5
BITMAP
F180
F080
7100
7900
3A00
3A00
1E00
1C00
0C00
0800
0800
0980
D380
D380
E180
ENDCHAR
STARTCHAR 1EF6
ENCODING 7926
SWIDTH 720 0
DWIDTH 16 0
BBX 16 20 0 0
BITMAP
03C0
0240
0080
0000
0000
FE1F
3C04
3C04
1E08
1E10
0F10
0720
07A0
03C0
03C0
03C0
03C0
03C0
03C0
07E0
ENDCHAR
STARTCHAR 1EF7
ENCODING 7927
SWIDTH 495 0
DWIDTH 11 0
BBX 9 20 1 -5
BITMAP
3E00
0600
0800
0800
0000
F180
F080
7100
7900
3A00
3A00
1E00
1C00
0C00
0800
0800
0800
D000
D000
E000
ENDCHAR
STARTCHAR 1EF8
ENCODING 7928
SWIDTH 720 0
DWIDTH 16 0
BBX 16 19 0 0
BITMAP
07A0
07E0
01E0
0000
FE1F
3C04
3C04
1E08
1E10
0F10
0720
07A0
03C0
03C0
03C0
03C0
03C0
03C0
07E0
ENDCHAR
STARTCHAR 1EF9
ENCODING 7929
SWIDTH 495 0
DWIDTH 11 0
BBX 9 20 1 -5
BITMAP
3900
7F00
4E00
0000
0000
F180
F080
7100
7900
3A00
3A00
1E00
1C00
0C00
0800
0800
0800
D000
D000
E000
ENDCHAR
STARTCHAR 200C
ENCODING 8204
SWIDTH 0 0
DWIDTH 0 0
BBX 1 15 -1 -2
BITMAP
80
80
80
80
80
80
80
80
80
80
80
80
80
80
80
ENDCHAR
STARTCHAR 200D
ENCODING 8205
SWIDTH 0 0
DWIDTH 0 0
BBX 4 17 -2 -3
BITMAP
90
60
60
D0
40
40
40
40
40
40
40
40
40
40
40
40
40
ENDCHAR
STARTCHAR 200E
ENCODING 8206
SWIDTH 0 0
DWIDTH 0 0
BBX 4 17 0 -3
BITMAP
20
10
F0
A0
80
80
80
80
80
80
80
80
80
80
80
80
80
ENDCHAR
STARTCHAR 200F
ENCODING 8207
SWIDTH 0 0
DWIDTH 0 0
BBX 4 17 -4 -3
BITMAP
40
80
F0
50
10
10
10
10
10
10
10
10
10
10
10
10
10
ENDCHAR
STARTCHAR 2013
ENCODING 8211
SWIDTH 495 0
DWIDTH 11 0
BBX 11 2 0 4
BITMAP
FFE0
FFE0
ENDCHAR
STARTCHAR 2014
ENCODING 8212
SWIDTH 990 0
DWIDTH 22 0
BBX 22 2 0 4
BITMAP
FFFFFC
FFFFFC
ENDCHAR
STARTCHAR 2015
ENCODING 8213
SWIDTH 990 0
DWIDTH 22 0
BBX 21 2 1 5
BITMAP
FFFFF8
FFFFF8
ENDCHAR
STARTCHAR 2017
ENCODING 8215
SWIDTH 495 0
DWIDTH 11 0
BBX 11 4 0 -5
BITMAP
FFE0
FFE0
FFE0
FFE0
ENDCHAR
STARTCHAR 2018
ENCODING 8216
SWIDTH 315 0
DWIDTH 7 0
BBX 4 7 2 8
BITMAP
20
40
80
80
F0
F0
E0
ENDCHAR
STARTCHAR 2019
ENCODING 8217
SWIDTH 315 0
DWIDTH 7 0
BBX 4 7 2 8
BITMAP
E0
F0
F0
30
20
20
C0
ENDCHAR
STARTCHAR 201A
ENCODING 8218
SWIDTH 315 0
DWIDTH 7 0
BBX 4 7 2 -4
BITMAP
E0
F0
F0
30
20
40
80
ENDCHAR
STARTCHAR 201B
ENCODING 8219
SWIDTH 315 0
DWIDTH 7 0
BBX 4 7 2 8
BITMAP
E0
F0
F0
80
80
40
20
ENDCHAR
STARTCHAR 201C
ENCODING 8220
SWIDTH 495 0
DWIDTH 11 0
BBX 9 7 1 8
BITMAP
3080
4300
8200
8400
F780
F780
7380
ENDCHAR
STARTCHAR 201D
ENCODING 8221
SWIDTH 495 0
DWIDTH 11 0
BBX 9 7 1 8
BITMAP
E300
F780
F780
1080
3080
2100
4200
ENDCHAR
STARTCHAR 201E
ENCODING 8222
SWIDTH 495 0
DWIDTH 11 0
BBX 9 7 1 -4
BITMAP
E780
F780
F780
1080
2080
2100
C600
ENDCHAR
STARTCHAR 2020
ENCODING 8224
SWIDTH 495 0
DWIDTH 11 0
BBX 9 19 1 -4
BITMAP
0800
1C00
1C00
0800
0800
FF80
EB80
0800
1C00
1C00
0800
0800
0800
0800
0800
0800
0800
0800
0800
ENDCHAR
STARTCHAR 2021
ENCODING 8225
SWIDTH 495 0
DWIDTH 11 0
BBX 9 19 1 -4
BITMAP
0800
1C00
0C00
0800
EB80
FF80
0800
0C00
0800
0800
0800
0800
1C00
0800
EB80
FF80
0800
0C00
1C00
ENDCHAR
STARTCHAR 2022
ENCODING 8226
SWIDTH 360 0
DWIDTH 8 0
BBX 6 6 1 4
BITMAP
78
FC
FC
FC
F8
30
ENDCHAR
STARTCHAR 2026
ENCODING 8230
SWIDTH 990 0
DWIDTH 22 0
BBX 18 3 2 0
BITMAP
E0E1C0
E1E1C0
E0E1C0
ENDCHAR
STARTCHAR 202A
ENCODING 8234
SWIDTH 765 0
DWIDTH 17 0
BBX 11 14 3 0
BITMAP
FFE0
8020
8020
8020
8020
8020
8020
8020
8020
8020
8020
8020
8020
FFE0
ENDCHAR
STARTCHAR 202B
ENCODING 8235
SWIDTH 765 0
DWIDTH 17 0
BBX 11 14 3 0
BITMAP
FFE0
8020
8020
8020
8020
8020
8020
8020
8020
8020
8020
8020
8020
FFE0
ENDCHAR
STARTCHAR 202C
ENCODING 8236
SWIDTH 765 0
DWIDTH 17 0
BBX 11 14 3 0
BITMAP
FFE0
8020
8020
8020
8020
8020
8020
8020
8020
8020
8020
8020
8020
FFE0
ENDCHAR
STARTCHAR 202D
ENCODING 8237
SWIDTH 765 0
DWIDTH 17 0
BBX 11 14 3 0
BITMAP
FFE0
8020
8020
8020
8020
8020
8020
8020
8020
8020
8020
8020
8020
FFE0
ENDCHAR
STARTCHAR 202E
ENCODING 8238
SWIDTH 765 0
DWIDTH 17 0
BBX 11 14 3 0
BITMAP
FFE0
8020
8020
8020
8020
8020
8020
8020
8020
8020
8020
8020
8020
FFE0
ENDCHAR
STARTCHAR 2030
ENCODING 8240
SWIDTH 990 0
DWIDTH 22 0
BBX 21 16 1 -1
BITMAP
781000
CC2000
CC6000
CC4000
CC8000
CD8000
CD0000
320000
06F1E0
059BB0
099BB0
199BB8
119BB8
219BB0
60B1B0
4060C0
ENDCHAR
STARTCHAR 2032
ENCODING 8242
SWIDTH 270 0
DWIDTH 6 0
BBX 4 7 2 8
BITMAP
70
F0
E0
E0
C0
C0
80
ENDCHAR
STARTCHAR 2033
ENCODING 8243
SWIDTH 540 0
DWIDTH 12 0
BBX 9 7 2 8
BITMAP
7380
F380
E700
E700
C600
C600
8400
ENDCHAR
STARTCHAR 2039
ENCODING 8249
SWIDTH 315 0
DWIDTH 7 0
BBX 5 10 1 0
BITMAP
08
18
30
70
E0
60
70
30
18
08
ENDCHAR
STARTCHAR 203A
ENCODING 8250
SWIDTH 315 0
DWIDTH 7 0
BBX 5 10 1 0
BITMAP
80
40
60
30
38
38
30
60
40
80
ENDCHAR
STARTCHAR 203C
ENCODING 8252
SWIDTH 585 0
DWIDTH 13 0
BBX 9 15 2 0
BITMAP
E380
E380
E380
E380
E380
6180
6180
4100
4100
4100
0000
0000
E380
E380
E380
ENDCHAR
STARTCHAR 203E
ENCODING 8254
SWIDTH 315 0
DWIDTH 7 0
BBX 8 2 0 12
BITMAP
FF
FF
ENDCHAR
STARTCHAR 2044
ENCODING 8260
SWIDTH 180 0
DWIDTH 4 0
BBX 11 16 -4 -1
BITMAP
0020
0060
0040
0080
0180
0100
0200
0600
0400
0800
1800
1000
2000
6000
4000
8000
ENDCHAR
STARTCHAR 206A
ENCODING 8298
SWIDTH 765 0
DWIDTH 17 0
BBX 11 14 3 0
BITMAP
FFE0
8020
8020
8020
8020
8020
8020
8020
8020
8020
8020
8020
8020
FFE0
ENDCHAR
STARTCHAR 206B
ENCODING 8299
SWIDTH 765 0
DWIDTH 17 0
BBX 11 14 3 0
BITMAP
FFE0
8020
8020
8020
8020
8020
8020
8020
8020
8020
8020
8020
8020
FFE0
ENDCHAR
STARTCHAR 206C
ENCODING 8300
SWIDTH 765 0
DWIDTH 17 0
BBX 11 14 3 0
BITMAP
FFE0
8020
8020
8020
8020
8020
8020
8020
8020
8020
8020
8020
8020
FFE0
ENDCHAR
STARTCHAR 206D
ENCODING 8301
SWIDTH 765 0
DWIDTH 17 0
BBX 11 14 3 0
BITMAP
FFE0
8020
8020
8020
8020
8020
8020
8020
8020
8020
8020
8020
8020
FFE0
ENDCHAR
STARTCHAR 206E
ENCODING 8302
SWIDTH 765 0
DWIDTH 17 0
BBX 11 14 3 0
BITMAP
FFE0
8020
8020
8020
8020
8020
8020
8020
8020
8020
8020
8020
8020
FFE0
ENDCHAR
STARTCHAR 206F
ENCODING 8303
SWIDTH 765 0
DWIDTH 17 0
BBX 11 14 3 0
BITMAP
FFE0
8020
8020
8020
8020
8020
8020
8020
8020
8020
8020
8020
8020
FFE0
ENDCHAR
STARTCHAR 207F
ENCODING 8319
SWIDTH 360 0
DWIDTH 8 0
BBX 6 6 1 6
BITMAP
F8
CC
CC
CC
CC
DC
ENDCHAR
STARTCHAR 20A3
ENCODING 8355
SWIDTH 495 0
DWIDTH 11 0
BBX 11 15 0 0
BITMAP
FFE0
3CE0
3C20
3C20
3C20
3C80
3C80
3F80
3D80
3C80
3C80
3C00
FF00
3C00
7E00
ENDCHAR
STARTCHAR 20A4
ENCODING 8356
SWIDTH 495 0
DWIDTH 11 0
BBX 11 15 0 0
BITMAP
0F00
1980
19C0
3980
3800
FF00
FF00
1C00
FF00
1C00
0C00
0C20
7FE0
9FC0
7780
ENDCHAR
STARTCHAR 20A7
ENCODING 8359
SWIDTH 990 0
DWIDTH 22 0
BBX 21 15 0 0
BITMAP
FF0000
39C000
38E800
38F800
38F800
38FFF0
39F918
3BFB88
3C3BC0
3839F0
3838F8
383838
383A18
381918
7C1FF0
ENDCHAR
STARTCHAR 20AA
ENCODING 8362
SWIDTH 765 0
DWIDTH 17 0
BBX 14 11 1 0
BITMAP
FFCC
E0CC
E0CC
E0CC
EECC
EECC
EECC
EE0C
EE0C
EFFC
EFF8
ENDCHAR
STARTCHAR 20AB
ENCODING 8363
SWIDTH 495 0
DWIDTH 11 0
BBX 8 12 2 3
BITMAP
0E
06
1E
36
6E
E6
C6
C6
E6
6E
34
FF
ENDCHAR
STARTCHAR 20AC
ENCODING 8364
SWIDTH 495 0
DWIDTH 11 0
BBX 11 15 0 0
BITMAP
07C0
1C40
3840
3840
7800
7000
FF80
7000
FF80
7000
7000
7000
3820
3840
0F80
ENDCHAR
STARTCHAR 2105
ENCODING 8453
SWIDTH 855 0
DWIDTH 19 0
BBX 17 16 1 -1
BITMAP
780C00
DC1800
C81000
C03000
C06000
C04000
ECC000
718E00
011B00
033180
063180
043180
0C3180
183300
101B00
300400
ENDCHAR
STARTCHAR 2113
ENCODING 8467
SWIDTH 360 0
DWIDTH 8 0
BBX 8 15 0 0
BITMAP
1E
3A
3A
3A
3A
3C
3C
38
38
38
78
B8
39
3A
1E
ENDCHAR
STARTCHAR 2116
ENCODING 8470
SWIDTH 990 0
DWIDTH 22 0
BBX 22 15 0 0
BITMAP
3E0700
0F0780
078980
078800
07C800
07C8F0
05E9D8
04F9D8
04F9DC
0479D8
0438D8
083860
C81800
E819F8
7809F8
ENDCHAR
STARTCHAR 2122
ENCODING 8482
SWIDTH 990 0
DWIDTH 22 0
BBX 22 9 0 6
BITMAP
FF3C3C
9D1C38
1C2E58
1C2E58
1C2798
1C2798
1C2318
1C2318
3C323C
ENDCHAR
STARTCHAR 2126
ENCODING 8486
SWIDTH 765 0
DWIDTH 17 0
BBX 17 16 0 0
BITMAP
0FF800
1C1C00
380E00
380E00
780F00
780F00
780700
780700
780F00
780F00
380F00
380E00
DC1C80
C63180
7F7F80
7F7F00
ENDCHAR
STARTCHAR 212E
ENCODING 8494
SWIDTH 585 0
DWIDTH 13 0
BBX 11 12 1 0
BITMAP
0F00
30C0
4040
C060
C060
FFE0
C000
C000
C000
4020
6040
1F80
ENDCHAR
STARTCHAR 2153
ENCODING 8531
SWIDTH 765 0
DWIDTH 17 0
BBX 15 16 1 -1
BITMAP
2018
6010
6030
6060
6040
60C0
6180
F900
033C
064C
040C
0C1C
1806
1006
3064
6038
ENDCHAR
STARTCHAR 2154
ENCODING 8532
SWIDTH 765 0
DWIDTH 17 0
BBX 16 16 0 -1
BITMAP
380C
5C08
0C18
1830
1020
2060
7CC0
FC80
019E
0326
0206
060E
0C03
0803
1832
301C
ENDCHAR
STARTCHAR 215B
ENCODING 8539
SWIDTH 765 0
DWIDTH 17 0
BBX 15 16 1 -1
BITMAP
2018
6010
6030
6060
6040
60C0
6180
F900
033E
0636
0436
0C1C
183E
1066
3026
6018
ENDCHAR
STARTCHAR 215C
ENCODING 8540
SWIDTH 765 0
DWIDTH 17 0
BBX 15 16 1 -1
BITMAP
7018
B810
1030
3060
3840
18C0
9980
F100
033E
0636
0436
0C1C
183E
1066
3026
6018
ENDCHAR
STARTCHAR 215D
ENCODING 8541
SWIDTH 765 0
DWIDTH 17 0
BBX 15 16 1 -1
BITMAP
7818
7810
C030
F860
1840
08C0
8980
F100
033E
0636
0436
0C1C
183E
1066
3026
6018
ENDCHAR
STARTCHAR 215E
ENCODING 8542
SWIDTH 765 0
DWIDTH 17 0
BBX 15 16 1 -1
BITMAP
F818
F830
1820
1060
10C0
3080
2180
2300
023E
0636
0C36
081C
183E
3066
2026
6018
ENDCHAR
STARTCHAR 2190
ENCODING 8592
SWIDTH 990 0
DWIDTH 22 0
BBX 20 8 1 2
BITMAP
080000
180000
300000
600000
FFFFF0
700000
100000
080000
ENDCHAR
STARTCHAR 2191
ENCODING 8593
SWIDTH 495 0
DWIDTH 11 0
BBX 7 20 2 -5
BITMAP
10
10
38
7C
D6
10
10
10
10
10
10
10
10
10
10
10
10
10
10
10
ENDCHAR
STARTCHAR 2192
ENCODING 8594
SWIDTH 990 0
DWIDTH 22 0
BBX 20 8 1 2
BITMAP
000100
000080
0000C0
000060
FFFFF0
000060
0000C0
000180
ENDCHAR
STARTCHAR 2193
ENCODING 8595
SWIDTH 495 0
DWIDTH 11 0
BBX 7 20 2 -5
BITMAP
10
10
10
10
10
10
10
10
10
10
10
10
10
10
10
D6
7C
38
10
10
ENDCHAR
STARTCHAR 2194
ENCODING 8596
SWIDTH 990 0
DWIDTH 22 0
BBX 20 8 1 2
BITMAP
080100
180080
3000C0
600060
FFFFF0
700060
1000C0
080180
ENDCHAR
STARTCHAR 2195
ENCODING 8597
SWIDTH 495 0
DWIDTH 11 0
BBX 7 21 2 -5
BITMAP
10
18
38
7C
92
10
10
10
10
10
10
10
10
10
10
10
D6
7C
38
10
10
ENDCHAR
STARTCHAR 21A8
ENCODING 8616
SWIDTH 495 0
DWIDTH 11 0
BBX 7 23 2 -7
BITMAP
10
18
38
7C
92
10
10
10
10
10
10
10
10
10
10
10
D6
7C
38
10
10
00
FE
ENDCHAR
STARTCHAR 2202
ENCODING 8706
SWIDTH 495 0
DWIDTH 11 0
BBX 10 16 1 0
BITMAP
0200
0F80
1F80
0080
0040
0040
0F80
3080
3080
6080
E080
E100
E100
E200
E200
7C00
ENDCHAR
STARTCHAR 2206
ENCODING 8710
SWIDTH 630 0
DWIDTH 14 0
BBX 12 14 1 1
BITMAP
0600
0600
0F00
0B00
0B00
1180
1180
21C0
20C0
40C0
4060
8060
8070
FFF0
ENDCHAR
STARTCHAR 220F
ENCODING 8719
SWIDTH 810 0
DWIDTH 18 0
BBX 18 20 0 -5
BITMAP
7FFF80
180700
180700
180700
180700
180700
180700
180700
180700
180700
180700
180700
180700
180700
180700
180700
180700
180700
180700
FE1FC0
ENDCHAR
STARTCHAR 2211
ENCODING 8721
SWIDTH 720 0
DWIDTH 16 0
BBX 15 20 0 -5
BITMAP
7FFC
3004
3802
1C00
0C00
0600
0700
0380
0180
0080
0100
0200
0200
0400
0800
1000
1002
2006
7FFE
FFFE
ENDCHAR
STARTCHAR 2212
ENCODING 8722
SWIDTH 585 0
DWIDTH 13 0
BBX 12 1 0 7
BITMAP
FFF0
ENDCHAR
STARTCHAR 2215
ENCODING 8725
SWIDTH 180 0
DWIDTH 4 0
BBX 11 16 -4 -1
BITMAP
0020
0060
0040
0080
0180
0100
0200
0600
0400
0800
1800
1000
2000
6000
4000
8000
ENDCHAR
STARTCHAR 2219
ENCODING 8729
SWIDTH 270 0
DWIDTH 6 0
BBX 4 3 1 6
BITMAP
E0
F0
E0
ENDCHAR
STARTCHAR 221A
ENCODING 8730
SWIDTH 540 0
DWIDTH 12 0
BBX 11 20 1 -1
BITMAP
0020
0020
0020
0020
0040
0040
0040
0040
0040
7040
9080
1880
0880
0C80
0480
0680
0300
0300
0100
0100
ENDCHAR
STARTCHAR 221E
ENCODING 8734
SWIDTH 720 0
DWIDTH 16 0
BBX 14 9 1 1
BITMAP
30F0
C988
8704
8304
8604
8604
8D04
7C88
0070
ENDCHAR
STARTCHAR 221F
ENCODING 8735
SWIDTH 990 0
DWIDTH 22 0
BBX 14 14 4 0
BITMAP
8000
8000
8000
8000
8000
8000
8000
8000
8000
8000
8000
8000
8000
FFFC
ENDCHAR
STARTCHAR 2229
ENCODING 8745
SWIDTH 720 0
DWIDTH 16 0
BBX 12 15 2 1
BITMAP
1F80
70C0
4020
C030
C030
8010
8010
8010
8010
8010
8010
8010
8010
8010
8010
ENDCHAR
STARTCHAR 222B
ENCODING 8747
SWIDTH 270 0
DWIDTH 6 0
BBX 6 22 0 -2
BITMAP
1C
1C
20
20
30
30
30
30
30
30
30
30
30
30
30
30
30
30
10
10
E0
E0
ENDCHAR
STARTCHAR 2248
ENCODING 8776
SWIDTH 540 0
DWIDTH 12 0
BBX 12 9 0 3
BITMAP
3810
7E10
87E0
81C0
0000
0000
7C10
DFB0
83E0
ENDCHAR
STARTCHAR 2260
ENCODING 8800
SWIDTH 540 0
DWIDTH 12 0
BBX 12 18 0 -3
BITMAP
0040
00C0
0080
0080
0180
0100
FFF0
0200
0200
0600
0400
FFF0
0800
0800
1800
1000
3000
3000
ENDCHAR
STARTCHAR 2261
ENCODING 8801
SWIDTH 585 0
DWIDTH 13 0
BBX 12 9 0 3
BITMAP
FFF0
FFF0
0000
0000
FFF0
0000
0000
0000
FFF0
ENDCHAR
STARTCHAR 2264
ENCODING 8804
SWIDTH 540 0
DWIDTH 12 0
BBX 12 16 0 -2
BITMAP
0010
0070
03E0
0F00
3C00
E000
F000
3C00
0780
01E0
0070
0000
0000
0000
FFF0
FFF0
ENDCHAR
STARTCHAR 2265
ENCODING 8805
SWIDTH 540 0
DWIDTH 12 0
BBX 12 16 0 -2
BITMAP
8000
E000
7C00
0F00
03E0
0070
00F0
03C0
1F00
7800
E000
0000
0000
0000
FFF0
FFF0
ENDCHAR
STARTCHAR 2302
ENCODING 8962
SWIDTH 585 0
DWIDTH 13 0
BBX 10 12 2 1
BITMAP
0C00
1400
2200
4100
8080
8040
8040
8040
8040
8040
8040
FFC0
ENDCHAR
STARTCHAR 2310
ENCODING 8976
SWIDTH 585 0
DWIDTH 13 0
BBX 12 5 0 5
BITMAP
FFF0
FFF0
C000
C000
C000
ENDCHAR
STARTCHAR 2320
ENCODING 8992
SWIDTH 585 0
DWIDTH 13 0
BBX 5 25 6 -6
BITMAP
30
78
80
80
80
80
80
80
80
80
80
80
80
80
80
80
80
80
80
80
80
80
80
80
80
ENDCHAR
STARTCHAR 2321
ENCODING 8993
SWIDTH 585 0
DWIDTH 13 0
BBX 4 25 3 -6
BITMAP
10
10
10
10
10
10
10
10
10
10
10
10
10
10
10
10
10
10
10
10
10
10
90
E0
40
ENDCHAR
STARTCHAR 2500
ENCODING 9472
SWIDTH 720 0
DWIDTH 16 0
BBX 16 2 0 6
BITMAP
FFFF
FFFF
ENDCHAR
STARTCHAR 2502
ENCODING 9474
SWIDTH 720 0
DWIDTH 16 0
BBX 2 27 7 -7
BITMAP
C0
C0
C0
C0
C0
C0
C0
C0
C0
C0
C0
C0
C0
C0
C0
C0
C0
C0
C0
C0
C0
C0
C0
C0
C0
C0
C0
ENDCHAR
STARTCHAR 250C
ENCODING 9484
SWIDTH 720 0
DWIDTH 16 0
BBX 9 15 7 -7
BITMAP
FF80
FF80
C000
C000
C000
C000
C000
C000
C000
C000
C000
C000
C000
C000
C000
ENDCHAR
STARTCHAR 2510
ENCODING 9488
SWIDTH 720 0
DWIDTH 16 0
BBX 9 15 0 -7
BITMAP
FF80
FF80
0180
0180
0180
0180
0180
0180
0180
0180
0180
0180
0180
0180
0180
ENDCHAR
STARTCHAR 2514
ENCODING 9492
SWIDTH 720 0
DWIDTH 16 0
BBX 9 14 7 6
BITMAP
C000
C000
C000
C000
C000
C000
C000
C000
C000
C000
C000
C000
FF80
FF80
ENDCHAR
STARTCHAR 2518
ENCODING 9496
SWIDTH 720 0
DWIDTH 16 0
BBX 9 14 0 6
BITMAP
0180
0180
0180
0180
0180
0180
0180
0180
0180
0180
0180
0180
FF80
FF80
ENDCHAR
STARTCHAR 251C
ENCODING 9500
SWIDTH 720 0
DWIDTH 16 0
BBX 9 27 7 -7
BITMAP
C000
C000
C000
C000
C000
C000
C000
C000
C000
C000
C000
C000
FF80
FF80
C000
C000
C000
C000
C000
C000
C000
C000
C000
C000
C000
C000
C000
ENDCHAR
STARTCHAR 2524
ENCODING 9508
SWIDTH 720 0
DWIDTH 16 0
BBX 9 27 0 -7
BITMAP
0180
0180
0180
0180
0180
0180
0180
0180
0180
0180
0180
0180
FF80
FF80
0180
0180
0180
0180
0180
0180
0180
0180
0180
0180
0180
0180
0180
ENDCHAR
STARTCHAR 252C
ENCODING 9516
SWIDTH 720 0
DWIDTH 16 0
BBX 16 15 0 -7
BITMAP
FFFF
FFFF
0180
0180
0180
0180
0180
0180
0180
0180
0180
0180
0180
0180
0180
ENDCHAR
STARTCHAR 2534
ENCODING 9524
SWIDTH 720 0
DWIDTH 16 0
BBX 16 14 0 6
BITMAP
0180
0180
0180
0180
0180
0180
0180
0180
0180
0180
0180
0180
FFFF
FFFF
ENDCHAR
STARTCHAR 253C
ENCODING 9532
SWIDTH 720 0
DWIDTH 16 0
BBX 16 27 0 -7
BITMAP
0180
0180
0180
0180
0180
0180
0180
0180
0180
0180
0180
0180
FFFF
FFFF
0180
0180
0180
0180
0180
0180
0180
0180
0180
0180
0180
0180
0180
ENDCHAR
STARTCHAR 2550
ENCODING 9552
SWIDTH 720 0
DWIDTH 16 0
BBX 16 6 0 4
BITMAP
FFFF
FFFF
0000
0000
FFFF
FFFF
ENDCHAR
STARTCHAR 2551
ENCODING 9553
SWIDTH 720 0
DWIDTH 16 0
BBX 6 27 5 -7
BITMAP
CC
CC
CC
CC
CC
CC
CC
CC
CC
CC
CC
CC
CC
CC
CC
CC
CC
CC
CC
CC
CC
CC
CC
CC
CC
CC
CC
ENDCHAR
STARTCHAR 2552
ENCODING 9554
SWIDTH 720 0
DWIDTH 16 0
BBX 9 17 7 -7
BITMAP
FF80
FF80
C000
C000
FF80
FF80
C000
C000
C000
C000
C000
C000
C000
C000
C000
C000
C000
ENDCHAR
STARTCHAR 2553
ENCODING 9555
SWIDTH 720 0
DWIDTH 16 0
BBX 11 15 5 -7
BITMAP
FFE0
FFE0
CC00
CC00
CC00
CC00
CC00
CC00
CC00
CC00
CC00
CC00
CC00
CC00
CC00
ENDCHAR
STARTCHAR 2554
ENCODING 9556
SWIDTH 720 0
DWIDTH 16 0
BBX 11 17 5 -7
BITMAP
FFE0
FFE0
C000
C000
CFE0
CFE0
CC00
CC00
CC00
CC00
CC00
CC00
CC00
CC00
CC00
CC00
CC00
ENDCHAR
STARTCHAR 2555
ENCODING 9557
SWIDTH 720 0
DWIDTH 16 0
BBX 9 17 0 -7
BITMAP
FF80
FF80
0180
0180
FF80
FF80
0180
0180
0180
0180
0180
0180
0180
0180
0180
0180
0180
ENDCHAR
STARTCHAR 2556
ENCODING 9558
SWIDTH 720 0
DWIDTH 16 0
BBX 11 15 0 -7
BITMAP
FFE0
FFE0
0660
0660
0660
0660
0660
0660
0660
0660
0660
0660
0660
0660
0660
ENDCHAR
STARTCHAR 2557
ENCODING 9559
SWIDTH 720 0
DWIDTH 16 0
BBX 11 17 0 -7
BITMAP
FFE0
FFE0
0060
0060
FE60
FE60
0660
0660
0660
0660
0660
0660
0660
0660
0660
0660
0660
ENDCHAR
STARTCHAR 2558
ENCODING 9560
SWIDTH 720 0
DWIDTH 16 0
BBX 9 16 7 4
BITMAP
C000
C000
C000
C000
C000
C000
C000
C000
C000
C000
FF80
FF80
C000
C000
FF80
FF80
ENDCHAR
STARTCHAR 2559
ENCODING 9561
SWIDTH 720 0
DWIDTH 16 0
BBX 11 14 5 6
BITMAP
CC00
CC00
CC00
CC00
CC00
CC00
CC00
CC00
CC00
CC00
CC00
CC00
FFE0
FFE0
ENDCHAR
STARTCHAR 255A
ENCODING 9562
SWIDTH 720 0
DWIDTH 16 0
BBX 11 16 5 4
BITMAP
CC00
CC00
CC00
CC00
CC00
CC00
CC00
CC00
CC00
CC00
CFE0
CFE0
C000
C000
FFE0
FFE0
ENDCHAR
STARTCHAR 255B
ENCODING 9563
SWIDTH 720 0
DWIDTH 16 0
BBX 9 16 0 4
BITMAP
0180
0180
0180
0180
0180
0180
0180
0180
0180
0180
FF80
FF80
0180
0180
FF80
FF80
ENDCHAR
STARTCHAR 255C
ENCODING 9564
SWIDTH 720 0
DWIDTH 16 0
BBX 11 14 0 6
BITMAP
0660
0660
0660
0660
0660
0660
0660
0660
0660
0660
0660
0660
FFE0
FFE0
ENDCHAR
STARTCHAR 255D
ENCODING 9565
SWIDTH 720 0
DWIDTH 16 0
BBX 11 16 0 4
BITMAP
0660
0660
0660
0660
0660
0660
0660
0660
0660
0660
FE60
FE60
0060
0060
FFE0
FFE0
ENDCHAR
STARTCHAR 255E
ENCODING 9566
SWIDTH 720 0
DWIDTH 16 0
BBX 9 27 7 -7
BITMAP
C000
C000
C000
C000
C000
C000
C000
C000
C000
C000
FF80
FF80
C000
C000
FF80
FF80
C000
C000
C000
C000
C000
C000
C000
C000
C000
C000
C000
ENDCHAR
STARTCHAR 255F
ENCODING 9567
SWIDTH 720 0
DWIDTH 16 0
BBX 11 27 5 -7
BITMAP
CC00
CC00
CC00
CC00
CC00
CC00
CC00
CC00
CC00
CC00
CC00
CC00
CFE0
CFE0
CC00
CC00
CC00
CC00
CC00
CC00
CC00
CC00
CC00
CC00
CC00
CC00
CC00
ENDCHAR
STARTCHAR 2560
ENCODING 9568
SWIDTH 720 0
DWIDTH 16 0
BBX 11 27 5 -7
BITMAP
CC00
CC00
CC00
CC00
CC00
CC00
CC00
CC00
CC00
CC00
CFE0
CFE0
C000
C000
CFE0
CFE0
CC00
CC00
CC00
CC00
CC00
CC00
CC00
CC00
CC00
CC00
CC00
ENDCHAR
STARTCHAR 2561
ENCODING 9569
SWIDTH 720 0
DWIDTH 16 0
BBX 9 27 0 -7
BITMAP
0180
0180
0180
0180
0180
0180
0180
0180
0180
0180
FF80
FF80
0180
0180
FF80
FF80
0180
0180
0180
0180
0180
0180
0180
0180
0180
0180
0180
ENDCHAR
STARTCHAR 2562
ENCODING 9570
SWIDTH 720 0
DWIDTH 16 0
BBX 11 27 0 -7
BITMAP
0660
0660
0660
0660
0660
0660
0660
0660
0660
0660
0660
0660
FE60
FE60
0660
0660
0660
0660
0660
0660
0660
0660
0660
0660
0660
0660
0660
ENDCHAR
STARTCHAR 2563
ENCODING 9571
SWIDTH 720 0
DWIDTH 16 0
BBX 11 27 0 -7
BITMAP
0660
0660
0660
0660
0660
0660
0660
0660
0660
0660
FE60
FE60
0060
0060
FE60
FE60
0660
0660
0660
0660
0660
0660
0660
0660
0660
0660
0660
ENDCHAR
STARTCHAR 2564
ENCODING 9572
SWIDTH 720 0
DWIDTH 16 0
BBX 16 17 0 -7
BITMAP
FFFF
FFFF
0000
0000
FFFF
FFFF
0180
0180
0180
0180
0180
0180
0180
0180
0180
0180
0180
ENDCHAR
STARTCHAR 2565
ENCODING 9573
SWIDTH 720 0
DWIDTH 16 0
BBX 16 15 0 -7
BITMAP
FFFF
FFFF
0660
0660
0660
0660
0660
0660
0660
0660
0660
0660
0660
0660
0660
ENDCHAR
STARTCHAR 2566
ENCODING 9574
SWIDTH 720 0
DWIDTH 16 0
BBX 16 17 0 -7
BITMAP
FFFF
FFFF
0000
0000
FE7F
FE7F
0660
0660
0660
0660
0660
0660
0660
0660
0660
0660
0660
ENDCHAR
STARTCHAR 2567
ENCODING 9575
SWIDTH 720 0
DWIDTH 16 0
BBX 16 16 0 4
BITMAP
0180
0180
0180
0180
0180
0180
0180
0180
0180
0180
FFFF
FFFF
0000
0000
FFFF
FFFF
ENDCHAR
STARTCHAR 2568
ENCODING 9576
SWIDTH 720 0
DWIDTH 16 0
BBX 16 14 0 6
BITMAP
0660
0660
0660
0660
0660
0660
0660
0660
0660
0660
0660
0660
FFFF
FFFF
ENDCHAR
STARTCHAR 2569
ENCODING 9577
SWIDTH 720 0
DWIDTH 16 0
BBX 16 16 0 4
BITMAP
0660
0660
0660
0660
0660
0660
0660
0660
0660
0660
FE7F
FE7F
0000
0000
FFFF
FFFF
ENDCHAR
STARTCHAR 256A
ENCODING 9578
SWIDTH 720 0
DWIDTH 16 0
BBX 16 27 0 -7
BITMAP
0180
0180
0180
0180
0180
0180
0180
0180
0180
0180
FFFF
FFFF
0180
0180
FFFF
FFFF
0180
0180
0180
0180
0180
0180
0180
0180
0180
0180
0180
ENDCHAR
STARTCHAR 256B
ENCODING 9579
SWIDTH 720 0
DWIDTH 16 0
BBX 16 27 0 -7
BITMAP
0660
0660
0660
0660
0660
0660
0660
0660
0660
0660
0660
0660
FFFF
FFFF
0660
0660
0660
0660
0660
0660
0660
0660
0660
0660
0660
0660
0660
ENDCHAR
STARTCHAR 256C
ENCODING 9580
SWIDTH 720 0
DWIDTH 16 0
BBX 16 27 0 -7
BITMAP
0660
0660
0660
0660
0660
0660
0660
0660
0660
0660
FE7F
FE7F
0000
0000
FE7F
FE7F
0660
0660
0660
0660
0660
0660
0660
0660
0660
0660
0660
ENDCHAR
STARTCHAR 2580
ENCODING 9600
SWIDTH 720 0
DWIDTH 16 0
BBX 16 13 0 7
BITMAP
FFFF
FFFF
FFFF
FFFF
FFFF
FFFF
FFFF
FFFF
FFFF
FFFF
FFFF
FFFF
FFFF
ENDCHAR
STARTCHAR 2584
ENCODING 9604
SWIDTH 720 0
DWIDTH 16 0
BBX 16 14 0 -7
BITMAP
FFFF
FFFF
FFFF
FFFF
FFFF
FFFF
FFFF
FFFF
FFFF
FFFF
FFFF
FFFF
FFFF
FFFF
ENDCHAR
STARTCHAR 2588
ENCODING 9608
SWIDTH 720 0
DWIDTH 16 0
BBX 16 27 0 -7
BITMAP
FFFF
FFFF
FFFF
FFFF
FFFF
FFFF
FFFF
FFFF
FFFF
FFFF
FFFF
FFFF
FFFF
FFFF
FFFF
FFFF
FFFF
FFFF
FFFF
FFFF
FFFF
FFFF
FFFF
FFFF
FFFF
FFFF
FFFF
ENDCHAR
STARTCHAR 258C
ENCODING 9612
SWIDTH 720 0
DWIDTH 16 0
BBX 8 27 0 -7
BITMAP
FF
FF
FF
FF
FF
FF
FF
FF
FF
FF
FF
FF
FF
FF
FF
FF
FF
FF
FF
FF
FF
FF
FF
FF
FF
FF
FF
ENDCHAR
STARTCHAR 2590
ENCODING 9616
SWIDTH 720 0
DWIDTH 16 0
BBX 8 27 8 -7
BITMAP
FF
FF
FF
FF
FF
FF
FF
FF
FF
FF
FF
FF
FF
FF
FF
FF
FF
FF
FF
FF
FF
FF
FF
FF
FF
FF
FF
ENDCHAR
STARTCHAR 2591
ENCODING 9617
SWIDTH 720 0
DWIDTH 16 0
BBX 15 25 1 -5
BITMAP
8610
0000
10C2
10C2
0000
8610
8610
0000
10C2
0000
0000
8610
0000
10C2
10C2
0000
8610
0000
0000
10C2
0000
8610
8610
0000
10C2
ENDCHAR
STARTCHAR 2592
ENCODING 9618
SWIDTH 720 0
DWIDTH 16 0
BBX 16 25 0 -5
BITMAP
4969
0000
B696
B696
0000
4969
4969
0000
B696
0000
0000
4969
0000
B696
B696
0000
4969
0000
0000
B696
0000
4969
4969
0000
B696
ENDCHAR
STARTCHAR 2593
ENCODING 9619
SWIDTH 720 0
DWIDTH 16 0
BBX 16 27 0 -7
BITMAP
696D
FFFF
9696
9696
FFFF
696D
696D
FFFF
9696
FFFF
FFFF
696D
FFFF
9696
9696
FFFF
696D
FFFF
FFFF
9696
FFFF
696D
696D
FFFF
9696
FFFF
FFFF
ENDCHAR
STARTCHAR 25A0
ENCODING 9632
SWIDTH 585 0
DWIDTH 13 0
BBX 10 10 2 0
BITMAP
FFC0
FFC0
FFC0
FFC0
FFC0
FFC0
FFC0
FFC0
FFC0
FFC0
ENDCHAR
STARTCHAR 25A1
ENCODING 9633
SWIDTH 585 0
DWIDTH 13 0
BBX 10 10 2 0
BITMAP
FFC0
8040
8040
8040
8040
8040
8040
8040
8040
FFC0
ENDCHAR
STARTCHAR 25AA
ENCODING 9642
SWIDTH 360 0
DWIDTH 8 0
BBX 6 6 1 4
BITMAP
FC
FC
FC
FC
FC
FC
ENDCHAR
STARTCHAR 25AB
ENCODING 9643
SWIDTH 360 0
DWIDTH 8 0
BBX 6 6 1 4
BITMAP
FC
84
84
84
84
FC
ENDCHAR
STARTCHAR 25AC
ENCODING 9644
SWIDTH 990 0
DWIDTH 22 0
BBX 22 5 0 3
BITMAP
FFFFFC
FFFFFC
FFFFFC
FFFFFC
FFFFFC
ENDCHAR
STARTCHAR 25B2
ENCODING 9650
SWIDTH 990 0
DWIDTH 22 0
BBX 14 15 4 0
BITMAP
0200
0300
0300
0780
0780
0FC0
0FC0
1FE0
1FE0
3FF0
3FF0
7FF8
7FF8
FFFC
FFFC
ENDCHAR
STARTCHAR 25BA
ENCODING 9658
SWIDTH 990 0
DWIDTH 22 0
BBX 16 15 3 0
BITMAP
C000
F000
FC00
FF00
FFC0
FFF0
FFFC
FFFF
FFFC
FFF0
FFC0
FF00
FC00
F000
C000
ENDCHAR
STARTCHAR 25BC
ENCODING 9660
SWIDTH 990 0
DWIDTH 22 0
BBX 14 15 4 0
BITMAP
FFFC
FFFC
7FF8
7FF8
3FF0
3FF0
1FE0
1FE0
0FC0
0FC0
0780
0780
0300
0300
0200
ENDCHAR
STARTCHAR 25C4
ENCODING 9668
SWIDTH 990 0
DWIDTH 22 0
BBX 16 15 3 0
BITMAP
0003
000F
003F
00FF
03FF
0FFF
3FFF
FFFF
3FFF
0FFF
03FF
00FF
003F
000F
0003
ENDCHAR
STARTCHAR 25CA
ENCODING 9674
SWIDTH 495 0
DWIDTH 11 0
BBX 9 15 1 0
BITMAP
1800
1400
2600
2200
4100
C100
8080
8080
8080
4100
4300
2200
3400
1400
1800
ENDCHAR
STARTCHAR 25CB
ENCODING 9675
SWIDTH 585 0
DWIDTH 13 0
BBX 9 10 2 1
BITMAP
1E00
6100
8080
8080
8080
8080
8080
4080
2300
1C00
ENDCHAR
STARTCHAR 25CF
ENCODING 9679
SWIDTH 585 0
DWIDTH 13 0
BBX 9 10 2 1
BITMAP
1E00
7F00
FF80
FF80
FF80
FF80
FF80
7F80
3F00
0800
ENDCHAR
STARTCHAR 25D8
ENCODING 9688
SWIDTH 585 0
DWIDTH 13 0
BBX 11 11 1 0
BITMAP
FFE0
FFE0
FFE0
FFE0
F0E0
F0E0
F0E0
F1E0
FFE0
FFE0
FFE0
ENDCHAR
STARTCHAR 25D9
ENCODING 9689
SWIDTH 585 0
DWIDTH 13 0
BBX 13 13 0 0
BITMAP
FFF8
FFF8
F878
EFB8
DFD8
DFD8
DFF8
DFF8
DFD8
EFD8
F738
FDF8
FFF8
ENDCHAR
STARTCHAR 25E6
ENCODING 9702
SWIDTH 360 0
DWIDTH 8 0
BBX 6 6 1 4
BITMAP
78
84
84
84
C8
30
ENDCHAR
STARTCHAR 263A
ENCODING 9786
SWIDTH 1035 0
DWIDTH 23 0
BBX 14 14 4 -1
BITMAP
0100
0EE0
3010
2008
400C
4864
8864
8004
4004
4804
444C
2388
1030
0FE0
ENDCHAR
STARTCHAR 263B
ENCODING 9787
SWIDTH 1035 0
DWIDTH 23 0
BBX 14 14 5 -1
BITMAP
0200
1FC0
3FF0
7FF0
FFF8
E7B8
E7BC
FFFC
FFFC
FFB8
7778
78F0
3FE0
1FC0
ENDCHAR
STARTCHAR 263C
ENCODING 9788
SWIDTH 900 0
DWIDTH 20 0
BBX 20 20 0 -2
BITMAP
002000
002000
002000
102040
08F880
070500
040200
080100
080100
080080
F800F0
080100
080100
040100
040200
070D00
08F080
102040
002000
002000
ENDCHAR
STARTCHAR 2640
ENCODING 9792
SWIDTH 765 0
DWIDTH 17 0
BBX 11 21 3 -5
BITMAP
3F00
40C0
8040
8020
8020
8020
8020
8020
8040
4080
3F00
0400
0400
0400
0400
FFE0
0400
0400
0400
0400
0400
ENDCHAR
STARTCHAR 2642
ENCODING 9794
SWIDTH 765 0
DWIDTH 17 0
BBX 14 20 1 -2
BITMAP
0038
00D8
0328
0024
0044
0044
0084
0080
0480
1B80
6040
4020
8020
8010
8010
8020
8020
4040
2040
1F80
ENDCHAR
STARTCHAR 2660
ENCODING 9824
SWIDTH 540 0
DWIDTH 12 0
BBX 10 12 1 1
BITMAP
0C00
0C00
1E00
7F00
FF80
FFC0
FFC0
FFC0
7B80
0800
0C00
3F00
ENDCHAR
STARTCHAR 2663
ENCODING 9827
SWIDTH 675 0
DWIDTH 15 0
BBX 13 13 1 0
BITMAP
0F00
1F80
1F80
1F80
7FF0
FFF8
FFF8
FFF8
FDF8
72F0
0600
0700
3FC0
ENDCHAR
STARTCHAR 2665
ENCODING 9829
SWIDTH 585 0
DWIDTH 13 0
BBX 11 13 1 0
BITMAP
F9E0
FBE0
FFE0
FFE0
FFE0
7FC0
3FC0
3F80
1F00
0E00
0E00
0400
0400
ENDCHAR
STARTCHAR 2666
ENCODING 9830
SWIDTH 495 0
DWIDTH 11 0
BBX 10 13 1 0
BITMAP
0800
1C00
1E00
3E00
7F00
FF80
FFC0
7F80
7F00
3E00
1C00
0C00
0800
ENDCHAR
STARTCHAR 266A
ENCODING 9834
SWIDTH 495 0
DWIDTH 11 0
BBX 11 15 0 0
BITMAP
0780
07C0
07C0
0460
0420
0420
0400
0400
0400
0400
3C00
7C00
FC00
FC00
7800
ENDCHAR
STARTCHAR 266B
ENCODING 9835
SWIDTH 765 0
DWIDTH 17 0
BBX 13 17 1 -1
BITMAP
0038
01F8
07F8
07C8
0408
0408
0408
0408
0408
0408
0478
04F8
35F8
FCF8
FCF0
FC00
F800
ENDCHAR
STARTCHAR E801
ENCODING 59393
SWIDTH 315 0
DWIDTH 7 0
BBX 6 15 -1 0
BITMAP
80
80
00
30
3C
3C
3C
04
04
04
04
04
04
04
04
ENDCHAR
STARTCHAR E802
ENCODING 59394
SWIDTH 450 0
DWIDTH 10 0
BBX 8 16 1 -4
BITMAP
80
FF
FF
FF
03
02
32
32
03
33
03
03
03
03
03
02
ENDCHAR
STARTCHAR E803
ENCODING 59395
SWIDTH 450 0
DWIDTH 10 0
BBX 8 16 1 -4
BITMAP
80
FF
FF
FF
03
02
02
7A
23
33
03
03
03
03
03
02
ENDCHAR
STARTCHAR E804
ENCODING 59396
SWIDTH 450 0
DWIDTH 10 0
BBX 12 17 -3 0
BITMAP
1000
1C00
DC00
CC00
0800
0C00
0FE0
0FF0
0FF0
0030
0030
0020
0060
00C0
0180
0180
0180
ENDCHAR
STARTCHAR E805
ENCODING 59397
SWIDTH 450 0
DWIDTH 10 0
BBX 12 17 -3 0
BITMAP
1000
1C00
DC00
CC00
0800
0C00
0FE0
0FF0
0FF0
0030
0030
0220
0060
00C0
0180
0180
0180
ENDCHAR
STARTCHAR E818
ENCODING 59416
SWIDTH 225 0
DWIDTH 5 0
BBX 4 7 1 15
BITMAP
20
C0
60
90
10
E0
80
ENDCHAR
STARTCHAR E83A
ENCODING 59450
SWIDTH 630 0
DWIDTH 14 0
BBX 15 3 -1 3
BITMAP
FFFE
FFFE
FFFE
ENDCHAR
STARTCHAR F001
ENCODING 61441
SWIDTH 540 0
DWIDTH 12 0
BBX 10 15 1 0
BITMAP
1F00
3180
7380
7000
7000
FFC0
71C0
71C0
71C0
71C0
71C0
71C0
71C0
71C0
FBC0
ENDCHAR
STARTCHAR F002
ENCODING 61442
SWIDTH 540 0
DWIDTH 12 0
BBX 10 15 1 0
BITMAP
1FC0
31C0
73C0
71C0
71C0
FFC0
71C0
71C0
71C0
71C0
71C0
71C0
71C0
71C0
F3C0
ENDCHAR
STARTCHAR F004
ENCODING 61444
SWIDTH 315 0
DWIDTH 7 0
BBX 3 4 1 -5
BITMAP
60
E0
20
40
ENDCHAR
STARTCHAR F005
ENCODING 61445
SWIDTH 315 0
DWIDTH 7 0
BBX 3 3 2 -4
BITMAP
E0
60
E0
ENDCHAR
STARTCHAR F006
ENCODING 61446
SWIDTH 0 0
DWIDTH 0 0
BBX 3 2 -5 18
BITMAP
E0
80
ENDCHAR
STARTCHAR F007
ENCODING 61447
SWIDTH 0 0
DWIDTH 0 0
BBX 3 2 -8 18
BITMAP
E0
80
ENDCHAR
STARTCHAR F008
ENCODING 61448
SWIDTH 0 0
DWIDTH 0 0
BBX 4 4 -5 11
BITMAP
70
60
40
80
ENDCHAR
STARTCHAR F009
ENCODING 61449
SWIDTH 0 0
DWIDTH 0 0
BBX 4 4 -6 16
BITMAP
F0
E0
C0
80
ENDCHAR
STARTCHAR F00A
ENCODING 61450
SWIDTH 765 0
DWIDTH 17 0
BBX 11 14 3 0
BITMAP
FFE0
8020
8020
8020
8020
8020
8020
8020
8020
8020
8020
8020
8020
FFE0
ENDCHAR
STARTCHAR F00B
ENCODING 61451
SWIDTH 765 0
DWIDTH 17 0
BBX 11 14 3 0
BITMAP
FFE0
8020
8020
8020
8020
8020
8020
8020
8020
8020
8020
8020
8020
FFE0
ENDCHAR
STARTCHAR F00C
ENCODING 61452
SWIDTH 765 0
DWIDTH 17 0
BBX 11 14 3 0
BITMAP
FFE0
8020
8020
8020
8020
8020
8020
8020
8020
8020
8020
8020
8020
FFE0
ENDCHAR
STARTCHAR F00D
ENCODING 61453
SWIDTH 765 0
DWIDTH 17 0
BBX 11 14 3 0
BITMAP
FFE0
8020
8020
8020
8020
8020
8020
8020
8020
8020
8020
8020
8020
FFE0
ENDCHAR
STARTCHAR F00E
ENCODING 61454
SWIDTH 765 0
DWIDTH 17 0
BBX 11 14 3 0
BITMAP
FFE0
8020
8020
8020
8020
8020
8020
8020
8020
8020
8020
8020
8020
FFE0
ENDCHAR
STARTCHAR F00F
ENCODING 61455
SWIDTH 0 0
DWIDTH 0 0
BBX 4 4 -8 11
BITMAP
E0
60
20
10
ENDCHAR
STARTCHAR F010
ENCODING 61456
SWIDTH 0 0
DWIDTH 0 0
BBX 3 2 -6 18
BITMAP
E0
20
ENDCHAR
STARTCHAR F011
ENCODING 61457
SWIDTH 0 0
DWIDTH 0 0
BBX 3 1 -9 18
BITMAP
E0
ENDCHAR
STARTCHAR F012
ENCODING 61458
SWIDTH 0 0
DWIDTH 0 0
BBX 4 3 -5 11
BITMAP
F0
90
20
ENDCHAR
STARTCHAR F013
ENCODING 61459
SWIDTH 0 0
DWIDTH 0 0
BBX 5 4 -8 16
BITMAP
70
D8
10
20
ENDCHAR
STARTCHAR F014
ENCODING 61460
SWIDTH 0 0
DWIDTH 0 0
BBX 5 4 -8 11
BITMAP
F8
18
20
20
ENDCHAR
STARTCHAR F015
ENCODING 61461
SWIDTH 0 0
DWIDTH 0 0
BBX 6 2 -11 18
BITMAP
60
9C
ENDCHAR
STARTCHAR F016
ENCODING 61462
SWIDTH 0 0
DWIDTH 0 0
BBX 7 3 -11 17
BITMAP
62
FE
BC
ENDCHAR
STARTCHAR F017
ENCODING 61463
SWIDTH 0 0
DWIDTH 0 0
BBX 7 3 -12 17
BITMAP
62
FE
BC
ENDCHAR
STARTCHAR F018
ENCODING 61464
SWIDTH 0 0
DWIDTH 0 0
BBX 7 3 -12 17
BITMAP
62
FE
BC
ENDCHAR
STARTCHAR F019
ENCODING 61465
SWIDTH 0 0
DWIDTH 0 0
BBX 7 3 -9 12
BITMAP
30
7E
9E
ENDCHAR
STARTCHAR F01A
ENCODING 61466
SWIDTH 0 0
DWIDTH 0 0
BBX 7 3 -10 12
BITMAP
72
FE
9C
ENDCHAR
STARTCHAR F01B
ENCODING 61467
SWIDTH 0 0
DWIDTH 0 0
BBX 7 3 -11 12
BITMAP
70
7E
9E
ENDCHAR
STARTCHAR F01C
ENCODING 61468
SWIDTH 0 0
DWIDTH 0 0
BBX 7 3 -8 17
BITMAP
30
7E
BE
ENDCHAR
STARTCHAR F01D
ENCODING 61469
SWIDTH 0 0
DWIDTH 0 0
BBX 7 3 -7 12
BITMAP
72
FE
9C
ENDCHAR
STARTCHAR F01E
ENCODING 61470
SWIDTH 0 0
DWIDTH 0 0
BBX 3 4 -9 -5
BITMAP
60
E0
E0
60
ENDCHAR
STARTCHAR F01F
ENCODING 61471
SWIDTH 0 0
DWIDTH 0 0
BBX 3 4 -10 -5
BITMAP
E0
E0
E0
40
ENDCHAR
STARTCHAR F020
ENCODING 61472
SWIDTH 0 0
DWIDTH 0 0
BBX 3 4 -10 -5
BITMAP
E0
E0
E0
40
ENDCHAR
STARTCHAR F021
ENCODING 61473
SWIDTH 0 0
DWIDTH 0 0
BBX 4 4 -10 -5
BITMAP
60
F0
F0
60
ENDCHAR
STARTCHAR F022
ENCODING 61474
SWIDTH 0 0
DWIDTH 0 0
BBX 3 4 -11 -5
BITMAP
C0
E0
E0
C0
ENDCHAR
STARTCHAR F023
ENCODING 61475
SWIDTH 0 0
DWIDTH 0 0
BBX 4 4 -7 -5
BITMAP
60
F0
E0
60
ENDCHAR
STARTCHAR F024
ENCODING 61476
SWIDTH 0 0
DWIDTH 0 0
BBX 3 4 -6 -5
BITMAP
C0
E0
E0
C0
ENDCHAR
STARTCHAR F025
ENCODING 61477
SWIDTH 0 0
DWIDTH 0 0
BBX 3 4 -7 -5
BITMAP
E0
E0
E0
40
ENDCHAR
STARTCHAR F026
ENCODING 61478
SWIDTH 0 0
DWIDTH 0 0
BBX 3 4 -8 -5
BITMAP
C0
E0
E0
C0
ENDCHAR
STARTCHAR F027
ENCODING 61479
SWIDTH 0 0
DWIDTH 0 0
BBX 3 4 -8 -5
BITMAP
C0
E0
E0
C0
ENDCHAR
STARTCHAR F028
ENCODING 61480
SWIDTH 0 0
DWIDTH 0 0
BBX 3 4 -9 -5
BITMAP
E0
E0
E0
40
ENDCHAR
STARTCHAR F029
ENCODING 61481
SWIDTH 0 0
DWIDTH 0 0
BBX 3 4 -6 -5
BITMAP
60
E0
E0
60
ENDCHAR
STARTCHAR F02A
ENCODING 61482
SWIDTH 0 0
DWIDTH 0 0
BBX 4 4 -5 -5
BITMAP
60
F0
F0
60
ENDCHAR
STARTCHAR F02B
ENCODING 61483
SWIDTH 0 0
DWIDTH 0 0
BBX 4 4 -10 -5
BITMAP
60
F0
F0
60
ENDCHAR
STARTCHAR F02C
ENCODING 61484
SWIDTH 0 0
DWIDTH 0 0
BBX 3 4 -4 -5
BITMAP
C0
E0
E0
C0
ENDCHAR
STARTCHAR F02D
ENCODING 61485
SWIDTH 0 0
DWIDTH 0 0
BBX 7 2 -11 18
BITMAP
72
9C
ENDCHAR
STARTCHAR F02E
ENCODING 61486
SWIDTH 0 0
DWIDTH 0 0
BBX 7 3 -11 17
BITMAP
20
7E
BE
ENDCHAR
STARTCHAR F02F
ENCODING 61487
SWIDTH 0 0
DWIDTH 0 0
BBX 7 2 -12 18
BITMAP
72
9C
ENDCHAR
STARTCHAR F030
ENCODING 61488
SWIDTH 0 0
DWIDTH 0 0
BBX 7 3 -12 17
BITMAP
22
7E
BE
ENDCHAR
STARTCHAR F031
ENCODING 61489
SWIDTH 270 0
DWIDTH 6 0
BBX 4 10 1 0
BITMAP
F0
70
70
70
70
70
70
70
70
F0
ENDCHAR
STARTCHAR FB01
ENCODING 64257
SWIDTH 540 0
DWIDTH 12 0
BBX 10 15 1 0
BITMAP
1F00
3180
7380
7000
7000
FFC0
71C0
71C0
71C0
71C0
71C0
71C0
71C0
71C0
FBC0
ENDCHAR
STARTCHAR FB02
ENCODING 64258
SWIDTH 540 0
DWIDTH 12 0
BBX 10 15 1 0
BITMAP
1FC0
31C0
73C0
71C0
71C0
FFC0
71C0
71C0
71C0
71C0
71C0
71C0
71C0
71C0
F3C0
ENDCHAR
STARTCHAR FB1D
ENCODING 64285
SWIDTH 315 0
DWIDTH 7 0
BBX 5 11 1 1
BITMAP
C0
F8
F8
F8
18
08
08
10
00
20
30
ENDCHAR
STARTCHAR FB1E
ENCODING 64286
SWIDTH 0 0
DWIDTH 0 0
BBX 6 4 -3 13
BITMAP
84
CC
7C
30
ENDCHAR
STARTCHAR FB1F
ENCODING 64287
SWIDTH 630 0
DWIDTH 14 0
BBX 12 10 1 2
BITMAP
C180
F9F0
F9F0
F9F0
1830
0810
0810
1020
0000
1FF0
ENDCHAR
STARTCHAR FB20
ENCODING 64288
SWIDTH 495 0
DWIDTH 11 0
BBX 10 12 1 0
BITMAP
C600
F780
F7C0
F380
4080
6180
7100
1100
FF00
FF00
FF00
FE00
ENDCHAR
STARTCHAR FB2A
ENCODING 64298
SWIDTH 675 0
DWIDTH 15 0
BBX 14 15 1 0
BITMAP
0030
0030
0000
C630
F7B8
F7BC
F7BC
4218
4210
4410
4420
7FE0
7FE0
7FE0
7FC0
ENDCHAR
STARTCHAR FB2B
ENCODING 64299
SWIDTH 675 0
DWIDTH 15 0
BBX 14 15 1 0
BITMAP
8000
8000
0000
C630
F7B8
F7BC
F7BC
4218
4210
4410
4420
7FE0
7FE0
7FE0
7FC0
ENDCHAR
STARTCHAR FB2C
ENCODING 64300
SWIDTH 675 0
DWIDTH 15 0
BBX 14 15 1 0
BITMAP
0030
0030
0000
C630
F7B8
F7BC
F7BC
4218
4290
4490
4420
7FE0
7FE0
7FE0
7FC0
ENDCHAR
STARTCHAR FB2D
ENCODING 64301
SWIDTH 675 0
DWIDTH 15 0
BBX 14 15 1 0
BITMAP
8000
8000
0000
C630
F7B8
F7BC
F7BC
4218
4290
4490
4420
7FE0
7FE0
7FE0
7FC0
ENDCHAR
STARTCHAR FB2E
ENCODING 64302
SWIDTH 540 0
DWIDTH 12 0
BBX 10 15 1 -3
BITMAP
4300
C7C0
E3C0
FBC0
7D00
7F00
5F00
CF80
E7C0
F3C0
F1C0
F080
0000
0000
1E00
ENDCHAR
STARTCHAR FB2F
ENCODING 64303
SWIDTH 540 0
DWIDTH 12 0
BBX 10 17 1 -5
BITMAP
4300
C7C0
E3C0
FBC0
7D00
7F00
5F00
CF80
E7C0
F3C0
F1C0
F080
0000
1E00
0800
0C00
0C00
ENDCHAR
STARTCHAR FB30
ENCODING 64304
SWIDTH 540 0
DWIDTH 12 0
BBX 10 12 1 0
BITMAP
4300
C7C0
E3C0
FBC0
7D00
7F00
5F00
CF80
E7C0
F3C0
F7C0
F480
ENDCHAR
STARTCHAR FB31
ENCODING 64305
SWIDTH 450 0
DWIDTH 10 0
BBX 9 12 1 0
BITMAP
C000
FE00
FE00
FF00
0300
1300
1300
0200
FF80
FF80
FF00
FF00
ENDCHAR
STARTCHAR FB32
ENCODING 64306
SWIDTH 360 0
DWIDTH 8 0
BBX 8 12 0 0
BITMAP
30
7C
7C
3C
04
24
34
06
7F
7B
73
F2
ENDCHAR
STARTCHAR FB33
ENCODING 64307
SWIDTH 450 0
DWIDTH 10 0
BBX 9 12 1 0
BITMAP
8000
FF80
FF80
FF00
0200
3400
3400
0C00
0C00
0C00
0C00
0C00
ENDCHAR
STARTCHAR FB34
ENCODING 64308
SWIDTH 495 0
DWIDTH 11 0
BBX 10 12 1 0
BITMAP
C000
FFC0
FFC0
FFC0
0080
0900
0D00
E180
C180
C180
C180
C100
ENDCHAR
STARTCHAR FB35
ENCODING 64309
SWIDTH 315 0
DWIDTH 7 0
BBX 4 12 1 0
BITMAP
C0
F0
F0
F0
10
10
D0
D0
10
10
10
10
ENDCHAR
STARTCHAR FB36
ENCODING 64310
SWIDTH 315 0
DWIDTH 7 0
BBX 7 12 0 0
BITMAP
60
7C
7E
7E
10
D0
D0
18
18
18
18
10
ENDCHAR
STARTCHAR FB38
ENCODING 64312
SWIDTH 540 0
DWIDTH 12 0
BBX 10 12 1 0
BITMAP
C100
F380
F780
F7C0
44C0
4040
4440
4040
7FC0
7F80
7F80
7F80
ENDCHAR
STARTCHAR FB39
ENCODING 64313
SWIDTH 315 0
DWIDTH 7 0
BBX 5 8 1 4
BITMAP
C0
F8
F8
F8
18
C8
48
10
ENDCHAR
STARTCHAR FB3A
ENCODING 64314
SWIDTH 450 0
DWIDTH 10 0
BBX 8 16 1 -4
BITMAP
80
FF
FF
FF
03
02
02
32
33
03
03
03
03
03
03
02
ENDCHAR
STARTCHAR FB3B
ENCODING 64315
SWIDTH 450 0
DWIDTH 10 0
BBX 8 12 1 0
BITMAP
C0
FE
FE
FF
03
11
11
01
FF
FF
FE
FC
ENDCHAR
STARTCHAR FB3C
ENCODING 64316
SWIDTH 450 0
DWIDTH 10 0
BBX 9 17 0 0
BITMAP
8000
E000
E000
6000
4000
6000
7F00
7F80
7F80
0180
0180
1100
0300
0600
0C00
0C00
0C00
ENDCHAR
STARTCHAR FB3E
ENCODING 64318
SWIDTH 540 0
DWIDTH 12 0
BBX 10 12 1 0
BITMAP
C200
F300
F780
FF80
39C0
20C0
6640
4040
CFC0
CFC0
8F80
9F80
ENDCHAR
STARTCHAR FB40
ENCODING 64320
SWIDTH 315 0
DWIDTH 7 0
BBX 6 12 0 0
BITMAP
60
7C
7C
7C
0C
28
24
04
7C
7C
7C
FC
ENDCHAR
STARTCHAR FB41
ENCODING 64321
SWIDTH 495 0
DWIDTH 11 0
BBX 9 12 1 0
BITMAP
C000
FF00
FF00
FF00
4180
C880
C880
C180
FF80
FF00
7F00
3E00
ENDCHAR
STARTCHAR FB43
ENCODING 64323
SWIDTH 495 0
DWIDTH 11 0
BBX 9 16 1 -4
BITMAP
8000
FF00
FF00
FF00
4380
4580
4D80
F180
F180
0180
0180
0180
0180
0180
0180
0100
ENDCHAR
STARTCHAR FB44
ENCODING 64324
SWIDTH 450 0
DWIDTH 10 0
BBX 8 12 1 0
BITMAP
C0
FE
FF
FF
43
E5
FD
01
FF
FF
FE
FC
ENDCHAR
STARTCHAR FB46
ENCODING 64326
SWIDTH 495 0
DWIDTH 11 0
BBX 10 12 1 0
BITMAP
C600
F7C0
F7C0
F3C0
1100
5A00
4E00
0700
7F80
FF80
FF80
FF80
ENDCHAR
STARTCHAR FB47
ENCODING 64327
SWIDTH 495 0
DWIDTH 11 0
BBX 9 16 1 -4
BITMAP
8000
FF80
FF80
FF80
0180
0180
7100
C300
C400
C800
D800
D800
C000
C000
C000
8000
ENDCHAR
STARTCHAR FB48
ENCODING 64328
SWIDTH 450 0
DWIDTH 10 0
BBX 8 12 1 0
BITMAP
80
FF
FF
FF
03
01
19
01
01
01
01
01
ENDCHAR
STARTCHAR FB49
ENCODING 64329
SWIDTH 675 0
DWIDTH 15 0
BBX 14 12 1 0
BITMAP
C630
F7B8
F7BC
F7BC
4218
4290
4490
4420
7FE0
7FE0
7FE0
7FC0
ENDCHAR
STARTCHAR FB4A
ENCODING 64330
SWIDTH 540 0
DWIDTH 12 0
BBX 10 12 0 0
BITMAP
2000
7FC0
7FC0
3FC0
08C0
1040
1240
1240
7040
7840
7840
F840
ENDCHAR
STARTCHAR FB4B
ENCODING 64331
SWIDTH 315 0
DWIDTH 7 0
BBX 4 15 1 0
BITMAP
20
20
00
C0
F0
F0
F0
10
10
10
10
10
10
10
10
ENDCHAR
STARTCHAR FB4C
ENCODING 64332
SWIDTH 450 0
DWIDTH 10 0
BBX 9 14 1 0
BITMAP
3C00
0000
C000
FE00
FE00
FF00
0300
0300
0300
0200
FF80
FF80
FF00
FF00
ENDCHAR
STARTCHAR FB4D
ENCODING 64333
SWIDTH 450 0
DWIDTH 10 0
BBX 8 14 1 0
BITMAP
3C
00
C0
FE
FE
FF
03
01
01
01
FF
FF
FE
FC
ENDCHAR
STARTCHAR FB4E
ENCODING 64334
SWIDTH 450 0
DWIDTH 10 0
BBX 8 14 1 0
BITMAP
3C
00
C0
FE
FF
FF
43
E1
F1
01
FF
FF
FE
FC
ENDCHAR
STARTCHAR FB4F
ENCODING 64335
SWIDTH 540 0
DWIDTH 12 0
BBX 11 17 0 0
BITMAP
8000
E000
E000
6000
4000
4180
73E0
79E0
7DE0
3E80
3F80
2F80
67C0
73E0
79E0
78E0
7840
ENDCHAR
STARTCHAR FB50
ENCODING 64336
SWIDTH 225 0
DWIDTH 5 0
BBX 5 17 0 2
BITMAP
10
68
F0
80
20
20
20
20
30
30
30
30
30
30
30
10
20
ENDCHAR
STARTCHAR FB51
ENCODING 64337
SWIDTH 225 0
DWIDTH 5 0
BBX 6 17 -1 3
BITMAP
18
68
F0
00
20
20
70
30
30
30
30
30
30
30
3C
1C
1C
ENDCHAR
STARTCHAR FB52
ENCODING 64338
SWIDTH 630 0
DWIDTH 14 0
BBX 13 15 1 -4
BITMAP
4000
8008
8018
8008
C008
FFF8
FFF8
7FF8
0000
0300
0700
0200
01C0
0180
0080
ENDCHAR
STARTCHAR FB53
ENCODING 64339
SWIDTH 630 0
DWIDTH 14 0
BBX 13 15 1 -4
BITMAP
4000
8008
8018
8008
C008
FFF8
FFF8
7FF8
0000
0300
0700
0200
01C0
0180
0080
ENDCHAR
STARTCHAR FB54
ENCODING 64340
SWIDTH 270 0
DWIDTH 6 0
BBX 7 14 -1 -4
BITMAP
04
06
06
06
02
FE
FE
FE
00
38
30
10
0C
1C
ENDCHAR
STARTCHAR FB55
ENCODING 64341
SWIDTH 270 0
DWIDTH 6 0
BBX 7 14 -1 -4
BITMAP
04
06
06
06
02
FE
FE
FE
00
38
30
10
0C
1C
ENDCHAR
STARTCHAR FB56
ENCODING 64342
SWIDTH 630 0
DWIDTH 14 0
BBX 13 15 1 -4
BITMAP
4000
8008
8018
8008
C008
FFF8
FFF8
7FF8
0000
0180
0780
0E80
0500
0180
0180
ENDCHAR
STARTCHAR FB57
ENCODING 64343
SWIDTH 630 0
DWIDTH 14 0
BBX 13 15 1 -4
BITMAP
4000
8008
8018
8008
C008
FFF8
FFF8
7FF8
0000
0180
0780
0E80
0500
0180
0180
ENDCHAR
STARTCHAR FB58
ENCODING 64344
SWIDTH 270 0
DWIDTH 6 0
BBX 7 15 -1 -4
BITMAP
04
06
06
06
02
FE
FE
FE
00
0C
3C
74
08
0C
0C
ENDCHAR
STARTCHAR FB59
ENCODING 64345
SWIDTH 270 0
DWIDTH 6 0
BBX 7 15 -1 -4
BITMAP
04
06
06
06
02
FE
FE
FE
00
0C
3C
74
08
0C
0C
ENDCHAR
STARTCHAR FB5A
ENCODING 64346
SWIDTH 630 0
DWIDTH 14 0
BBX 13 15 1 -5
BITMAP
4000
8008
8018
8008
C008
FFF8
FFF8
7FF8
0000
0180
0F80
0D00
04C0
03C0
0740
ENDCHAR
STARTCHAR FB5B
ENCODING 64347
SWIDTH 630 0
DWIDTH 14 0
BBX 13 15 1 -5
BITMAP
4000
8008
8018
8008
C008
FFF8
FFF8
7FF8
0000
0180
0F80
0D00
04C0
03C0
0740
ENDCHAR
STARTCHAR FB5C
ENCODING 64348
SWIDTH 270 0
DWIDTH 6 0
BBX 7 15 -1 -5
BITMAP
04
06
06
06
02
FE
FE
FE
00
0C
7C
68
26
1E
3A
ENDCHAR
STARTCHAR FB5D
ENCODING 64349
SWIDTH 270 0
DWIDTH 6 0
BBX 7 15 -1 -5
BITMAP
04
06
06
06
02
FE
FE
FE
00
0C
7C
68
26
1E
3A
ENDCHAR
STARTCHAR FB5E
ENCODING 64350
SWIDTH 630 0
DWIDTH 14 0
BBX 13 14 1 3
BITMAP
0400
0E00
0400
0300
0300
0300
4000
8008
8018
8008
C008
FFF8
FFF8
7FF8
ENDCHAR
STARTCHAR FB5F
ENCODING 64351
SWIDTH 630 0
DWIDTH 14 0
BBX 13 14 1 3
BITMAP
0400
0E00
0400
0300
0300
0300
4000
8008
8018
8008
C008
FFF8
FFF8
7FF8
ENDCHAR
STARTCHAR FB60
ENCODING 64352
SWIDTH 270 0
DWIDTH 6 0
BBX 7 15 -1 3
BITMAP
30
70
10
1C
18
08
00
04
06
06
06
02
FE
FE
FE
ENDCHAR
STARTCHAR FB61
ENCODING 64353
SWIDTH 270 0
DWIDTH 6 0
BBX 7 15 -1 3
BITMAP
30
70
10
1C
18
08
00
04
06
06
06
02
FE
FE
FE
ENDCHAR
STARTCHAR FB62
ENCODING 64354
SWIDTH 630 0
DWIDTH 14 0
BBX 13 14 1 3
BITMAP
0300
1F00
1900
0DC0
0780
0E80
4000
8008
8018
8008
C008
FFF8
FFF8
7FF8
ENDCHAR
STARTCHAR FB63
ENCODING 64355
SWIDTH 630 0
DWIDTH 14 0
BBX 13 14 1 3
BITMAP
0300
1F00
1900
0DC0
0780
0E80
4000
8008
8018
8008
C008
FFF8
FFF8
7FF8
ENDCHAR
STARTCHAR FB64
ENCODING 64356
SWIDTH 270 0
DWIDTH 6 0
BBX 7 16 -1 3
BITMAP
08
5C
7C
64
16
3E
30
00
04
06
06
06
02
FE
FE
FE
ENDCHAR
STARTCHAR FB65
ENCODING 64357
SWIDTH 270 0
DWIDTH 6 0
BBX 7 16 -1 3
BITMAP
08
5C
7C
64
16
3E
30
00
04
06
06
06
02
FE
FE
FE
ENDCHAR
STARTCHAR FB66
ENCODING 64358
SWIDTH 630 0
DWIDTH 14 0
BBX 13 15 1 4
BITMAP
0400
0400
0400
0580
0680
0F80
0000
4000
8008
8018
8008
C008
FFF8
FFF8
7FF8
ENDCHAR
STARTCHAR FB67
ENCODING 64359
SWIDTH 630 0
DWIDTH 14 0
BBX 13 15 1 4
BITMAP
0400
0400
0400
0580
0680
0F80
0000
4000
8008
8018
8008
C008
FFF8
FFF8
7FF8
ENDCHAR
STARTCHAR FB68
ENCODING 64360
SWIDTH 270 0
DWIDTH 6 0
BBX 7 15 -1 4
BITMAP
30
10
10
1E
12
7E
00
04
06
06
06
02
FE
FE
FE
ENDCHAR
STARTCHAR FB69
ENCODING 64361
SWIDTH 270 0
DWIDTH 6 0
BBX 7 15 -1 4
BITMAP
30
10
10
1E
12
7E
00
04
06
06
06
02
FE
FE
FE
ENDCHAR
STARTCHAR FB6A
ENCODING 64362
SWIDTH 765 0
DWIDTH 17 0
BBX 16 16 1 3
BITMAP
0018
0038
0014
0016
003E
0030
0000
000E
801E
801F
8013
801F
C01F
FFFF
FFFF
7FFF
ENDCHAR
STARTCHAR FB6B
ENCODING 64363
SWIDTH 765 0
DWIDTH 17 0
BBX 16 16 1 3
BITMAP
0018
0038
0014
0016
003E
0030
0000
000E
801E
801F
8013
801F
C01F
FFFF
FFFF
7FFF
ENDCHAR
STARTCHAR FB6C
ENCODING 64364
SWIDTH 315 0
DWIDTH 7 0
BBX 8 15 -1 3
BITMAP
30
0C
20
00
0C
1E
1E
36
3F
3F
19
01
FF
FF
FF
ENDCHAR
STARTCHAR FB6D
ENCODING 64365
SWIDTH 315 0
DWIDTH 7 0
BBX 8 16 -1 4
BITMAP
38
30
0C
3C
74
00
04
0E
1F
1F
1B
1F
0F
FF
FF
FF
ENDCHAR
STARTCHAR FB6E
ENCODING 64366
SWIDTH 765 0
DWIDTH 17 0
BBX 16 16 1 4
BITMAP
005C
0078
00E4
0016
003E
0030
0000
000E
801E
801F
8013
801F
C01F
FFFF
FFFF
7FFF
ENDCHAR
STARTCHAR FB6F
ENCODING 64367
SWIDTH 765 0
DWIDTH 17 0
BBX 16 16 1 4
BITMAP
005C
0078
00E4
0016
003E
0030
0000
000E
801E
801F
8013
801F
C01F
FFFF
FFFF
7FFF
ENDCHAR
STARTCHAR FB70
ENCODING 64368
SWIDTH 315 0
DWIDTH 7 0
BBX 8 16 -1 3
BITMAP
18
60
04
30
00
0C
1E
1E
36
3F
3F
19
01
FF
FF
FF
ENDCHAR
STARTCHAR FB71
ENCODING 64369
SWIDTH 315 0
DWIDTH 7 0
BBX 8 17 -1 3
BITMAP
08
2C
7C
62
17
1E
18
04
0E
1F
1F
1B
1F
0F
FF
FF
FF
ENDCHAR
STARTCHAR FB72
ENCODING 64370
SWIDTH 585 0
DWIDTH 13 0
BBX 11 16 1 -5
BITMAP
3C00
7FC0
FFC0
9F80
3800
6000
4400
8E00
8C00
8300
8300
C300
E000
FC20
7FE0
3F80
ENDCHAR
STARTCHAR FB73
ENCODING 64371
SWIDTH 540 0
DWIDTH 12 0
BBX 11 16 1 -4
BITMAP
3C00
7FC0
FFC0
9F00
3A00
6300
53E0
99E0
B9E0
8400
8E00
CC00
E000
FC00
7FE0
3F80
ENDCHAR
STARTCHAR FB74
ENCODING 64372
SWIDTH 540 0
DWIDTH 12 0
BBX 13 15 -1 -4
BITMAP
0E00
1F00
2F80
03C0
00E0
FFF8
FFF8
FFF8
0000
0600
0600
0200
0180
0380
0100
ENDCHAR
STARTCHAR FB75
ENCODING 64373
SWIDTH 540 0
DWIDTH 12 0
BBX 13 15 -1 -4
BITMAP
0E00
1F00
2F80
03C0
00E0
FFF8
FFF8
FFF8
0000
0600
0600
0200
0180
0380
0100
ENDCHAR
STARTCHAR FB76
ENCODING 64374
SWIDTH 585 0
DWIDTH 13 0
BBX 11 16 1 -5
BITMAP
3C00
7FC0
FFC0
9F80
3800
6000
4000
8B80
8F00
9C00
8000
C000
E000
FC20
7FE0
3F80
ENDCHAR
STARTCHAR FB77
ENCODING 64375
SWIDTH 540 0
DWIDTH 12 0
BBX 11 16 1 -4
BITMAP
3C00
7FC0
FFC0
9F00
3A00
6300
43E0
81E0
87E0
9600
BE00
D000
E000
FC00
7FE0
3F80
ENDCHAR
STARTCHAR FB78
ENCODING 64376
SWIDTH 540 0
DWIDTH 12 0
BBX 13 12 -1 -2
BITMAP
0E00
1F00
2F80
03C0
00E0
FFF8
FFF8
FFF8
0000
0180
0780
0E80
ENDCHAR
STARTCHAR FB79
ENCODING 64377
SWIDTH 540 0
DWIDTH 12 0
BBX 13 12 -1 -2
BITMAP
0E00
1F00
2F80
03C0
00E0
FFF8
FFF8
FFF8
0000
0180
0780
0E80
ENDCHAR
STARTCHAR FB7A
ENCODING 64378
SWIDTH 585 0
DWIDTH 13 0
BBX 11 16 1 -5
BITMAP
3C00
7FC0
FFC0
9F80
3800
6000
4300
8F00
9D00
8A00
8700
C300
E000
FC20
7FE0
3F80
ENDCHAR
STARTCHAR FB7B
ENCODING 64379
SWIDTH 540 0
DWIDTH 12 0
BBX 11 16 1 -4
BITMAP
3C00
7FC0
FFC0
9F00
3A00
6300
43E0
8DE0
BDE0
B400
8C00
CC00
E000
FC00
7FE0
3F80
ENDCHAR
STARTCHAR FB7C
ENCODING 64380
SWIDTH 540 0
DWIDTH 12 0
BBX 13 15 -1 -4
BITMAP
0E00
1F00
2F80
03C0
00E0
FFF8
FFF8
FFF8
0000
0180
0F80
0D00
0500
0380
0300
ENDCHAR
STARTCHAR FB7D
ENCODING 64381
SWIDTH 540 0
DWIDTH 12 0
BBX 13 15 -1 -4
BITMAP
0E00
1F00
2F80
03C0
00E0
FFF8
FFF8
FFF8
0000
0180
0F80
0D00
0500
0380
0300
ENDCHAR
STARTCHAR FB7E
ENCODING 64382
SWIDTH 585 0
DWIDTH 13 0
BBX 11 16 1 -5
BITMAP
3C00
7FC0
FFC0
9F80
3800
6000
4B80
8F00
9C80
87C0
8780
C600
E000
FC20
7FE0
3F80
ENDCHAR
STARTCHAR FB7F
ENCODING 64383
SWIDTH 540 0
DWIDTH 12 0
BBX 11 16 1 -4
BITMAP
3C00
7FC0
FFC0
9F00
3A00
6300
43E0
89E0
ADE0
A000
9600
D800
E000
FC00
7FE0
3F80
ENDCHAR
STARTCHAR FB80
ENCODING 64384
SWIDTH 540 0
DWIDTH 12 0
BBX 13 15 -1 -5
BITMAP
0E00
1F00
2F80
03C0
00E0
FFF8
FFF8
FFF8
0000
0180
0F80
0D00
04C0
03C0
0740
ENDCHAR
STARTCHAR FB81
ENCODING 64385
SWIDTH 540 0
DWIDTH 12 0
BBX 13 15 -1 -5
BITMAP
0E00
1F00
2F80
03C0
00E0
FFF8
FFF8
FFF8
0000
0180
0F80
0D00
04C0
03C0
0740
ENDCHAR
STARTCHAR FB82
ENCODING 64386
SWIDTH 360 0
DWIDTH 8 0
BBX 7 15 1 -2
BITMAP
08
0C
1C
0C
06
06
82
FE
FE
7E
00
0C
7C
60
20
ENDCHAR
STARTCHAR FB83
ENCODING 64387
SWIDTH 360 0
DWIDTH 8 0
BBX 7 15 1 -2
BITMAP
08
0C
1C
0C
06
06
82
FE
FE
7E
00
0C
7C
60
20
ENDCHAR
STARTCHAR FB84
ENCODING 64388
SWIDTH 360 0
DWIDTH 8 0
BBX 7 15 1 4
BITMAP
5C
F8
40
00
00
08
0C
1C
0C
06
06
82
FE
FE
7E
ENDCHAR
STARTCHAR FB85
ENCODING 64389
SWIDTH 360 0
DWIDTH 8 0
BBX 7 15 1 4
BITMAP
5C
F8
40
00
00
08
0C
1C
0C
06
06
82
FE
FE
7E
ENDCHAR
STARTCHAR FB86
ENCODING 64390
SWIDTH 360 0
DWIDTH 8 0
BBX 7 16 1 4
BITMAP
70
60
08
7C
E8
20
00
08
0C
1C
0C
06
86
FE
FE
7E
ENDCHAR
STARTCHAR FB87
ENCODING 64391
SWIDTH 360 0
DWIDTH 8 0
BBX 7 16 1 4
BITMAP
70
60
08
7C
E8
20
00
08
0C
1C
0C
06
86
FE
FE
7E
ENDCHAR
STARTCHAR FB88
ENCODING 64392
SWIDTH 360 0
DWIDTH 8 0
BBX 7 17 1 3
BITMAP
40
60
40
48
5C
64
FC
00
08
0C
1C
0C
06
86
FE
FE
7E
ENDCHAR
STARTCHAR FB89
ENCODING 64393
SWIDTH 360 0
DWIDTH 8 0
BBX 7 17 1 3
BITMAP
40
60
40
48
5C
64
FC
00
08
0C
1C
0C
06
86
FE
FE
7E
ENDCHAR
STARTCHAR FB8A
ENCODING 64394
SWIDTH 450 0
DWIDTH 10 0
BBX 9 20 1 -2
BITMAP
0400
0E00
0C00
0B80
0F00
1D00
0000
0000
0100
0100
0300
0180
0080
0080
0180
0380
0700
9E00
7C00
1800
ENDCHAR
STARTCHAR FB8B
ENCODING 64395
SWIDTH 450 0
DWIDTH 10 0
BBX 9 20 1 -2
BITMAP
0400
0E00
0C00
0B80
0F00
1D00
0000
0000
0100
0100
0300
0180
0080
0080
0180
0380
0700
9E00
7C00
1800
ENDCHAR
STARTCHAR FB8C
ENCODING 64396
SWIDTH 450 0
DWIDTH 10 0
BBX 9 20 1 -1
BITMAP
0800
0800
0800
0F00
0900
3F00
0000
0000
0100
0100
0300
0180
0080
0080
0180
0380
0700
9E00
7C00
1800
ENDCHAR
STARTCHAR FB8D
ENCODING 64397
SWIDTH 450 0
DWIDTH 10 0
BBX 9 20 1 -1
BITMAP
0800
0800
0800
0F00
0900
3F00
0000
0000
0100
0100
0300
0180
0080
0080
0180
0380
0700
9E00
7C00
1800
ENDCHAR
STARTCHAR FB8E
ENCODING 64398
SWIDTH 765 0
DWIDTH 17 0
BBX 17 13 0 3
BITMAP
000100
000700
001F00
003C00
003000
003800
401C00
400E00
400300
E00180
FFFF80
7FFF80
3FFF80
ENDCHAR
STARTCHAR FB8F
ENCODING 64399
SWIDTH 900 0
DWIDTH 20 0
BBX 20 13 0 3
BITMAP
000300
000F00
003F00
007800
006000
007000
403800
400C00
400E00
E00B80
FFFBF0
7FF9F0
3FE070
ENDCHAR
STARTCHAR FB90
ENCODING 64400
SWIDTH 360 0
DWIDTH 8 0
BBX 9 13 -1 3
BITMAP
0100
0700
1F00
3C00
3800
3C00
1E00
0600
0300
0180
FF80
FF80
FF80
ENDCHAR
STARTCHAR FB91
ENCODING 64401
SWIDTH 540 0
DWIDTH 12 0
BBX 13 13 -1 3
BITMAP
0080
0380
0F80
1C00
1800
1C00
1E00
0700
0380
07C0
FEF8
FC78
F038
ENDCHAR
STARTCHAR FB92
ENCODING 64402
SWIDTH 765 0
DWIDTH 17 0
BBX 17 16 0 3
BITMAP
000300
000F00
001E00
007900
006700
001F00
003C00
003000
003800
401C00
400E00
400300
E00180
FFFF80
7FFF80
3FFF80
ENDCHAR
STARTCHAR FB93
ENCODING 64403
SWIDTH 900 0
DWIDTH 20 0
BBX 20 16 0 3
BITMAP
000300
000F00
003C00
007300
004F00
003F00
007800
006000
007000
403800
400C00
400E00
E00B80
FFFBF0
7FF9F0
3FE070
ENDCHAR
STARTCHAR FB94
ENCODING 64404
SWIDTH 360 0
DWIDTH 8 0
BBX 9 16 -1 3
BITMAP
0100
0700
1E00
3900
2700
1F00
3C00
3800
3C00
1E00
0600
0300
0180
FF80
FF80
FF80
ENDCHAR
STARTCHAR FB95
ENCODING 64405
SWIDTH 540 0
DWIDTH 12 0
BBX 13 16 -1 3
BITMAP
0180
0780
0F00
1C80
1380
0F80
1C00
1800
1C00
1E00
0700
0380
07C0
FEF8
FC78
F038
ENDCHAR
STARTCHAR FB96
ENCODING 64406
SWIDTH 765 0
DWIDTH 17 0
BBX 17 22 0 -4
BITMAP
000300
000F00
001E00
007900
006700
001F00
003C00
003000
003800
401C00
400E00
400300
E00180
FFFF80
7FFF80
3FFF80
000000
018000
018000
008000
006000
00E000
ENDCHAR
STARTCHAR FB97
ENCODING 64407
SWIDTH 900 0
DWIDTH 20 0
BBX 20 23 0 -4
BITMAP
000300
000F00
003C00
007300
004F00
003F00
007800
006000
007000
403800
400C00
400E00
E00B80
FFFBF0
7FF9F0
3FE070
000000
030000
070000
020000
01C000
018000
008000
ENDCHAR
STARTCHAR FB98
ENCODING 64408
SWIDTH 360 0
DWIDTH 8 0
BBX 9 22 -1 -4
BITMAP
0100
0700
1E00
3900
2700
1F00
3C00
3800
3C00
1E00
0600
0300
0180
FF80
FF80
FF80
0000
1C00
1800
0800
0600
0E00
ENDCHAR
STARTCHAR FB99
ENCODING 64409
SWIDTH 540 0
DWIDTH 12 0
BBX 13 22 -1 -4
BITMAP
0180
0780
0F00
1C80
1380
0F80
1C00
1800
1C00
1E00
0700
0380
07C0
FEF8
FC78
F038
0000
3800
3000
1000
0C00
1C00
ENDCHAR
STARTCHAR FB9A
ENCODING 64410
SWIDTH 765 0
DWIDTH 17 0
BBX 17 17 0 3
BITMAP
000800
002B00
002F00
001E00
007900
006700
001F00
003C00
003000
003800
401C00
400E00
400300
E00180
FFFF80
7FFF80
3FFF80
ENDCHAR
STARTCHAR FB9B
ENCODING 64411
SWIDTH 900 0
DWIDTH 20 0
BBX 20 17 0 3
BITMAP
000800
006B00
002F00
003C00
007300
004F00
003F00
007800
006000
007000
403800
400C00
400E00
E00B80
FFFBF0
7FF9F0
3FE070
ENDCHAR
STARTCHAR FB9C
ENCODING 64412
SWIDTH 360 0
DWIDTH 8 0
BBX 9 17 -1 3
BITMAP
0800
2900
2700
1E00
3900
2700
1F00
3C00
3800
3C00
1E00
0600
0300
0180
FF80
FF80
FF80
ENDCHAR
STARTCHAR FB9D
ENCODING 64413
SWIDTH 540 0
DWIDTH 12 0
BBX 13 17 -1 3
BITMAP
0400
1580
1780
0F00
1C80
1380
0F80
1C00
1800
1C00
1E00
0700
0380
07C0
FEF8
FC78
F038
ENDCHAR
STARTCHAR FB9E
ENCODING 64414
SWIDTH 540 0
DWIDTH 12 0
BBX 11 11 1 -1
BITMAP
0040
0060
4060
4060
8020
8020
8020
8060
E0E0
FFC0
7F80
ENDCHAR
STARTCHAR FB9F
ENCODING 64415
SWIDTH 540 0
DWIDTH 12 0
BBX 11 11 1 -1
BITMAP
0040
0060
4060
4060
8020
8020
8020
8060
E0E0
FFC0
7F80
ENDCHAR
STARTCHAR FBA0
ENCODING 64416
SWIDTH 540 0
DWIDTH 12 0
BBX 11 18 1 0
BITMAP
0800
0800
0800
0F00
0900
1F00
0000
0040
0060
4060
4060
8020
8020
8020
8060
E0E0
FFC0
7F80
ENDCHAR
STARTCHAR FBA1
ENCODING 64417
SWIDTH 540 0
DWIDTH 12 0
BBX 11 18 1 0
BITMAP
0800
0800
0800
0F00
0900
1F00
0000
0040
0060
4060
4060
8020
8020
8020
8060
E0E0
FFC0
7F80
ENDCHAR
STARTCHAR FBA2
ENCODING 64418
SWIDTH 270 0
DWIDTH 6 0
BBX 7 15 -1 4
BITMAP
30
10
10
1E
12
7E
00
04
06
06
06
02
FE
FE
FE
ENDCHAR
STARTCHAR FBA3
ENCODING 64419
SWIDTH 270 0
DWIDTH 6 0
BBX 7 15 -1 4
BITMAP
30
10
10
1E
12
7E
00
04
06
06
06
02
FE
FE
FE
ENDCHAR
STARTCHAR FBA4
ENCODING 64420
SWIDTH 360 0
DWIDTH 8 0
BBX 6 12 1 3
BITMAP
60
70
00
00
60
78
7C
9C
8C
FC
F8
F0
ENDCHAR
STARTCHAR FBA5
ENCODING 64421
SWIDTH 405 0
DWIDTH 9 0
BBX 9 13 0 4
BITMAP
6000
3400
0400
0400
1C00
3C00
6400
7C00
FE00
F600
0380
0380
0180
ENDCHAR
STARTCHAR FBA6
ENCODING 64422
SWIDTH 360 0
DWIDTH 8 0
BBX 6 8 1 4
BITMAP
60
78
7C
9C
8C
FC
F8
F0
ENDCHAR
STARTCHAR FBA7
ENCODING 64423
SWIDTH 405 0
DWIDTH 9 0
BBX 8 5 1 2
BITMAP
38
3C
7F
CF
83
ENDCHAR
STARTCHAR FBA8
ENCODING 64424
SWIDTH 270 0
DWIDTH 6 0
BBX 7 14 -1 -3
BITMAP
04
06
06
06
02
FE
FE
FE
00
00
10
20
18
18
ENDCHAR
STARTCHAR FBA9
ENCODING 64425
SWIDTH 315 0
DWIDTH 7 0
BBX 8 14 -1 -5
BITMAP
08
08
18
FB
F7
CF
0C
08
00
04
08
0C
0C
04
ENDCHAR
STARTCHAR FBAA
ENCODING 64426
SWIDTH 450 0
DWIDTH 10 0
BBX 10 11 -1 3
BITMAP
0800
0C00
0E00
0F00
1F00
1380
1680
3EC0
FFC0
FFC0
E380
ENDCHAR
STARTCHAR FBAB
ENCODING 64427
SWIDTH 405 0
DWIDTH 9 0
BBX 9 12 0 3
BITMAP
0400
0400
0400
1C00
3C00
6400
7C00
FE00
F600
0380
0380
0180
ENDCHAR
STARTCHAR FBAC
ENCODING 64428
SWIDTH 450 0
DWIDTH 10 0
BBX 10 11 -1 3
BITMAP
0800
0C00
0E00
0F00
1F00
1380
1680
3EC0
FFC0
FFC0
E380
ENDCHAR
STARTCHAR FBAD
ENCODING 64429
SWIDTH 450 0
DWIDTH 10 0
BBX 11 14 -1 -2
BITMAP
0300
0700
0700
0900
0B00
1E00
FFE0
FFE0
FFE0
1300
1980
1F00
0F00
0700
ENDCHAR
STARTCHAR FBAE
ENCODING 64430
SWIDTH 810 0
DWIDTH 18 0
BBX 17 11 1 -1
BITMAP
018000
038000
078000
1C8000
780000
F00000
C00000
800000
FFFF80
FFFE00
FFFC00
ENDCHAR
STARTCHAR FBAF
ENCODING 64431
SWIDTH 810 0
DWIDTH 18 0
BBX 17 11 1 -5
BITMAP
007F80
03FF80
0FFF80
3E0000
780000
600000
C00000
800000
FFFF80
FFFE00
FFFC00
ENDCHAR
STARTCHAR FBB0
ENCODING 64432
SWIDTH 810 0
DWIDTH 18 0
BBX 17 14 1 -1
BITMAP
080000
180000
100000
018000
038000
078000
1C8000
780000
F00000
C00000
800000
FFFF80
FFFE00
FFFC00
ENDCHAR
STARTCHAR FBB1
ENCODING 64433
SWIDTH 810 0
DWIDTH 18 0
BBX 17 16 1 -5
BITMAP
003000
002000
003000
000000
000000
007F80
03FF80
0FFF80
3E0000
780000
600000
C00000
800000
FFFF80
FFFE00
FFFC00
ENDCHAR
STARTCHAR FBD3
ENCODING 64467
SWIDTH 540 0
DWIDTH 12 0
BBX 12 16 0 3
BITMAP
0400
0B00
0840
0060
0370
0270
0620
0720
0320
4320
4E30
4030
E010
FFF0
7FF0
3FF0
ENDCHAR
STARTCHAR FBD4
ENCODING 64468
SWIDTH 540 0
DWIDTH 12 0
BBX 12 16 0 3
BITMAP
0400
0B00
0840
0060
0370
0270
0620
0720
0320
4320
4E30
4030
E010
FFF0
7FF0
3FF0
ENDCHAR
STARTCHAR FBD5
ENCODING 64469
SWIDTH 360 0
DWIDTH 8 0
BBX 9 15 -1 3
BITMAP
1000
0C00
3100
0700
1F00
3C00
3800
3C00
1E00
0600
0300
0180
FF80
FF80
FF80
ENDCHAR
STARTCHAR FBD6
ENCODING 64470
SWIDTH 360 0
DWIDTH 8 0
BBX 9 15 -1 3
BITMAP
1000
0C00
3100
0700
1F00
3C00
3800
3C00
1E00
0600
0300
0180
FF80
FF80
FF80
ENDCHAR
STARTCHAR FBD7
ENCODING 64471
SWIDTH 450 0
DWIDTH 10 0
BBX 10 19 0 -2
BITMAP
0180
0180
0180
0200
0000
0000
0180
0380
03C0
06C0
0640
07C0
03C0
01C0
00C0
8380
7F80
3F00
0400
ENDCHAR
STARTCHAR FBD8
ENCODING 64472
SWIDTH 450 0
DWIDTH 10 0
BBX 10 19 0 -2
BITMAP
0180
0180
0180
0200
0000
0000
0180
0380
03C0
06C0
0640
07C0
03C0
01C0
00C0
8380
7F80
3F00
0400
ENDCHAR
STARTCHAR FBD9
ENCODING 64473
SWIDTH 450 0
DWIDTH 10 0
BBX 10 17 0 -2
BITMAP
0280
0380
0100
0000
0180
0380
03C0
06C0
0640
07C0
03C0
01C0
00C0
8380
7F80
3F00
0400
ENDCHAR
STARTCHAR FBDA
ENCODING 64474
SWIDTH 450 0
DWIDTH 10 0
BBX 10 17 0 -2
BITMAP
0280
0380
0100
0000
0180
0380
03C0
06C0
0640
07C0
03C0
01C0
00C0
8380
7F80
3F00
0400
ENDCHAR
STARTCHAR FBDB
ENCODING 64475
SWIDTH 450 0
DWIDTH 10 0
BBX 10 19 0 -1
BITMAP
0200
0200
0100
0100
0200
0000
0180
0380
03C0
06C0
0640
07C0
03C0
01C0
00C0
8380
7F80
3F00
0400
ENDCHAR
STARTCHAR FBDC
ENCODING 64476
SWIDTH 450 0
DWIDTH 10 0
BBX 10 19 0 -1
BITMAP
0200
0200
0100
0100
0200
0000
0180
0380
03C0
06C0
0640
07C0
03C0
01C0
00C0
8380
7F80
3F00
0400
ENDCHAR
STARTCHAR FBDD
ENCODING 64477
SWIDTH 450 0
DWIDTH 10 0
BBX 11 18 0 -2
BITMAP
0600
06E0
0260
0480
0800
0180
0380
03C0
06C0
0640
07C0
03C0
01C0
00C0
8380
7F80
3F00
0400
ENDCHAR
STARTCHAR FBDE
ENCODING 64478
SWIDTH 450 0
DWIDTH 10 0
BBX 10 20 0 -2
BITMAP
0600
0600
0600
05C0
0780
0E80
0000
0180
0380
03C0
06C0
0640
07C0
03C0
01C0
00C0
8380
7F80
3F00
0400
ENDCHAR
STARTCHAR FBDF
ENCODING 64479
SWIDTH 450 0
DWIDTH 10 0
BBX 10 20 0 -2
BITMAP
0600
0600
0600
05C0
0780
0E80
0000
0180
0380
03C0
06C0
0640
07C0
03C0
01C0
00C0
8380
7F80
3F00
0400
ENDCHAR
STARTCHAR FBE0
ENCODING 64480
SWIDTH 450 0
DWIDTH 10 0
BBX 10 13 0 -2
BITMAP
0180
0380
03C0
06C0
0640
07C0
03C0
01C0
1FC0
8380
7F80
3F00
0400
ENDCHAR
STARTCHAR FBE1
ENCODING 64481
SWIDTH 450 0
DWIDTH 10 0
BBX 10 13 0 -2
BITMAP
0180
0380
03C0
06C0
0640
07C0
03C0
01C0
1FC0
8380
7F80
3F00
0400
ENDCHAR
STARTCHAR FBE2
ENCODING 64482
SWIDTH 450 0
DWIDTH 10 0
BBX 10 17 0 -2
BITMAP
0100
0380
0680
0000
0180
0380
03C0
06C0
0640
07C0
03C0
01C0
00C0
8380
7F80
3F00
0400
ENDCHAR
STARTCHAR FBE3
ENCODING 64483
SWIDTH 450 0
DWIDTH 10 0
BBX 10 17 0 -2
BITMAP
0100
0380
0680
0000
0180
0380
03C0
06C0
0640
07C0
03C0
01C0
00C0
8380
7F80
3F00
0400
ENDCHAR
STARTCHAR FBE4
ENCODING 64484
SWIDTH 630 0
DWIDTH 14 0
BBX 11 14 2 -4
BITMAP
00E0
01E0
0320
4600
8600
87C0
83C0
80C0
83C0
FF80
FE00
0000
0800
0800
ENDCHAR
STARTCHAR FBE5
ENCODING 64485
SWIDTH 540 0
DWIDTH 12 0
BBX 12 11 0 -5
BITMAP
2070
40F0
41F0
81E0
81F0
C060
FFE0
7FC0
1C00
0400
0400
ENDCHAR
STARTCHAR FBE6
ENCODING 64486
SWIDTH 270 0
DWIDTH 6 0
BBX 7 14 -1 -4
BITMAP
04
06
06
06
02
FE
FE
FE
00
38
30
10
0C
1C
ENDCHAR
STARTCHAR FBE7
ENCODING 64487
SWIDTH 270 0
DWIDTH 6 0
BBX 7 14 -1 -4
BITMAP
04
06
06
06
02
FE
FE
FE
00
38
30
10
0C
1C
ENDCHAR
STARTCHAR FBFC
ENCODING 64508
SWIDTH 630 0
DWIDTH 14 0
BBX 11 11 2 -1
BITMAP
00E0
01E0
0320
4600
8600
87C0
83C0
80C0
83C0
FF80
FE00
ENDCHAR
STARTCHAR FBFD
ENCODING 64509
SWIDTH 540 0
DWIDTH 12 0
BBX 13 10 0 -4
BITMAP
2078
20F8
41F8
41F0
41F0
C030
C0E0
FFE0
7F80
3E00
ENDCHAR
STARTCHAR FBFE
ENCODING 64510
SWIDTH 270 0
DWIDTH 6 0
BBX 7 12 -1 -2
BITMAP
04
06
06
06
02
FE
FE
FE
00
0C
3C
74
ENDCHAR
STARTCHAR FBFF
ENCODING 64511
SWIDTH 270 0
DWIDTH 6 0
BBX 7 12 -1 -2
BITMAP
04
06
06
06
02
FE
FE
FE
00
0C
3C
74
ENDCHAR
STARTCHAR FC5E
ENCODING 64606
SWIDTH 225 0
DWIDTH 5 0
BBX 4 7 1 15
BITMAP
30
B0
B0
D0
50
E0
80
ENDCHAR
STARTCHAR FC5F
ENCODING 64607
SWIDTH 225 0
DWIDTH 5 0
BBX 4 7 1 15
BITMAP
10
50
E0
90
60
A0
C0
ENDCHAR
STARTCHAR FC60
ENCODING 64608
SWIDTH 225 0
DWIDTH 5 0
BBX 4 5 1 15
BITMAP
60
90
50
E0
80
ENDCHAR
STARTCHAR FC61
ENCODING 64609
SWIDTH 225 0
DWIDTH 5 0
BBX 4 7 1 15
BITMAP
20
60
30
D0
10
E0
80
ENDCHAR
STARTCHAR FC62
ENCODING 64610
SWIDTH 225 0
DWIDTH 5 0
BBX 4 6 1 15
BITMAP
10
50
E0
80
60
80
ENDCHAR
STARTCHAR FD3E
ENCODING 64830
SWIDTH 315 0
DWIDTH 7 0
BBX 5 22 1 -5
BITMAP
08
10
30
30
20
60
60
60
E0
E0
E0
E0
E0
60
60
60
60
30
30
10
08
08
ENDCHAR
STARTCHAR FD3F
ENCODING 64831
SWIDTH 315 0
DWIDTH 7 0
BBX 5 22 1 -5
BITMAP
80
40
60
60
30
30
30
38
38
18
18
18
38
38
30
30
30
20
60
40
C0
80
ENDCHAR
STARTCHAR FDF2
ENCODING 65010
SWIDTH 720 0
DWIDTH 16 0
BBX 15 18 0 2
BITMAP
0200
0100
0100
0000
00C0
00C0
0100
0008
0048
084C
0C4C
0C64
1C66
3426
7E7E
7FFC
FBFC
03C0
ENDCHAR
STARTCHAR FE80
ENCODING 65152
SWIDTH 450 0
DWIDTH 10 0
BBX 8 10 1 1
BITMAP
3C
3C
6C
60
F7
7F
3C
30
60
40
ENDCHAR
STARTCHAR FE81
ENCODING 65153
SWIDTH 225 0
DWIDTH 5 0
BBX 5 15 0 2
BITMAP
F8
00
20
20
20
20
30
30
30
30
30
30
30
10
20
ENDCHAR
STARTCHAR FE82
ENCODING 65154
SWIDTH 270 0
DWIDTH 6 0
BBX 7 15 -1 3
BITMAP
F8
00
20
30
30
30
10
10
10
10
10
10
1E
1E
0E
ENDCHAR
STARTCHAR FE83
ENCODING 65155
SWIDTH 225 0
DWIDTH 5 0
BBX 3 16 1 2
BITMAP
C0
60
80
40
40
40
40
60
60
60
60
60
60
20
20
40
ENDCHAR
STARTCHAR FE84
ENCODING 65156
SWIDTH 225 0
DWIDTH 5 0
BBX 5 16 0 3
BITMAP
C0
E0
00
40
40
E0
60
60
60
60
60
60
60
78
38
38
ENDCHAR
STARTCHAR FE85
ENCODING 65157
SWIDTH 450 0
DWIDTH 10 0
BBX 10 17 0 -2
BITMAP
0800
1000
0C00
0000
0180
0380
03C0
06C0
0640
07C0
03C0
01C0
00C0
8380
7F80
3F00
0400
ENDCHAR
STARTCHAR FE86
ENCODING 65158
SWIDTH 450 0
DWIDTH 10 0
BBX 10 17 0 -2
BITMAP
0800
1000
0C00
0000
0180
0380
03C0
06C0
0640
07C0
03C0
01C0
00C0
8380
7F80
3F00
0400
ENDCHAR
STARTCHAR FE87
ENCODING 65159
SWIDTH 225 0
DWIDTH 5 0
BBX 3 18 1 -2
BITMAP
40
40
40
40
60
60
60
60
60
60
60
20
40
00
00
60
C0
C0
ENDCHAR
STARTCHAR FE88
ENCODING 65160
SWIDTH 225 0
DWIDTH 5 0
BBX 5 18 0 -2
BITMAP
40
40
E0
60
60
60
60
60
60
60
78
38
38
00
00
10
20
30
ENDCHAR
STARTCHAR FE89
ENCODING 65161
SWIDTH 630 0
DWIDTH 14 0
BBX 11 13 2 -1
BITMAP
6000
C000
E0E0
01E0
0320
4600
8600
87C0
83C0
80C0
83C0
FF80
FE00
ENDCHAR
STARTCHAR FE8A
ENCODING 65162
SWIDTH 585 0
DWIDTH 13 0
BBX 13 13 0 -1
BITMAP
3000
1800
0000
0000
1000
2078
40F8
41F8
C1F0
C030
F1E0
7FE0
3F80
ENDCHAR
STARTCHAR FE8B
ENCODING 65163
SWIDTH 270 0
DWIDTH 6 0
BBX 7 12 -1 3
BITMAP
04
08
0C
00
04
06
06
06
02
FE
FE
FE
ENDCHAR
STARTCHAR FE8C
ENCODING 65164
SWIDTH 270 0
DWIDTH 6 0
BBX 7 12 -1 3
BITMAP
04
08
0C
00
04
06
06
06
02
FE
FE
FE
ENDCHAR
STARTCHAR FE8D
ENCODING 65165
SWIDTH 225 0
DWIDTH 5 0
BBX 2 13 2 2
BITMAP
80
80
80
80
C0
C0
C0
C0
C0
C0
C0
40
80
ENDCHAR
STARTCHAR FE8E
ENCODING 65166
SWIDTH 225 0
DWIDTH 5 0
BBX 5 13 0 3
BITMAP
40
40
E0
60
60
60
60
60
60
60
78
38
38
ENDCHAR
STARTCHAR FE8F
ENCODING 65167
SWIDTH 630 0
DWIDTH 14 0
BBX 13 12 1 -2
BITMAP
4000
8008
8018
8008
C008
FFF8
FFF8
7FF8
0000
0300
0380
0300
ENDCHAR
STARTCHAR FE90
ENCODING 65168
SWIDTH 630 0
DWIDTH 14 0
BBX 13 12 1 -2
BITMAP
4000
8008
8018
8008
C008
FFF8
FFF8
7FF8
0000
0300
0380
0300
ENDCHAR
STARTCHAR FE91
ENCODING 65169
SWIDTH 270 0
DWIDTH 6 0
BBX 7 12 -1 -2
BITMAP
04
06
06
06
02
FE
FE
FE
00
18
3C
18
ENDCHAR
STARTCHAR FE92
ENCODING 65170
SWIDTH 270 0
DWIDTH 6 0
BBX 7 12 -1 -2
BITMAP
04
06
06
06
02
FE
FE
FE
00
18
3C
18
ENDCHAR
STARTCHAR FE93
ENCODING 65171
SWIDTH 360 0
DWIDTH 8 0
BBX 6 14 1 3
BITMAP
10
F8
F0
C0
00
00
60
78
7C
9C
8C
FC
F8
F0
ENDCHAR
STARTCHAR FE94
ENCODING 65172
SWIDTH 405 0
DWIDTH 9 0
BBX 9 16 0 3
BITMAP
0C00
3C00
7400
0000
0400
0400
0400
1C00
3C00
6400
7C00
FE00
F600
0380
0380
0180
ENDCHAR
STARTCHAR FE95
ENCODING 65173
SWIDTH 630 0
DWIDTH 14 0
BBX 13 11 1 4
BITMAP
01C0
0F80
0E80
4000
8008
8018
8008
C008
FFF8
FFF8
7FF8
ENDCHAR
STARTCHAR FE96
ENCODING 65174
SWIDTH 630 0
DWIDTH 14 0
BBX 13 11 1 4
BITMAP
01C0
0F80
0E80
4000
8008
8018
8008
C008
FFF8
FFF8
7FF8
ENDCHAR
STARTCHAR FE97
ENCODING 65175
SWIDTH 270 0
DWIDTH 6 0
BBX 7 13 -1 3
BITMAP
04
2E
3C
30
00
04
06
06
06
02
FE
FE
FE
ENDCHAR
STARTCHAR FE98
ENCODING 65176
SWIDTH 270 0
DWIDTH 6 0
BBX 7 13 -1 3
BITMAP
04
2E
3C
30
00
04
06
06
06
02
FE
FE
FE
ENDCHAR
STARTCHAR FE99
ENCODING 65177
SWIDTH 630 0
DWIDTH 14 0
BBX 13 14 1 3
BITMAP
0400
0600
0600
0180
0780
0E80
4000
8008
8018
8008
C008
FFF8
FFF8
3FF8
ENDCHAR
STARTCHAR FE9A
ENCODING 65178
SWIDTH 630 0
DWIDTH 14 0
BBX 13 14 1 3
BITMAP
0400
0600
0600
0180
0780
0E80
4000
8008
8018
8008
C008
FFF8
FFF8
3FF8
ENDCHAR
STARTCHAR FE9B
ENCODING 65179
SWIDTH 270 0
DWIDTH 6 0
BBX 7 15 -1 3
BITMAP
30
30
14
2E
3C
30
00
04
06
06
06
02
FE
FE
FE
ENDCHAR
STARTCHAR FE9C
ENCODING 65180
SWIDTH 270 0
DWIDTH 6 0
BBX 7 15 -1 3
BITMAP
30
30
14
2E
3C
30
00
04
06
06
06
02
FE
FE
FE
ENDCHAR
STARTCHAR FE9D
ENCODING 65181
SWIDTH 585 0
DWIDTH 13 0
BBX 11 16 1 -5
BITMAP
3C00
7FC0
FFC0
9F80
3800
6000
4000
8600
8700
8600
8200
C000
E000
FC20
7FE0
3F80
ENDCHAR
STARTCHAR FE9E
ENCODING 65182
SWIDTH 540 0
DWIDTH 12 0
BBX 11 16 1 -4
BITMAP
3C00
7FC0
FFC0
9F00
3A00
6300
43E0
81E0
99E0
9C00
9C00
C000
E000
FC00
7FE0
3F80
ENDCHAR
STARTCHAR FE9F
ENCODING 65183
SWIDTH 540 0
DWIDTH 12 0
BBX 13 12 -1 -2
BITMAP
0E00
1F00
2F80
03C0
00E0
FFF8
FFF8
FFF8
0000
0200
0700
0700
ENDCHAR
STARTCHAR FEA0
ENCODING 65184
SWIDTH 540 0
DWIDTH 12 0
BBX 13 12 -1 -2
BITMAP
0E00
1F00
2F80
03C0
00E0
FFF8
FFF8
FFF8
0000
0200
0700
0700
ENDCHAR
STARTCHAR FEA1
ENCODING 65185
SWIDTH 585 0
DWIDTH 13 0
BBX 11 16 1 -5
BITMAP
3C00
7FC0
FFC0
9F80
3800
6000
4000
8000
8000
8000
8000
C000
E000
FC20
7FE0
3F80
ENDCHAR
STARTCHAR FEA2
ENCODING 65186
SWIDTH 540 0
DWIDTH 12 0
BBX 11 16 1 -4
BITMAP
3C00
7FC0
FFC0
9F00
3A00
6300
43E0
81E0
81E0
8000
8000
C000
E000
FC00
7FE0
3F80
ENDCHAR
STARTCHAR FEA3
ENCODING 65187
SWIDTH 540 0
DWIDTH 12 0
BBX 13 8 -1 3
BITMAP
0E00
1F00
2F80
03C0
00E0
FFF8
FFF8
FFF8
ENDCHAR
STARTCHAR FEA4
ENCODING 65188
SWIDTH 540 0
DWIDTH 12 0
BBX 13 8 -1 3
BITMAP
0E00
1F00
2F80
03C0
00E0
FFF8
FFF8
FFF8
ENDCHAR
STARTCHAR FEA5
ENCODING 65189
SWIDTH 585 0
DWIDTH 13 0
BBX 11 20 1 -4
BITMAP
0C00
1C00
0C00
0000
3C00
7FC0
FFC0
9F80
3800
6000
4000
8000
8000
8000
8000
C000
E000
FC20
7FE0
3F80
ENDCHAR
STARTCHAR FEA6
ENCODING 65190
SWIDTH 540 0
DWIDTH 12 0
BBX 11 20 1 -3
BITMAP
0C00
1C00
0C00
0000
3C00
7FC0
FFC0
9F00
3A00
6300
43E0
81E0
81E0
8000
8000
C000
E000
FC00
7FE0
3F80
ENDCHAR
STARTCHAR FEA7
ENCODING 65191
SWIDTH 540 0
DWIDTH 12 0
BBX 13 13 -1 3
BITMAP
0600
0700
0700
0000
0000
0E00
1F00
2F80
03C0
00E0
FFF8
FFF8
FFF8
ENDCHAR
ENDFONT
